<?xml version="1.0" encoding="UTF-8" standalone="no"?>
<svg
   width="184"
   height="36"
   viewBox="0 0 184 36"
   fill="none"
   version="1.1"
   id="svg2"
   sodipodi:docname="logo-light.svg"
   xml:space="preserve"
   inkscape:version="1.3.2 (091e20e, 2023-11-25)"
   inkscape:export-filename="logo-color.png"
   inkscape:export-xdpi="96"
   inkscape:export-ydpi="96"
   xmlns:inkscape="http://www.inkscape.org/namespaces/inkscape"
   xmlns:sodipodi="http://sodipodi.sourceforge.net/DTD/sodipodi-0.dtd"
   xmlns="http://www.w3.org/2000/svg"
   xmlns:svg="http://www.w3.org/2000/svg"><defs
     id="defs2" /><sodipodi:namedview
     id="namedview2"
     pagecolor="#ffffff"
     bordercolor="#000000"
     borderopacity="0.25"
     inkscape:showpageshadow="2"
     inkscape:pageopacity="0.0"
     inkscape:pagecheckerboard="0"
     inkscape:deskcolor="#d1d1d1"
     inkscape:zoom="5.2441279"
     inkscape:cx="85.428885"
     inkscape:cy="7.0555106"
     inkscape:window-width="1792"
     inkscape:window-height="1067"
     inkscape:window-x="0"
     inkscape:window-y="25"
     inkscape:window-maximized="1"
     inkscape:current-layer="svg2"
     showgrid="true"><inkscape:grid
       id="grid17"
       units="px"
       originx="0"
       originy="0"
       spacingx="1"
       spacingy="1"
       empcolor="#0099e5"
       empopacity="0.30196078"
       color="#0099e5"
       opacity="0.14901961"
       empspacing="5"
       dotted="false"
       gridanglex="30"
       gridanglez="30"
       visible="true" /></sodipodi:namedview><g
     id="g2-2-7"
     style="display:inline;fill:#ffffff;fill-opacity:1;stroke:#ffffff;stroke-linecap:square;stroke-opacity:1"
     inkscape:label="light"
     transform="translate(1.562744,0.538107)"
     sodipodi:insensitive="true"><path
       style="fill:#ffffff;fill-opacity:1;stroke:#ffffff;stroke-linecap:square;stroke-opacity:1"
       d="M 2.6598837,31.866279 C 2.8611658,31.664826 3.0297757,31.5 3.0345722,31.5 c 0.0048,0 -0.1559645,0.164826 -0.3572467,0.366279 -0.2012821,0.201454 -0.3698919,0.366279 -0.3746884,0.366279 -0.0048,0 0.1559644,-0.164825 0.3572466,-0.366279 z m 24.3226743,-0.375 c -0.273275,-0.273401 -0.492939,-0.497093 -0.488143,-0.497093 0.0048,0 0.23231,0.223692 0.505585,0.497093 0.273275,0.273401 0.492939,0.497093 0.488142,0.497093 -0.0048,0 -0.232309,-0.223692 -0.505584,-0.497093 z M 0,17.201831 V 3 h 15.008721 15.00872 V 17.19984 31.39968 L 27.087209,28.482558 24.156976,25.565436 V 17.186788 8.8081395 H 14.982558 5.8081394 v 8.4086185 8.408618 L 3.9113371,27.510751 C 2.8680959,28.547707 1.5612645,29.847822 1.0072674,30.399894 L 0,31.403662 Z m 5.6424418,11.699332 c 0.2012821,-0.201454 0.369892,-0.366279 0.3746885,-0.366279 0.0048,0 -0.1559645,0.164825 -0.3572467,0.366279 -0.2012821,0.201453 -0.3698919,0.366279 -0.3746885,0.366279 -0.0048,0 0.1559645,-0.164826 0.3572467,-0.366279 z M 23.058,27.579942 22.648255,27.165698 23.0625,27.575442 c 0.384925,0.380744 0.422108,0.418744 0.409744,0.418744 -0.0025,0 -0.188885,-0.18641 -0.414244,-0.414244 z m 64.21069,-1.212209 -0.03323,-0.03925 0.03924,0.03323 c 0.03688,0.03122 0.04718,0.04526 0.03323,0.04526 -0.0033,0 -0.02097,-0.01766 -0.03924,-0.03924 z m -0.122093,-0.122093 -0.03323,-0.03925 0.03924,0.03323 c 0.02158,0.01827 0.03924,0.03593 0.03924,0.03924 0,0.01396 -0.01404,0.0037 -0.04526,-0.03323 z m 6.690611,-0.05455 c 0,-0.0036 0.01373,-0.01736 0.03052,-0.03052 0.02766,-0.0217 0.02828,-0.02108 0.0066,0.0066 -0.02278,0.02905 -0.03711,0.03829 -0.03711,0.02394 z m 0.261628,-0.261628 c 0,-0.0036 0.01373,-0.01736 0.03052,-0.03052 0.02766,-0.0217 0.02828,-0.02108 0.0066,0.0066 -0.02278,0.02905 -0.03711,0.03829 -0.03711,0.02394 z m 19.873344,-0.189635 -0.0332,-0.03925 0.0392,0.03323 c 0.0369,0.03122 0.0472,0.04526 0.0332,0.04526 -0.003,0 -0.021,-0.01766 -0.0392,-0.03924 z m -0.20025,-0.200582 -0.0423,-0.04797 0.048,0.04228 c 0.0448,0.03952 0.056,0.05365 0.0423,0.05365 -0.003,0 -0.0247,-0.02158 -0.048,-0.04797 z m -26.590449,-2.119186 -0.03323,-0.03924 0.03925,0.03323 c 0.03688,0.03122 0.04718,0.04526 0.03323,0.04526 -0.0033,0 -0.02097,-0.01766 -0.03924,-0.03924 z m -0.11394,-0.113372 c -0.0217,-0.02766 -0.02108,-0.02828 0.0066,-0.0066 0.02905,0.02278 0.03829,0.03711 0.02394,0.03711 -0.0036,0 -0.01736,-0.01374 -0.03052,-0.03052 z M 116.7907,18.06431 c 0,-0.003 0.0255,-0.02851 0.0567,-0.05669 l 0.0567,-0.05123 -0.0512,0.05669 c -0.0477,0.05284 -0.0621,0.0647 -0.0621,0.05123 z M 71.781976,18 c 0.01736,-0.01919 0.03549,-0.03488 0.04029,-0.03488 0.0048,0 -0.0055,0.0157 -0.02285,0.03488 -0.01736,0.01919 -0.03549,0.03488 -0.04029,0.03488 -0.0048,0 0.0055,-0.0157 0.02285,-0.03488 z m 3.234145,-0.04797 -0.04228,-0.04796 0.04796,0.04228 C 75.066631,17.98587 75.077761,18 75.064091,18 c -0.0031,0 -0.02471,-0.02158 -0.04797,-0.04797 z m 38.861789,-2.071221 c 0.0618,-0.06236 0.11628,-0.113372 0.12108,-0.113372 0.005,0 -0.0418,0.05102 -0.10364,0.113372 -0.0618,0.06235 -0.11629,0.113372 -0.12109,0.113372 -0.005,0 0.0418,-0.05102 0.10365,-0.113372 z m -19.797836,-0.300872 -0.04228,-0.04797 0.04796,0.04228 c 0.04483,0.03952 0.05596,0.05365 0.04229,0.05365 -0.0031,0 -0.02471,-0.02158 -0.04797,-0.04796 z m -0.156977,-0.156977 -0.04228,-0.04796 0.04796,0.04228 c 0.04483,0.03952 0.05596,0.05364 0.04228,0.05364 -0.0031,0 -0.02471,-0.02158 -0.04797,-0.04796 z m -15.68929,-0.09593 -0.03323,-0.03924 0.03924,0.03323 c 0.02159,0.01828 0.03925,0.03594 0.03925,0.03924 0,0.01396 -0.01404,0.0037 -0.04526,-0.03323 z m 8.801075,-0.109012 c 0.02253,-0.02398 0.04489,-0.0436 0.04969,-0.0436 0.0048,0 -0.0097,0.01962 -0.03224,0.0436 -0.02253,0.02398 -0.04489,0.0436 -0.04968,0.0436 -0.0048,0 0.0097,-0.01962 0.03224,-0.0436 z m -8.958052,-0.04797 -0.03323,-0.03924 0.03924,0.03323 c 0.02158,0.01827 0.03924,0.03594 0.03924,0.03924 0,0.01396 -0.01404,0.0037 -0.04526,-0.03323 z M 63.747774,9.0392442 c -0.0217,-0.027664 -0.02108,-0.028281 0.0066,-0.00659 0.02905,0.022786 0.03829,0.037109 0.02394,0.037109 -0.0036,0 -0.01736,-0.013735 -0.03052,-0.030523 z M 109.23615,8.8997093 c -0.0217,-0.027664 -0.0211,-0.028281 0.007,-0.00659 0.0291,0.022786 0.0383,0.037109 0.0239,0.037109 -0.004,0 -0.0174,-0.013735 -0.0305,-0.030523 z"
       id="path5-7-5" /><path
       style="fill:#ffffff;fill-opacity:1;stroke:#ffffff;stroke-linecap:square;stroke-opacity:1"
       d="m 4.4738371,30.078427 2.9127907,-2.90263 7.6311512,-6.89e-4 7.631152,-6.89e-4 2.912453,2.903109 2.912453,2.903109 -13.456395,2.1e-4 -13.4563955,2.1e-4 z M 118.21221,27.41598 c -1.44674,-0.04705 -2.75536,-0.498723 -3.81105,-1.315382 -0.2411,-0.186508 -0.74254,-0.681907 -0.93423,-0.922962 -0.77027,-0.968674 -1.2238,-2.135188 -1.3801,-3.549729 -0.043,-0.389387 -0.0428,-1.33094 4.3e-4,-1.726744 0.23954,-2.193762 1.24175,-3.872204 2.91565,-4.882979 0.75143,-0.453749 1.61417,-0.736237 2.64244,-0.865215 0.29864,-0.03746 1.20302,-0.05286 1.55232,-0.02643 2.77852,0.210224 4.68589,1.720167 5.53827,4.384288 0.0454,0.141857 0.0795,0.260093 0.0759,0.262747 -0.0104,0.0076 -3.75455,0.797297 -3.77405,0.796008 -0.01,-6.34e-4 -0.0558,-0.118048 -0.10261,-0.26092 -0.0468,-0.142871 -0.13942,-0.37194 -0.20574,-0.509041 -0.38071,-0.787108 -0.89606,-1.223679 -1.63642,-1.386248 -0.21014,-0.04615 -0.86207,-0.0468 -1.08731,-0.0011 -1.11419,0.226103 -1.79476,1.082879 -1.99088,2.506323 -0.0643,0.466788 -0.0644,1.210223 -2.3e-4,1.700581 0.0785,0.600065 0.26681,1.147077 0.53428,1.552326 0.13243,0.200632 0.39186,0.461372 0.59117,0.59415 0.28593,0.190473 0.55889,0.295688 0.93262,0.359477 0.2984,0.05093 0.81911,0.03843 1.09251,-0.02622 0.83923,-0.198461 1.43355,-0.802923 1.7693,-1.799497 0.0452,-0.134303 0.0873,-0.249979 0.0935,-0.257059 0.008,-0.0094 3.44276,0.705809 3.74777,0.780363 0.0466,0.01139 0.0515,-0.01509 -0.0608,0.331347 -0.85922,2.650524 -2.92808,4.16949 -5.80499,4.262034 -0.19186,0.0062 -0.50581,0.0061 -0.69767,-1.24e-4 z M 89.67695,27.39283 c -1.063943,-0.121448 -1.896852,-0.501966 -2.513504,-1.148307 -0.287977,-0.301842 -0.489657,-0.616621 -0.661408,-1.032316 l -0.07206,-0.174418 -0.124872,-0.0051 -0.124871,-0.0051 v 1.073438 1.073439 H 84.270348 82.360464 V 18 8.8255814 h 1.972322 1.972322 l -0.0078,2.5770346 c -0.0049,1.60788 -0.01527,2.711503 -0.0277,2.934593 -0.0425,0.762759 -0.105043,1.590802 -0.134712,1.783431 l -0.01007,0.06541 0.119266,-6.5e-5 0.119266,-6.5e-5 0.06076,-0.117668 c 0.149142,-0.28883 0.432215,-0.66491 0.673678,-0.895021 0.589824,-0.562093 1.338995,-0.88824 2.344051,-1.020467 0.289581,-0.0381 1.105844,-0.05321 1.415533,-0.0262 1.32006,0.115103 2.376513,0.587029 3.190123,1.425053 0.946407,0.974807 1.478522,2.315843 1.649746,4.157693 0.03713,0.399363 0.04269,1.529515 0.0095,1.927326 -0.105437,1.263404 -0.35867,2.261621 -0.787606,3.104651 -0.251427,0.494155 -0.521431,0.875664 -0.880983,1.244809 -0.754861,0.775002 -1.629515,1.204559 -2.815601,1.382791 -0.310845,0.04671 -1.222484,0.06084 -1.545616,0.02395 z m -0.229866,-3.33169 c 0.625618,-0.08201 1.109424,-0.315483 1.500923,-0.724301 0.441485,-0.461016 0.698357,-1.057667 0.807784,-1.876285 0.02219,-0.165996 0.03009,-0.348723 0.03009,-0.696019 0,-0.723065 -0.07004,-1.150222 -0.275973,-1.68314 -0.224131,-0.580006 -0.629551,-1.056284 -1.126186,-1.323016 -0.705099,-0.378692 -1.71305,-0.423625 -2.479514,-0.110532 -0.869826,0.355315 -1.394753,1.13625 -1.561527,2.323083 -0.03948,0.280988 -0.04499,1.344061 -0.0083,1.604651 0.110802,0.787203 0.364489,1.357213 0.795862,1.788228 0.09625,0.09617 0.234402,0.215347 0.307002,0.264838 0.340419,0.232059 0.772988,0.38888 1.214075,0.440143 0.20163,0.02343 0.586911,0.01973 0.795777,-0.0076 z M 43.081395,18 V 8.8255814 h 6.906976 6.906977 v 1.8575586 1.857558 h -4.875 -4.875 v 1.848837 1.848837 h 4.465116 4.465117 v 1.691861 1.69186 h -4.465117 -4.465116 v 1.918605 1.918604 h 4.875 4.875 v 1.857558 1.857559 h -6.906977 -6.906976 z m 17.145348,4.473837 v -4.700581 h -0.889535 -0.889534 v -1.709303 -1.709302 h 2.860465 2.860465 v 6.409884 6.409884 h -1.970931 -1.97093 z m 6.924419,-1.709302 v -6.409884 h 1.901022 1.901022 l 0.0045,1.015989 0.0045,1.015988 0.125901,0.0051 0.1259,0.0051 0.08094,-0.161171 c 0.524706,-1.044752 1.545445,-1.785319 2.806789,-2.036381 0.353286,-0.07032 0.477264,-0.08012 1.011628,-0.07998 0.559873,1.51e-4 0.700012,0.01343 1.125,0.106604 1.723092,0.377766 2.857503,1.694829 3.190584,3.704302 0.100691,0.607463 0.09436,0.29617 0.100874,4.957848 l 0.006,4.286338 h -1.971399 -1.9714 v -3.903074 c 0,-2.62746 -0.006,-3.951378 -0.01836,-4.050872 -0.05712,-0.459712 -0.186423,-0.811823 -0.404308,-1.100978 -0.215815,-0.286409 -0.482706,-0.469282 -0.873755,-0.598697 -0.289965,-0.09596 -0.475313,-0.121274 -0.883805,-0.120702 -0.378067,5.29e-4 -0.547367,0.02377 -0.819768,0.112551 -0.727108,0.23697 -1.224982,0.819985 -1.420619,1.663557 -0.08045,0.346883 -0.07938,0.289651 -0.07938,4.257829 v 3.740386 h -1.97093 -1.97093 z M 98.180231,19.700581 V 12.226744 H 97.299417 96.418603 V 10.526163 8.8255814 h 2.869186 2.869191 V 18 27.174419 h -1.98838 -1.988369 z m 7.674419,2.773256 v -4.700581 h -0.88954 -0.88953 v -1.709303 -1.709302 h 2.86046 2.86047 v 6.409884 6.409884 h -1.97093 -1.97093 z M 126.76744,18 V 8.8255814 h 1.97207 1.97207 l -0.007,4.0944766 c -0.005,2.781129 -0.0138,4.200776 -0.0274,4.425872 -0.0443,0.73602 -0.12847,1.69866 -0.16932,1.936047 -0.009,0.05035 -0.005,0.05421 0.10873,0.102217 l 0.11773,0.04989 0.0357,-0.0444 c 0.0196,-0.02442 0.97359,-1.166773 2.11995,-2.538556 l 2.08431,-2.494152 2.26612,-0.0012 2.26612,-0.0012 -0.0357,0.03924 c -0.16053,0.176481 -4.1984,5.12087 -4.19842,5.140989 -2e-5,0.01439 0.95521,1.734429 2.12272,3.822311 1.16752,2.087882 2.12276,3.80089 2.12276,3.806686 0,0.0058 -0.93597,0.01044 -2.07994,0.01032 L 135.358,27.1739 133.98009,24.601868 c -0.90484,-1.688998 -1.38554,-2.569312 -1.40015,-2.56411 -0.0122,0.0044 -0.43803,0.335178 -0.94622,0.735159 l -0.92398,0.727237 v 1.837095 1.837095 h -1.97093 -1.97093 z M 61.473836,12.69573 c -0.466501,-0.0436 -0.917881,-0.196418 -1.273256,-0.431066 -0.163856,-0.108192 -0.421887,-0.359963 -0.531674,-0.518775 -0.158943,-0.229919 -0.266152,-0.481538 -0.333907,-0.78368 -0.03636,-0.162151 -0.03206,-0.729882 0.0069,-0.910319 0.158322,-0.7332984 0.620734,-1.2761056 1.325649,-1.5561278 0.391079,-0.1553531 0.89122,-0.2252412 1.377772,-0.1925256 0.69279,0.046583 1.227845,0.2678956 1.637094,0.6771446 0.412178,0.4121781 0.608147,0.9102913 0.608147,1.5457818 0,0.718216 -0.275831,1.295126 -0.810555,1.695298 -0.490271,0.366904 -1.245255,0.545387 -2.006165,0.474269 z m 45.627904,0 c -0.89749,-0.08388 -1.61499,-0.527431 -1.95778,-1.210265 -0.15995,-0.318621 -0.22236,-0.635919 -0.20756,-1.055232 0.0184,-0.5218948 0.1664,-0.932295 0.46665,-1.2942118 0.49519,-0.5969096 1.31353,-0.8971088 2.27015,-0.832786 0.6724,0.045212 1.2059,0.2596712 1.60923,0.6468915 0.33748,0.3239858 0.53185,0.6998476 0.61103,1.1815733 0.0434,0.263779 0.0276,0.71013 -0.0337,0.954899 -0.2323,0.927359 -1.00463,1.513796 -2.12139,1.610797 -0.22893,0.01989 -0.41115,0.01941 -0.63663,-0.0017 z"
       id="path2-5-0" /></g></svg>
