<?xml version="1.0" encoding="UTF-8" standalone="no"?>
<!-- Created with Inkscape (http://www.inkscape.org/) -->

<svg
   width="184"
   height="36"
   viewBox="0 0 48.683332 9.5249999"
   version="1.1"
   id="svg1"
   xml:space="preserve"
   sodipodi:docname="logo-light.svg"
   inkscape:version="1.3.2 (091e20e, 2023-11-25)"
   inkscape:export-filename="logo-dark.svg"
   inkscape:export-xdpi="96"
   inkscape:export-ydpi="96"
   xmlns:inkscape="http://www.inkscape.org/namespaces/inkscape"
   xmlns:sodipodi="http://sodipodi.sourceforge.net/DTD/sodipodi-0.dtd"
   xmlns="http://www.w3.org/2000/svg"
   xmlns:svg="http://www.w3.org/2000/svg"><sodipodi:namedview
     id="namedview1"
     pagecolor="#ffffff"
     bordercolor="#000000"
     borderopacity="0.25"
     inkscape:showpageshadow="2"
     inkscape:pageopacity="0.0"
     inkscape:pagecheckerboard="0"
     inkscape:deskcolor="#d1d1d1"
     showgrid="true"
     inkscape:zoom="6.4327853"
     inkscape:cx="76.638653"
     inkscape:cy="21.763512"
     inkscape:window-width="1312"
     inkscape:window-height="449"
     inkscape:window-x="0"
     inkscape:window-y="25"
     inkscape:window-maximized="0"
     inkscape:current-layer="svg1"
     inkscape:export-bgcolor="#ffffffff"
     showguides="false"><inkscape:grid
       id="grid1"
       units="px"
       originx="0"
       originy="0"
       spacingx="0.26458333"
       spacingy="0.26458333"
       empcolor="#0099e5"
       empopacity="0.30196078"
       color="#0099e5"
       opacity="0.14901961"
       empspacing="5"
       dotted="false"
       gridanglex="30"
       gridanglez="30"
       visible="true" /></sodipodi:namedview><defs
     id="defs1" /><g
     id="layer1"
     transform="translate(0.75942001,-0.00930587)"
     style="display:inline;fill:#000000"
     inkscape:label="layer1"><g
       fill="none"
       fill-rule="evenodd"
       id="g5"
       transform="matrix(0.26458333,0,0,0.26458333,0.03432997,0.80305585)"
       style="display:inline;fill:#0a0a0a;fill-opacity:1;stroke:none;stroke-opacity:1"
       inkscape:label="g5"><path
         d="M 33,19.3118 44.469,4.8108 H 33.1786 V 1.5152 H 48.9372 V 4.9307 L 37.4087,19.3717 H 49.116 v 3.3556 H 33 Z m 17.956,-11.13 h 3.5813 V 22.7273 H 50.9559 V 8.1818 Z M 50.359,3.3333 c 0,-0.5696 0.2083,-1.0655 0.625,-1.4878 0.4167,-0.4222 0.9448,-0.6334 1.5843,-0.6334 0.6395,0 1.1773,0.2013 1.6133,0.604 0.436,0.4026 0.6541,0.9084 0.6541,1.5172 0,0.6089 -0.218,1.1146 -0.654,1.5173 -0.4361,0.4026 -0.9739,0.604 -1.6134,0.604 -0.6395,0 -1.1676,-0.2112 -1.5843,-0.6335 C 50.5673,4.3988 50.359,3.9029 50.359,3.3333 Z m 9.3546,4.9674 V 10.32 h 0.0883 c 0.1767,-0.2813 0.4073,-0.5676 0.6919,-0.859 0.2846,-0.2913 0.633,-0.5525 1.0451,-0.7836 0.4122,-0.231 0.8783,-0.4219 1.3984,-0.5726 0.5202,-0.1507 1.104,-0.226 1.7517,-0.226 1.001,0 1.9235,0.1959 2.7675,0.5877 0.844,0.3918 1.5701,0.9292 2.1785,1.6124 0.6085,0.683 1.0795,1.4868 1.4132,2.411 0.3337,0.9242 0.5005,1.9188 0.5005,2.9836 0,1.065 -0.162,2.0645 -0.4858,2.9988 -0.3238,0.9342 -0.785,1.748 -1.3837,2.4411 -0.5986,0.6932 -1.3248,1.2457 -2.1786,1.6576 -0.8538,0.4119 -1.8204,0.6178 -2.8999,0.6178 -1.001,0 -1.9185,-0.211 -2.7527,-0.6329 -0.8341,-0.4219 -1.4769,-0.9945 -1.9283,-1.7178 H 59.8608 V 30 H 56.3279 V 8.3007 Z m 8.2537,7.275 c 0,-0.5656 -0.0848,-1.1262 -0.2546,-1.6818 -0.1697,-0.5555 -0.4243,-1.0555 -0.7637,-1.5 -0.3395,-0.4444 -0.7688,-0.803 -1.288,-1.0757 -0.5191,-0.2727 -1.1281,-0.4091 -1.827,-0.4091 -0.659,0 -1.248,0.1414 -1.7671,0.4242 -0.5192,0.2829 -0.9635,0.6465 -1.3329,1.091 -0.3694,0.4444 -0.649,0.9494 -0.8386,1.515 -0.1897,0.5658 -0.2846,1.1314 -0.2846,1.697 0,0.5657 0.0949,1.1263 0.2846,1.6819 0.1897,0.5555 0.4692,1.0555 0.8386,1.5 0.3694,0.4444 0.8137,0.803 1.3329,1.0757 0.5191,0.2728 1.1082,0.4091 1.7671,0.4091 0.6989,0 1.3079,-0.1414 1.827,-0.4242 0.5192,-0.2828 0.9485,-0.6465 1.288,-1.091 0.3394,-0.4444 0.594,-0.9494 0.7637,-1.515 0.1698,-0.5657 0.2546,-1.1314 0.2546,-1.697 z M 72.9918,1.5152 h 8.1898 c 0.7913,0 1.5727,0.0948 2.3442,0.2846 0.7715,0.1897 1.459,0.4993 2.0623,0.9288 0.6034,0.4294 1.093,0.9837 1.4688,1.6628 0.376,0.679 0.5638,1.498 0.5638,2.4567 0,1.1985 -0.3363,2.1872 -1.0089,2.9661 -0.6726,0.779 -1.5529,1.3383 -2.6409,1.6778 v 0.06 c 1.3254,0.1797 2.4134,0.699 3.264,1.558 0.8507,0.8588 1.276,2.0073 1.276,3.4454 0,1.1585 -0.2274,2.1322 -0.6824,2.9211 -0.455,0.789 -1.0534,1.4232 -1.7953,1.9025 -0.7418,0.4794 -1.5925,0.824 -2.5519,1.0337 a 13.647,13.647 0 0 1 -2.9228,0.3146 H 72.9918 Z M 76.573,10 h 3.3287 c 1.2483,0 2.1994,-0.247 2.8532,-0.7411 0.6539,-0.494 0.9808,-1.1957 0.9808,-2.1047 0,-0.9487 -0.3368,-1.6206 -1.0105,-2.0159 C 82.0515,4.7431 81.0014,4.5455 79.5748,4.5455 H 76.573 Z m 0,9.394 h 3.36 c 0.4758,0 0.9911,-0.0344 1.5462,-0.103 0.555,-0.0687 1.0655,-0.2109 1.5313,-0.4266 0.4659,-0.2158 0.8524,-0.5296 1.1597,-0.9415 0.3072,-0.4119 0.4608,-0.961 0.4608,-1.6475 0,-1.0984 -0.3766,-1.8633 -1.1299,-2.2948 -0.7532,-0.4315 -1.893,-0.6473 -3.4194,-0.6473 H 76.573 v 6.0606 z m 12.8332,-3.9991 c 0,-1.1334 0.2031,-2.1624 0.6095,-3.087 0.4063,-0.9246 0.9563,-1.715 1.65,-2.3711 0.6937,-0.6562 1.5162,-1.1632 2.4676,-1.5211 0.9514,-0.358 1.9622,-0.537 3.0325,-0.537 1.0703,0 2.081,0.179 3.0325,0.537 0.9513,0.3579 1.7739,0.8649 2.4676,1.521 0.6937,0.6562 1.2437,1.4466 1.65,2.3712 0.4063,0.9246 0.6095,1.9536 0.6095,3.087 0,1.1334 -0.2032,2.1673 -0.6095,3.1019 -0.4063,0.9345 -0.9563,1.7348 -1.65,2.401 -0.6937,0.666 -1.5163,1.188 -2.4676,1.5658 -0.9514,0.3778 -1.9622,0.5667 -3.0325,0.5667 -1.0703,0 -2.0811,-0.1889 -3.0325,-0.5667 -0.9514,-0.3778 -1.774,-0.8997 -2.4676,-1.5658 -0.6937,-0.6662 -1.2437,-1.4665 -1.65,-2.401 -0.4064,-0.9346 -0.6095,-1.9685 -0.6095,-3.102 z m 3.5813,0.1809 c 0,0.5656 0.0852,1.1313 0.2555,1.697 0.1704,0.5656 0.4259,1.0706 0.7666,1.515 0.3406,0.4445 0.7715,0.8082 1.2925,1.091 0.521,0.2828 1.1423,0.4242 1.8637,0.4242 0.7214,0 1.3426,-0.1414 1.8637,-0.4242 0.521,-0.2828 0.9518,-0.6465 1.2925,-1.091 0.3407,-0.4444 0.5962,-0.9494 0.7665,-1.515 0.1704,-0.5657 0.2555,-1.1314 0.2555,-1.697 0,-0.5657 -0.0851,-1.1263 -0.2555,-1.6819 -0.1703,-0.5555 -0.4258,-1.0555 -0.7665,-1.5 -0.3407,-0.4444 -0.7715,-0.803 -1.2925,-1.0757 -0.521,-0.2727 -1.1423,-0.4091 -1.8637,-0.4091 -0.7214,0 -1.3427,0.1364 -1.8637,0.409 -0.521,0.2728 -0.9519,0.6314 -1.2925,1.0758 -0.3407,0.4445 -0.5962,0.9445 -0.7666,1.5 -0.1703,0.5556 -0.2555,1.1162 -0.2555,1.6819 z m 12.8824,-0.181 c 0,-1.1333 0.2031,-2.1623 0.6094,-3.0869 0.4064,-0.9246 0.9564,-1.715 1.65,-2.3711 0.6938,-0.6562 1.5163,-1.1632 2.4677,-1.5211 0.9513,-0.358 1.9622,-0.537 3.0325,-0.537 1.0703,0 2.081,0.179 3.0324,0.537 0.9514,0.3579 1.774,0.8649 2.4677,1.521 0.6937,0.6562 1.2437,1.4466 1.65,2.3712 0.4063,0.9246 0.6095,1.9536 0.6095,3.087 0,1.1334 -0.2032,2.1673 -0.6095,3.1019 -0.4063,0.9345 -0.9563,1.7348 -1.65,2.401 -0.6938,0.666 -1.5163,1.188 -2.4677,1.5658 -0.9513,0.3778 -1.9621,0.5667 -3.0324,0.5667 -1.0703,0 -2.0812,-0.1889 -3.0325,-0.5667 -0.9514,-0.3778 -1.774,-0.8997 -2.4676,-1.5658 -0.6937,-0.6662 -1.2437,-1.4665 -1.65,-2.401 -0.4064,-0.9346 -0.6095,-1.9685 -0.6095,-3.102 z m 3.5813,0.181 c 0,0.5656 0.0852,1.1313 0.2555,1.697 0.1704,0.5656 0.4259,1.0706 0.7665,1.515 0.3407,0.4445 0.7716,0.8082 1.2926,1.091 0.521,0.2828 1.1422,0.4242 1.8637,0.4242 0.7214,0 1.3426,-0.1414 1.8636,-0.4242 0.521,-0.2828 0.952,-0.6465 1.2926,-1.091 0.3407,-0.4444 0.5962,-0.9494 0.7665,-1.515 0.1703,-0.5657 0.2555,-1.1314 0.2555,-1.697 0,-0.5657 -0.0852,-1.1263 -0.2555,-1.6819 -0.1703,-0.5555 -0.4258,-1.0555 -0.7665,-1.5 -0.3407,-0.4444 -0.7715,-0.803 -1.2926,-1.0757 -0.521,-0.2727 -1.1422,-0.4091 -1.8636,-0.4091 -0.7215,0 -1.3427,0.1364 -1.8637,0.409 -0.521,0.2728 -0.9519,0.6314 -1.2926,1.0758 -0.3406,0.4445 -0.5961,0.9445 -0.7665,1.5 -0.1703,0.5556 -0.2555,1.1162 -0.2555,1.6819 z M 122.583,0 h 3.5662 v 14.3699 h 0.0892 l 5.4087,-6.0726 h 4.5766 l -6.1814,6.5235 6.5677,7.9065 h -4.7252 l -5.6464,-7.3954 h -0.0892 v 7.3954 h -3.5662 z m 23.136,12.114 c -0.312,-0.4175 -0.7408,-0.7804 -1.2868,-1.0886 -0.5459,-0.3082 -1.1405,-0.4623 -1.7839,-0.4623 -0.5654,0 -1.082,0.1193 -1.55,0.358 -0.4679,0.2385 -0.7018,0.6362 -0.7018,1.193 0,0.5567 0.2583,0.9494 0.775,1.178 0.5166,0.2287 1.2721,0.4624 2.2664,0.701 0.5264,0.1193 1.0577,0.2784 1.5939,0.4772 0.5361,0.1988 1.0235,0.4623 1.4622,0.7904 0.4387,0.328 0.7945,0.7357 1.0674,1.2228 0.273,0.4872 0.4095,1.0787 0.4095,1.7747 0,0.8749 -0.1609,1.6155 -0.4826,2.222 -0.3217,0.6065 -0.7506,1.0986 -1.2867,1.4764 -0.5362,0.3778 -1.16,0.6512 -1.8717,0.8202 -0.7116,0.169 -1.4476,0.2535 -2.208,0.2535 -1.0918,0 -2.1543,-0.2038 -3.1877,-0.6114 -1.0333,-0.4076 -1.8911,-0.9892 -2.5735,-1.7448 l 2.3103,-2.2071 c 0.39,0.517 0.8969,0.9444 1.5208,1.2825 0.6239,0.338 1.316,0.507 2.0763,0.507 0.2535,0 0.5118,-0.0298 0.775,-0.0895 0.2632,-0.0596 0.507,-0.154 0.7311,-0.2833 a 1.5268,1.5268 0 0 0 0.541,-0.522 c 0.1365,-0.2187 0.2048,-0.4871 0.2048,-0.8053 0,-0.5965 -0.268,-1.024 -0.8042,-1.2825 -0.5362,-0.2585 -1.3404,-0.517 -2.4127,-0.7755 a 11.43,11.43 0 0 1 -1.5354,-0.4623 c -0.4971,-0.1888 -0.9407,-0.4374 -1.3306,-0.7456 -0.39,-0.3082 -0.7019,-0.691 -0.9358,-1.1483 -0.234,-0.4573 -0.351,-1.024 -0.351,-1.7 0,-0.7954 0.1609,-1.4814 0.4826,-2.058 0.3216,-0.5767 0.7457,-1.049 1.2721,-1.4168 0.5264,-0.3678 1.121,-0.6412 1.784,-0.8202 0.6628,-0.179 1.3452,-0.2684 2.047,-0.2684 1.0139,0 2.0033,0.179 2.9684,0.5369 0.965,0.3579 1.7303,0.9047 2.2957,1.6404 l -2.281,2.058 z"
         fill="#606879"
         id="path1"
         style="fill:#0a0a0a;fill-opacity:1;stroke:none;stroke-opacity:1" /><path
         d="m 0,11.5319 c 0,-0.5537 0.4394,-1.0025 1.0064,-1.0025 h 1.8177 c 0.5559,0 1.0065,0.4558 1.0065,1.0025 V 22.5294 H 0 V 11.532 Z"
         fill="#ff194a"
         id="path2"
         style="fill:#0a0a0a;fill-opacity:1;stroke:none;stroke-opacity:1" /><path
         d="m 6.6165,6.5972 c 0,-0.5572 0.4394,-1.009 1.0064,-1.009 h 1.8177 c 0.5559,0 1.0065,0.4532 1.0065,1.009 V 22.5294 H 6.6165 Z"
         fill="#0064ff"
         id="path3"
         style="fill:#0a0a0a;fill-opacity:1;stroke:none;stroke-opacity:1" /><path
         d="m 13.5812,8.3487 c 0,-0.55 0.4394,-0.9958 1.0064,-0.9958 h 1.8177 c 0.5559,0 1.0065,0.4542 1.0065,0.9958 v 14.1807 h -3.8306 z"
         fill="#00d478"
         id="path4"
         style="fill:#0a0a0a;fill-opacity:1;stroke:none;stroke-opacity:1" /><path
         d="M 20.1976,2.0095 C 20.1976,1.452 20.6371,1 21.2041,1 h 1.8177 c 0.5558,0 1.0064,0.4497 1.0064,1.0095 v 20.52 h -3.8306 z"
         fill="#9453f5"
         id="path5"
         style="fill:#0a0a0a;fill-opacity:1;stroke:none;stroke-opacity:1" /></g></g></svg>
