<?xml version="1.0" encoding="UTF-8" standalone="no"?>
<!-- Created with Inkscape (http://www.inkscape.org/) -->

<svg
   width="36"
   height="36"
   viewBox="0 0 9.5249997 9.5249999"
   version="1.1"
   id="svg1"
   inkscape:version="1.3.2 (091e20e, 2023-11-25)"
   xml:space="preserve"
   inkscape:export-filename="logomark-dark.svg"
   inkscape:export-xdpi="96"
   inkscape:export-ydpi="96"
   xmlns:inkscape="http://www.inkscape.org/namespaces/inkscape"
   xmlns:sodipodi="http://sodipodi.sourceforge.net/DTD/sodipodi-0.dtd"
   xmlns="http://www.w3.org/2000/svg"
   xmlns:svg="http://www.w3.org/2000/svg"><sodipodi:namedview
     id="namedview1"
     pagecolor="#ffffff"
     bordercolor="#000000"
     borderopacity="0.25"
     inkscape:showpageshadow="2"
     inkscape:pageopacity="0.0"
     inkscape:pagecheckerboard="0"
     inkscape:deskcolor="#d1d1d1"
     inkscape:document-units="mm"
     showgrid="true"
     inkscape:export-bgcolor="#ffffff00"><inkscape:grid
       id="grid1"
       units="px"
       originx="0"
       originy="0"
       spacingx="0.79374998"
       spacingy="0.79374998"
       empcolor="#0099e5"
       empopacity="0.30196078"
       color="#0099e5"
       opacity="0.14901961"
       empspacing="3"
       dotted="false"
       gridanglex="30"
       gridanglez="30"
       visible="true" /></sodipodi:namedview><defs
     id="defs1"><linearGradient
       id="swatch316"
       inkscape:swatch="solid"><stop
         style="stop-color:#0a0a0a;stop-opacity:1;"
         offset="0"
         id="stop317" /></linearGradient></defs><g
     inkscape:label="Layer 1"
     inkscape:groupmode="layer"
     id="layer1"
     style="display:inline"><g
       id="g160"
       style="display:inline;fill:#ffffff;fill-opacity:1;stroke:#0a0a0a;stroke-width:0;stroke-dasharray:none;stroke-opacity:1"
       transform="matrix(1.6304306,0,0,1.6304003,-3.0024163,-2.6917565)"><path
         style="fill:#0a0a0a;fill-opacity:1;stroke:#0a0a0a;stroke-width:0;stroke-dasharray:none;stroke-opacity:1"
         d="m 6.3499997,6.9638331 c 0.022157,-0.047359 0.1303606,-0.00867 0.1873803,-0.021167 0.2056496,0 0.4112991,0 0.6169487,0 -0.00689,0.079811 -0.1282259,0.027097 -0.1873793,0.042334 -0.2036019,-0.00351 -0.4094854,0.00703 -0.611657,-0.00529 l -0.00529,-0.015875 z"
         id="path311" /><path
         style="fill:#0a0a0a;fill-opacity:1;stroke:#0a0a0a;stroke-width:0;stroke-dasharray:none;stroke-opacity:1"
         d="m 5.0376665,6.9638331 c 0.022246,-0.04727 0.1304473,-0.00858 0.1873793,-0.021167 0.1915386,0 0.3830771,0 0.5746157,0 -0.00689,0.079811 -0.1282259,0.027097 -0.1873793,0.042334 -0.1894912,-0.00351 -0.3812629,0.00703 -0.5693239,-0.00529 z"
         id="path310" /><path
         style="fill:#0a0a0a;fill-opacity:1;stroke:#0a0a0a;stroke-width:0;stroke-dasharray:none;stroke-opacity:1"
         d="m 3.7253332,6.9638331 c 0.022246,-0.04727 0.1304473,-0.00858 0.1873793,-0.021167 0.1915386,0 0.3830771,0 0.5746157,0 -0.00689,0.079811 -0.1282259,0.027097 -0.1873793,0.042334 -0.1894912,-0.00351 -0.3812629,0.00703 -0.569324,-0.00529 z"
         id="path309" /><path
         style="fill:#0a0a0a;fill-opacity:1;stroke:#0a0a0a;stroke-width:0;stroke-dasharray:none;stroke-opacity:1"
         d="m 2.3706666,6.9638331 c 0.022246,-0.04727 0.1304473,-0.00858 0.1873793,-0.021167 0.2056499,0 0.4112998,0 0.6169497,0 -0.00689,0.079811 -0.1282259,0.027097 -0.1873793,0.042334 -0.2036019,-0.00351 -0.4094854,0.00703 -0.6116569,-0.00529 l -0.00529,-0.015875 z"
         id="path308" /><path
         style="fill:#0a0a0a;fill-opacity:1;stroke:#0a0a0a;stroke-width:0;stroke-dasharray:none;stroke-opacity:1"
         d="m 7.1516872,6.9188539 c 0.028378,-0.1178689 0.081594,0.1144697 -4.2e-6,8e-6 z"
         id="path307" /><path
         style="fill:#0a0a0a;fill-opacity:1;stroke:#0a0a0a;stroke-width:0;stroke-dasharray:none;stroke-opacity:1"
         d="m 6.3923331,6.9214997 c 0.022246,-0.04727 0.1304473,-0.00858 0.1873793,-0.021167 0.1915402,0 0.3830804,0 0.5746206,0 -0.049884,-0.039047 0.054197,0.064911 -0.063502,0.042346 -0.2328317,0 -0.4656633,0 -0.698495,0 v -0.013071 -0.0081"
         id="path306" /><path
         style="fill:#0a0a0a;fill-opacity:1;stroke:#0a0a0a;stroke-width:0;stroke-dasharray:none;stroke-opacity:1"
         d="m 6.3447081,6.9267914 c -0.028909,0.012495 0.021778,-0.059458 0.027781,-0.03307 0.025831,-0.026006 0.036811,0.1005126 -0.02778,0.033069 z"
         id="path305" /><path
         style="fill:#0a0a0a;fill-opacity:1;stroke:#0a0a0a;stroke-width:0;stroke-dasharray:none;stroke-opacity:1"
         d="m 6.3076664,6.9214997 c -0.00234,-0.063194 0.083837,0.056734 0.00529,0.015873 l -0.00529,-0.015875 z"
         id="path304" /><path
         style="fill:#0a0a0a;fill-opacity:1;stroke:#0a0a0a;stroke-width:0;stroke-dasharray:none;stroke-opacity:1"
         d="m 5.7996664,6.9214997 c 0.031227,-0.04957 0.00842,-0.036359 0.060855,-0.013229 -0.030109,-0.00699 0.016047,0.066492 -0.060855,0.01323 z"
         id="path303" /><path
         style="fill:#0a0a0a;fill-opacity:1;stroke:#0a0a0a;stroke-width:0;stroke-dasharray:none;stroke-opacity:1"
         d="m 5.0403123,6.9188539 c 0.013205,-0.054456 -0.00691,0.00165 0.08699,-0.018533 0.2241176,0 0.4482352,0 0.6723528,0 0.013633,0.08149 -0.1094869,0.026227 -0.1612371,0.042334 -0.2002526,0 -0.4005053,0 -0.6007579,0 l 0.00145,-0.012991 0.0012,-0.010822"
         id="path302" /><path
         style="fill:#0a0a0a;fill-opacity:1;stroke:#0a0a0a;stroke-width:0;stroke-dasharray:none;stroke-opacity:1"
         d="m 4.9900415,6.9267914 c 0.017107,-0.066396 0.049493,-0.051171 0.047605,0.015879 -0.016159,-0.00105 -0.040839,0.005 -0.047625,-0.015875"
         id="path301" /><path
         style="fill:#0a0a0a;fill-opacity:1;stroke:#0a0a0a;stroke-width:0;stroke-dasharray:none;stroke-opacity:1"
         d="m 4.4846873,6.9188539 c 0.00633,-0.056552 0.073397,-0.033306 0.023797,0.023809 -0.023528,0.00518 -0.023378,-0.0037 -0.023817,-0.023813"
         id="path300" /><path
         style="fill:#0a0a0a;fill-opacity:1;stroke:#0a0a0a;stroke-width:0;stroke-dasharray:none;stroke-opacity:1"
         d="m 3.7253332,6.9214997 c 0.022246,-0.04727 0.1304473,-0.00858 0.1873793,-0.021167 0.1915386,0 0.3830771,0 0.5746157,0 -0.049884,-0.039047 0.054197,0.064912 -0.063502,0.042346 -0.2328317,0 -0.4656633,0 -0.698495,0 v -0.013071 -0.0081"
         id="path299" /><path
         style="fill:#0a0a0a;fill-opacity:1;stroke:#0a0a0a;stroke-width:0;stroke-dasharray:none;stroke-opacity:1"
         d="m 3.6777082,6.9267914 c -0.028909,0.012495 0.021778,-0.059458 0.027781,-0.03307 0.00831,-0.029944 0.056732,0.1014003 -0.027781,0.033069 z"
         id="path298" /><path
         style="fill:#0a0a0a;fill-opacity:1;stroke:#0a0a0a;stroke-width:0;stroke-dasharray:none;stroke-opacity:1"
         d="m 3.1802915,6.9267914 c 0.082992,-0.1031641 0.00642,0.086652 -2e-6,2e-6 z"
         id="path297" /><path
         style="fill:#0a0a0a;fill-opacity:1;stroke:#0a0a0a;stroke-width:0;stroke-dasharray:none;stroke-opacity:1"
         d="m 3.1326665,6.9214997 c 0.031227,-0.04957 0.00842,-0.036359 0.060855,-0.013229 0.00767,-0.046821 -0.00838,0.075669 -0.060854,0.01323 z"
         id="path296" /><path
         style="fill:#0a0a0a;fill-opacity:1;stroke:#0a0a0a;stroke-width:0;stroke-dasharray:none;stroke-opacity:1"
         d="m 2.3733124,6.9188539 c 0.013205,-0.054456 -0.00691,0.00165 0.08699,-0.018533 0.2241176,0 0.4482352,0 0.6723528,0 0.013633,0.08149 -0.1094869,0.026227 -0.1612371,0.042334 -0.2002526,0 -0.4005053,0 -0.6007579,0 l 0.00145,-0.012991 0.0012,-0.010822"
         id="path295" /><path
         style="fill:#0a0a0a;fill-opacity:1;stroke:#0a0a0a;stroke-width:0;stroke-dasharray:none;stroke-opacity:1"
         d="m 2.3283332,6.9214997 c 0.051176,-0.1124408 0.072523,0.090263 -8e-6,-8e-6 z"
         id="path294" /><path
         style="fill:#0a0a0a;fill-opacity:1;stroke:#0a0a0a;stroke-width:0;stroke-dasharray:none;stroke-opacity:1"
         d="m 7.1119997,6.8791664 c 0.039728,-0.1141735 0.064086,0.1076134 0,0 z m -0.00529,0.021167 c 0.080483,0 0.00455,0 -3e-6,0 z"
         id="path293" /><path
         style="fill:#0a0a0a;fill-opacity:1;stroke:#0a0a0a;stroke-width:0;stroke-dasharray:none;stroke-opacity:1"
         d="m 6.3552914,6.8738747 c 0.043759,-0.050794 0.044506,0.069125 0.021166,0.021168 l -0.013229,-0.00794 -0.00794,-0.01323 z"
         id="path292" /><path
         style="fill:#0a0a0a;fill-opacity:1;stroke:#0a0a0a;stroke-width:0;stroke-dasharray:none;stroke-opacity:1"
         d="m 5.799005,6.8785049 c 0.06474,-0.060166 0.00376,0.056003 -6.626e-4,0.020504 l 4.215e-4,-0.013064 2.4e-4,-0.00744 z"
         id="path291" /><path
         style="fill:#0a0a0a;fill-opacity:1;stroke:#0a0a0a;stroke-width:0;stroke-dasharray:none;stroke-opacity:1"
         d="m 3.6882915,6.8738747 c 0.043759,-0.050794 0.044506,0.069125 0.021166,0.021168 l -0.013229,-0.00794 -0.00794,-0.01323 z"
         id="path290" /><path
         style="fill:#0a0a0a;fill-opacity:1;stroke:#0a0a0a;stroke-width:0;stroke-dasharray:none;stroke-opacity:1"
         d="m 3.1320051,6.8785049 c 0.06474,-0.060166 0.00376,0.056003 -6.626e-4,0.020504 l 4.215e-4,-0.013064 2.4e-4,-0.00744 z"
         id="path289" /><path
         style="fill:#0a0a0a;fill-opacity:1;stroke:#0a0a0a;stroke-width:0;stroke-dasharray:none;stroke-opacity:1"
         d="m 2.3706666,6.8791664 c 0.034475,-0.094884 0.078779,0.084951 0,0 z m 0.026458,0.021167 c 0.1627562,0 -0.088499,0 -3e-6,0 z"
         id="path288" /><path
         style="fill:#0a0a0a;fill-opacity:1;stroke:#0a0a0a;stroke-width:0;stroke-dasharray:none;stroke-opacity:1"
         d="m 3.1749999,4.7624998 c 0.051875,-0.077076 0.045063,0.076627 0.042334,0.1238793 0,0.6713126 0,1.3426251 0,2.0139377 -0.02045,0.017567 -0.052978,0.018782 -0.047625,-0.026457 -1.51e-5,0.031714 0.00948,-0.1004753 0.00529,-0.1478532 0,-0.6545029 0,-1.3090059 0,-1.9635088 z"
         id="path287" /><path
         style="fill:#0a0a0a;fill-opacity:1;stroke:#0a0a0a;stroke-width:0;stroke-dasharray:none;stroke-opacity:1"
         d="m 3.1326665,4.7624998 c 0.047148,-0.037875 0.047166,-0.021911 0.042327,0.026142 0,0.6897806 0,1.3795612 0,2.0693418 -0.08149,0.013633 -0.026227,-0.1094869 -0.042334,-0.1612371 0,-0.644749 0,-1.2894979 0,-1.9342469 z m -7e-6,-0.026458 c 0,0.080483 0,0.00455 0,-3e-6 z"
         id="path286" /><path
         style="fill:#0a0a0a;fill-opacity:1;stroke:#0a0a0a;stroke-width:0;stroke-dasharray:none;stroke-opacity:1"
         d="m 2.3706666,4.7624998 c 0.051875,-0.077076 0.045063,0.076627 0.042334,0.1238793 0,0.6572016 0,1.3144031 0,1.9716047 -0.08149,0.013633 -0.026227,-0.1094869 -0.042334,-0.1612371 0,-0.644749 0,-1.2894979 0,-1.9342469 z m 0.042333,-0.00529 c 0,-0.1627562 0,0.088499 0,3e-6 z m -0.042333,-0.021164 c 0,0.080483 0,0.00455 0,-3e-6 z"
         id="path285" /><path
         style="fill:#0a0a0a;fill-opacity:1;stroke:#0a0a0a;stroke-width:0;stroke-dasharray:none;stroke-opacity:1"
         d="m 2.3283332,4.7624998 c 0.051875,-0.077076 0.045063,0.076627 0.042334,0.1238793 0,0.6713129 0,1.3426258 0,2.0139387 0.039047,-0.049884 -0.064912,0.054197 -0.042346,-0.063502 0,-0.691439 0,-1.382878 0,-2.074317 m 0.042333,-0.00529 c 0,-0.1627562 0,0.088499 0,3e-6 z"
         id="path284" /><path
         style="fill:#0a0a0a;fill-opacity:1;stroke:#0a0a0a;stroke-width:0;stroke-dasharray:none;stroke-opacity:1"
         d="m 3.1697082,4.7254581 c -0.046002,0.012614 0.051464,-0.080036 0.047632,0.015886 -0.015962,-0.00503 -0.04953,0.013125 -0.047624,-0.015875"
         id="path283" /><path
         style="fill:#0a0a0a;fill-opacity:1;stroke:#0a0a0a;stroke-width:0;stroke-dasharray:none;stroke-opacity:1"
         d="m 3.1326665,4.7201665 c 0.023325,-0.034619 0.086091,0.048641 -9e-7,0.021168 v -0.013071 -0.0081 z m -9e-7,0.00529 c 0,0.1627562 0,-0.088499 0,-3e-6 z m 0,-0.031753 c 0,0.080483 0,0.00455 0,-3e-6 z"
         id="path282" /><path
         style="fill:#0a0a0a;fill-opacity:1;stroke:#0a0a0a;stroke-width:0;stroke-dasharray:none;stroke-opacity:1"
         d="m 2.3706666,4.7201665 c -0.023179,0.010325 0.033811,-0.067928 0.042327,0.021167 -0.01876,-0.00536 -0.054497,0.015341 -0.042334,-0.021167 z m -6.9e-6,0.00529 c 0,0.1627562 0,-0.088499 0,-3e-6 z m 0.042333,0.021164 c 0,-0.080483 0,-0.00455 0,3e-6 z m 0,-0.031747 c 0,-0.1627562 0,0.088499 0,3e-6 z"
         id="path281" /><path
         style="fill:#0a0a0a;fill-opacity:1;stroke:#0a0a0a;stroke-width:0;stroke-dasharray:none;stroke-opacity:1"
         d="m 2.3283332,4.7201665 c 0.051693,-0.1033519 0.062971,0.098107 0,0 z m 0.042333,0.026458 c 0,-0.080483 0,-0.00455 0,3e-6 z"
         id="path280" /><path
         style="fill:#0a0a0a;fill-opacity:1;stroke:#0a0a0a;stroke-width:0;stroke-dasharray:none;stroke-opacity:1"
         d="m 3.1326665,4.6778331 c 0.035593,-0.065208 0.1359222,0.026526 0.031756,0.037043 -0.043444,-0.060862 0.026822,0.0661 -0.031747,-0.037037 z m 9e-6,0.0053 c 0,0.1627562 0,-0.088499 0,-3e-6 z"
         id="path279" /><path
         style="fill:#0a0a0a;fill-opacity:1;stroke:#0a0a0a;stroke-width:0;stroke-dasharray:none;stroke-opacity:1"
         d="m 2.3759582,4.6831248 c 0.094528,-0.039496 -0.033524,0.045038 -0.00529,0.015874 l 0.00413,-0.012401 0.00116,-0.00347 z m 0.037041,0.021166 c 0,-0.080483 0,-0.00455 0,3e-6 z"
         id="path278" /><path
         style="fill:#0a0a0a;fill-opacity:1;stroke:#0a0a0a;stroke-width:0;stroke-dasharray:none;stroke-opacity:1"
         d="m 2.3283332,4.6778331 c 0.012394,-0.053725 0.053,-0.037926 0.047625,0.00529 0.020357,-0.026226 -0.033329,0.060974 -0.047624,-0.00529 z"
         id="path277" /><path
         style="fill:#0a0a0a;fill-opacity:1;stroke:#0a0a0a;stroke-width:0;stroke-dasharray:none;stroke-opacity:1"
         d="m 3.1273749,4.6407915 c -0.026996,0.01103 0.021761,-0.059615 0.027769,-0.033071 0.015852,-0.019932 0.027748,0.098231 -0.02778,0.03307"
         id="path276" /><path
         style="fill:#0a0a0a;fill-opacity:1;stroke:#0a0a0a;stroke-width:0;stroke-dasharray:none;stroke-opacity:1"
         d="m 3.0903332,4.6354998 c -0.00153,-0.070769 0.077809,0.056148 0.028835,0.017732 l -0.00304,-0.00119 -0.025797,-0.016536 z m 0.018518,-0.023806 c -0.037869,-0.037869 0.02491,0.02491 -1.7e-5,-1.7e-5 m -0.03175,0.010583 c 0.036096,0.036097 -2.059e-4,-2.059e-4 1.7e-5,1.7e-5"
         id="path275" /><path
         style="fill:#0a0a0a;fill-opacity:1;stroke:#0a0a0a;stroke-width:0;stroke-dasharray:none;stroke-opacity:1"
         d="m 2.4182916,4.6407915 c 0.093671,-0.1028764 -0.013935,0.071393 0,0 z"
         id="path274" /><path
         style="fill:#0a0a0a;fill-opacity:1;stroke:#0a0a0a;stroke-width:0;stroke-dasharray:none;stroke-opacity:1"
         d="m 2.3653749,4.6302081 c 0.023996,-0.04409 0.057679,-0.032228 0.052918,0.010568 0.00301,-0.016539 -0.031067,0.05743 -0.04363,0.019855 -0.035164,-0.017613 -0.011177,-0.036665 -0.00929,-0.030437"
         id="path273" /><path
         style="fill:#0a0a0a;fill-opacity:1;stroke:#0a0a0a;stroke-width:0;stroke-dasharray:none;stroke-opacity:1"
         d="m 3.0903332,4.5931665 c -0.032811,0.013283 0.017949,-0.053557 0.0225,-0.027789 0.010125,0.026783 0.062224,0.016965 0.00991,0.064155 0.041669,0.038101 -0.012972,-0.017051 -0.03241,-0.036366 z"
         id="path272" /><path
         style="fill:#0a0a0a;fill-opacity:1;stroke:#0a0a0a;stroke-width:0;stroke-dasharray:none;stroke-opacity:1"
         d="m 3.0526301,4.5885363 c -0.040273,-0.054246 0.084791,0.024743 0.017883,0.027134 l -0.00134,-0.00134 -0.016536,-0.025797 z m 0.019189,0.02844 c 0.037869,0.037869 -0.02491,-0.02491 1.7e-5,1.7e-5 m 0.03175,-0.010583 c -0.036096,-0.036096 2.059e-4,2.059e-4 -1.7e-5,-1.7e-5"
         id="path271" /><path
         style="fill:#0a0a0a;fill-opacity:1;stroke:#0a0a0a;stroke-width:0;stroke-dasharray:none;stroke-opacity:1"
         d="m 3.0056665,4.5931665 c 0.032884,-0.031621 0.025228,-0.040887 0.052911,0.010577 0.00355,-0.068091 8.476e-4,0.087388 -0.05291,-0.010593 m 0.015875,-0.021167 c -0.1627562,0 0.088499,0 3e-6,0 z"
         id="path270" /><path
         style="fill:#0a0a0a;fill-opacity:1;stroke:#0a0a0a;stroke-width:0;stroke-dasharray:none;stroke-opacity:1"
         d="m 2.4930364,4.5885363 c 0.025887,-0.038028 -0.00314,-0.00545 0.089294,-0.016531 0.1411103,0 0.2822207,0 0.423331,0 0.029983,0.090129 0.063738,-0.00977 0.081988,0.060804 0.078746,0.057317 0.032465,-9.25e-4 0.04501,0.087345 -8.794e-4,0.7262686 0.00176,1.4525939 -0.00132,2.178827 -0.00777,0.00182 -0.015976,0.00133 -0.10451,0.00132 -0.2046097,0 -0.4092193,0 -0.613829,0 0,-0.7478837 0,-1.4957673 0,-2.243651 0.038497,-0.011536 0.044477,-0.050106 0.080035,-0.068127 m -0.085328,2.3117968 c 0.080483,0 0.00455,0 -3e-6,0 z m 0.603247,-2.3283333 c -0.080483,0 -0.00455,0 3e-6,0 z"
         id="path269" /><path
         style="fill:#0a0a0a;fill-opacity:1;stroke:#0a0a0a;stroke-width:0;stroke-dasharray:none;stroke-opacity:1"
         d="m 2.4606249,4.5984581 c 0.057365,-0.076217 0.033641,0.017893 5e-6,-1e-7 z"
         id="path268" /><path
         style="fill:#0a0a0a;fill-opacity:1;stroke:#0a0a0a;stroke-width:0;stroke-dasharray:none;stroke-opacity:1"
         d="m 2.4129999,4.5931665 c 0.038846,-0.0435 0.023247,-0.035792 0.055576,-0.00793 -0.00176,0.013008 -0.04084,0.04477 -0.042327,0.042327 -0.051281,-0.033352 -0.011368,-0.030402 -0.013247,-0.034399 z"
         id="path267" /><path
         style="fill:#0a0a0a;fill-opacity:1;stroke:#0a0a0a;stroke-width:0;stroke-dasharray:none;stroke-opacity:1"
         d="m 3.0479999,4.5508332 c 0.026891,-0.032918 0.093849,3.346e-4 0.030419,0.033066 0.00254,0.055434 -0.023757,-0.00629 -0.03042,-0.033077"
         id="path266" /><path
         style="fill:#0a0a0a;fill-opacity:1;stroke:#0a0a0a;stroke-width:0;stroke-dasharray:none;stroke-opacity:1"
         d="m 3.0003749,4.5561248 c -0.028909,0.012495 0.021778,-0.059458 0.027781,-0.03307 0.025831,-0.026006 0.036811,0.1005126 -0.02778,0.033069 z m 10e-7,0.015874 c 0.080483,0 0.00455,0 -3e-6,0 z"
         id="path265" /><path
         style="fill:#0a0a0a;fill-opacity:1;stroke:#0a0a0a;stroke-width:0;stroke-dasharray:none;stroke-opacity:1"
         d="m 2.9626718,4.5514946 c -0.026982,-0.067388 0.087869,0.025792 6.625e-4,0.020504 l -4.214e-4,-0.013064 -2.4e-4,-0.00744 z m -0.00463,0.020504 c 0.080483,0 0.00455,0 -3e-6,0 z m 0.031747,0 c 0.1627562,0 -0.088499,0 -3e-6,0 z"
         id="path264" /><path
         style="fill:#0a0a0a;fill-opacity:1;stroke:#0a0a0a;stroke-width:0;stroke-dasharray:none;stroke-opacity:1"
         d="m 2.5823332,4.5508332 c 0.022246,-0.04727 0.1304473,-0.00858 0.1873793,-0.021167 0.06454,0 0.1290791,0 0.1936187,0 -0.046072,-0.02894 0.056116,0.062167 -0.0635,0.042327 -0.1058327,0 -0.2116653,0 -0.317498,0 v -0.013071 -0.0081 z m 0.3651249,0.02116 c 0.1627562,0 -0.088499,0 -3e-6,0 z"
         id="path263" /><path
         style="fill:#0a0a0a;fill-opacity:1;stroke:#0a0a0a;stroke-width:0;stroke-dasharray:none;stroke-opacity:1"
         d="m 2.5452916,4.5561248 c 0.082051,-0.091545 0.018943,0.083928 -2e-6,2e-6 z m -0.010585,0.015877 c 0.080483,0 0.00455,0 -3e-6,0 z"
         id="path262" /><path
         style="fill:#0a0a0a;fill-opacity:1;stroke:#0a0a0a;stroke-width:0;stroke-dasharray:none;stroke-opacity:1"
         d="m 2.4500416,4.5455415 c 0.089906,-0.042869 0.013445,0.07062 0.018528,0.039679 -0.048339,-0.024694 -0.01276,-0.044595 -0.018516,-0.039681"
         id="path261" /><path
         style="fill:#0a0a0a;fill-opacity:1;stroke:#0a0a0a;stroke-width:0;stroke-dasharray:none;stroke-opacity:1"
         d="m 2.9633332,4.5084998 c 0.027596,-0.032734 0.094336,2.006e-4 0.029097,0.034388 -0.00249,0.040957 -0.020643,-0.00349 -0.029097,-0.034387 z"
         id="path260" /><path
         style="fill:#0a0a0a;fill-opacity:1;stroke:#0a0a0a;stroke-width:0;stroke-dasharray:none;stroke-opacity:1"
         d="m 2.5347082,4.5032082 c 0.041477,-0.036847 0.1321571,-0.00544 0.1926693,-0.015875 0.078651,0 0.1573011,0 0.2359517,0 0.013633,0.08149 -0.1094869,0.026227 -0.1612371,0.042334 -0.083466,0.00581 -0.1708331,-0.01242 -0.2515109,0.01058 0.05775,-0.020775 -0.03058,0.035824 -0.015863,-0.037047"
         id="path259" /><path
         style="fill:#0a0a0a;fill-opacity:1;stroke:#0a0a0a;stroke-width:0;stroke-dasharray:none;stroke-opacity:1"
         d="m 2.4976666,4.5084998 c 0.052831,-0.066547 0.060576,0.086218 0.04763,0.047617 -0.03318,0.050248 -0.060389,-0.00205 -0.047624,-0.047626 z m 0.026464,0.063491 c 0.1627562,0 -0.088499,0 -3e-6,0 z"
         id="path258" /><path
         style="fill:#0a0a0a;fill-opacity:1;stroke:#0a0a0a;stroke-width:0;stroke-dasharray:none;stroke-opacity:1"
         d="m 5.7996664,4.1698332 c 0.051875,-0.077076 0.045063,0.076626 0.042334,0.1238793 0,0.8547556 0,1.7095111 0,2.5642667 -0.08149,0.013633 -0.026227,-0.1094869 -0.042334,-0.1612371 0,-0.842303 0,-1.6846059 0,-2.5269089 z"
         id="path257" /><path
         style="fill:#0a0a0a;fill-opacity:1;stroke:#0a0a0a;stroke-width:0;stroke-dasharray:none;stroke-opacity:1"
         d="m 5.0376665,4.1698332 c 0.051875,-0.077076 0.045063,0.076626 0.042334,0.1238793 0,0.8476999 0,1.6953998 0,2.5430997 -0.070258,0.069723 -0.033528,-0.094368 -0.042334,-0.1400701 0,-0.842303 0,-1.6846059 0,-2.5269089 z"
         id="path256" /><path
         style="fill:#0a0a0a;fill-opacity:1;stroke:#0a0a0a;stroke-width:0;stroke-dasharray:none;stroke-opacity:1"
         d="m 5.8419998,4.1274998 c 0.051875,-0.077076 0.045063,0.076627 0.042334,0.1238793 0,0.8759219 0,1.7518438 0,2.6277657 -0.012394,0.053725 -0.053,0.037926 -0.047625,-0.00529 -1.51e-5,0.031714 0.00948,-0.1004753 0.00529,-0.1478532 0,-0.8661683 0,-1.7323365 0,-2.5985048 z"
         id="path255" /><path
         style="fill:#0a0a0a;fill-opacity:1;stroke:#0a0a0a;stroke-width:0;stroke-dasharray:none;stroke-opacity:1"
         d="m 5.7996664,4.1274998 c 0.050062,-0.039066 0.04702,-0.019598 0.042339,0.021167 -0.01876,-0.00536 -0.054497,0.015341 -0.042334,-0.021167 z m 4.9e-6,-0.026458 c 0,0.080483 0,0.00455 0,-3e-6 z"
         id="path254" /><path
         style="fill:#0a0a0a;fill-opacity:1;stroke:#0a0a0a;stroke-width:0;stroke-dasharray:none;stroke-opacity:1"
         d="m 5.0376665,4.1274998 c 0.019011,-0.046061 0.040169,-0.05592 0.042323,0.021175 -0.01876,-0.00536 -0.054497,0.015341 -0.042334,-0.021167 m 0,-0.026458 c 0,0.080483 0,0.00455 0,-3e-6 z"
         id="path253" /><path
         style="fill:#0a0a0a;fill-opacity:1;stroke:#0a0a0a;stroke-width:0;stroke-dasharray:none;stroke-opacity:1"
         d="m 5.0006248,4.1327915 c 0.067214,-0.072392 0.025805,0.092835 0.037042,0.1347811 0,0.877581 0,1.7551619 0,2.6327429 0.031358,-0.015901 -0.067218,-0.00595 -0.042344,-0.1189191 0,-0.870525 0,-1.7410499 0,-2.6115749 l 0.00529,-0.037042 m 0.037042,-0.010583 c 0,-0.1627562 0,0.088499 0,3e-6 z"
         id="path252" /><path
         style="fill:#0a0a0a;fill-opacity:1;stroke:#0a0a0a;stroke-width:0;stroke-dasharray:none;stroke-opacity:1"
         d="m 5.8472914,4.0904582 c 0.091362,-0.081581 0.011815,0.081953 -2e-6,0 z"
         id="path251" /><path
         style="fill:#0a0a0a;fill-opacity:1;stroke:#0a0a0a;stroke-width:0;stroke-dasharray:none;stroke-opacity:1"
         d="m 5.7996664,4.0851665 c 0.031227,-0.04957 0.00842,-0.036359 0.060855,-0.013229 -0.042786,0.023404 0.026955,0.033527 -0.05209,0.034666 -0.016898,0.00642 -0.00615,-0.013991 -0.00876,-0.021433 z m 1.9e-6,0.00529 c 0,0.1627562 0,-0.088499 0,-3e-6 z"
         id="path250" /><path
         style="fill:#0a0a0a;fill-opacity:1;stroke:#0a0a0a;stroke-width:0;stroke-dasharray:none;stroke-opacity:1"
         d="m 5.0376665,4.0851665 c -0.02568,0.011905 0.036645,-0.059024 0.037038,-0.00529 0.022948,-0.036989 -0.033951,0.061869 -0.037042,0.00529 z m -4e-6,0.0053 c 0,0.1627562 0,-0.088499 0,-3e-6 z"
         id="path249" /><path
         style="fill:#0a0a0a;fill-opacity:1;stroke:#0a0a0a;stroke-width:0;stroke-dasharray:none;stroke-opacity:1"
         d="m 4.9900415,4.0798748 c 0.071629,-0.049285 0.034066,0.064214 0.013227,0.044979 0.015572,-0.010544 -0.030628,-0.026069 -0.013216,-0.044987 m 0.047625,0.03175 c 0,-0.080483 0,-0.00455 0,3e-6 z"
         id="path248" /><path
         style="fill:#0a0a0a;fill-opacity:1;stroke:#0a0a0a;stroke-width:0;stroke-dasharray:none;stroke-opacity:1"
         d="m 5.7943748,4.0481248 c -0.028909,0.012495 0.021778,-0.059458 0.027781,-0.03307 0.020269,-0.036273 0.017989,0.090886 -0.027778,0.033067 z"
         id="path247" /><path
         style="fill:#0a0a0a;fill-opacity:1;stroke:#0a0a0a;stroke-width:0;stroke-dasharray:none;stroke-opacity:1"
         d="m 5.7639477,4.0362186 c -0.024201,-0.067274 0.077813,0.077522 -1e-5,-6e-6"
         id="path246" /><path
         style="fill:#0a0a0a;fill-opacity:1;stroke:#0a0a0a;stroke-width:0;stroke-dasharray:none;stroke-opacity:1"
         d="m 5.0429581,4.0481248 c 0.051306,-0.043273 0.052918,0.022389 0.015881,0.015874 -0.044964,0.025459 -0.00506,-0.041234 -0.015877,-0.015881 z"
         id="path245" /><path
         style="fill:#0a0a0a;fill-opacity:1;stroke:#0a0a0a;stroke-width:0;stroke-dasharray:none;stroke-opacity:1"
         d="m 4.9953331,4.0428332 c 0.012394,-0.053724 0.053,-0.037926 0.047625,0.00529 0.020357,-0.026226 -0.033329,0.060974 -0.047624,-0.00529 z"
         id="path244" /><path
         style="fill:#0a0a0a;fill-opacity:1;stroke:#0a0a0a;stroke-width:0;stroke-dasharray:none;stroke-opacity:1"
         d="m 5.8049581,3.9952082 c 0.00157,-0.074804 0.086278,0.087996 2e-6,2e-6 z"
         id="path243" /><path
         style="fill:#0a0a0a;fill-opacity:1;stroke:#0a0a0a;stroke-width:0;stroke-dasharray:none;stroke-opacity:1"
         d="m 5.7520414,4.0057915 c -0.028909,0.012495 0.021778,-0.059458 0.027781,-0.03307 0.00933,0.020629 0.064824,0.020846 0.010592,0.058179 -0.01377,0.031208 0.031284,0.037641 -0.038375,-0.025111 z"
         id="path242" /><path
         style="fill:#0a0a0a;fill-opacity:1;stroke:#0a0a0a;stroke-width:0;stroke-dasharray:none;stroke-opacity:1"
         d="m 5.7149998,4.0004998 c 0.01745,-0.033807 0.091563,0.044953 0.00562,0.015531 l -0.00562,-0.015543"
         id="path241" /><path
         style="fill:#0a0a0a;fill-opacity:1;stroke:#0a0a0a;stroke-width:0;stroke-dasharray:none;stroke-opacity:1"
         d="m 5.1170415,3.9952082 c 0.095813,-0.049592 0.039593,-0.013728 0.15345,-0.015869 0.1199918,-0.00177 0.2451096,0.003 0.361154,-0.00132 0.017663,-0.029017 0.062275,0.00617 0.1188756,0.041559 0.05912,0.030887 0.051722,0.1068905 0.049129,0.1764001 -8.803e-4,0.9009975 0.00176,1.8020518 -0.00132,2.7030138 -0.00777,0.00182 -0.015976,0.00133 -0.10451,0.00132 -0.2166728,-0.00351 -0.4356279,0.00704 -0.6508703,-0.00529 0.012612,-0.046821 0.056871,-0.1017083 0.037042,-0.1852083 0,-0.8537157 0,-1.7074313 0,-2.561147 -0.00871,-0.093632 -0.022135,-0.035897 0.012395,-0.1311253 0.01097,-0.00322 0.021701,-0.010369 0.024641,-0.022325"
         id="path240" /><path
         style="fill:#0a0a0a;fill-opacity:1;stroke:#0a0a0a;stroke-width:0;stroke-dasharray:none;stroke-opacity:1"
         d="m 5.0852915,4.0057915 c 0.093671,-0.1028764 -0.013935,0.071393 0,0 z"
         id="path239" /><path
         style="fill:#0a0a0a;fill-opacity:1;stroke:#0a0a0a;stroke-width:0;stroke-dasharray:none;stroke-opacity:1"
         d="m 5.7626248,3.9528748 c 0.00157,-0.074804 0.086278,0.087996 2e-6,2e-6 z"
         id="path238" /><path
         style="fill:#0a0a0a;fill-opacity:1;stroke:#0a0a0a;stroke-width:0;stroke-dasharray:none;stroke-opacity:1"
         d="m 5.6726664,3.9581665 c -0.028154,-0.068409 0.078356,0.029233 0.021172,0.02117 0.019142,-0.00814 -0.014499,0.017084 -0.020712,-0.014359 l -4.524e-4,-0.0068 z"
         id="path237" /><path
         style="fill:#0a0a0a;fill-opacity:1;stroke:#0a0a0a;stroke-width:0;stroke-dasharray:none;stroke-opacity:1"
         d="m 5.6356248,3.9528748 c 0.018981,-0.021934 0.034804,-0.040703 0.038361,0.02513 -0.031093,-0.029323 0.022145,0.032904 -0.038368,-0.025134 z"
         id="path236" /><path
         style="fill:#0a0a0a;fill-opacity:1;stroke:#0a0a0a;stroke-width:0;stroke-dasharray:none;stroke-opacity:1"
         d="m 5.2017081,3.9528748 c 0.041404,-0.036949 0.1321168,-0.00549 0.1926703,-0.015875 0.078651,0 0.1573011,0 0.2359517,0 0.038832,0.03856 -0.00488,0.047718 -0.1027223,0.042323 -0.1069575,-0.00205 -0.2189072,0.0034 -0.3219407,-0.00132 -0.03358,-0.00778 0.0054,-0.046368 -0.00398,-0.025128 m 0.021167,-0.015875 c -0.1627562,0 0.088499,0 3e-6,0 z"
         id="path235" /><path
         style="fill:#0a0a0a;fill-opacity:1;stroke:#0a0a0a;stroke-width:0;stroke-dasharray:none;stroke-opacity:1"
         d="m 5.1646665,3.9581665 c -0.011885,-0.039416 0.059022,-0.033032 0.015874,0.015881 -0.01679,0.016623 -0.010692,-0.01906 -0.015881,-0.015877 z m 0.047618,-0.021163 c -0.080483,0 -0.00455,0 3e-6,0 z"
         id="path234" /><path
         style="fill:#0a0a0a;fill-opacity:1;stroke:#0a0a0a;stroke-width:0;stroke-dasharray:none;stroke-opacity:1"
         d="m 5.1276248,3.9634582 c 0.031615,-0.06755 0.066388,0.00603 0.015884,0.015871 0.047013,0.023894 -0.023084,-0.028133 -0.015877,-0.015875 z"
         id="path233" /><path
         style="fill:#0a0a0a;fill-opacity:1;stroke:#0a0a0a;stroke-width:0;stroke-dasharray:none;stroke-opacity:1"
         d="m 5.0747081,3.9528748 c 0.024137,-0.044265 0.055978,-0.033804 0.052917,0.01058 0.042943,-0.036535 -0.1038072,0.097514 -0.05556,0.06085 -0.053315,0.019812 -0.055413,-0.035107 -0.03175,-0.042329 0.011465,-0.0097 0.03087,-0.011464 0.034397,-0.029105 z"
         id="path232" /><path
         style="fill:#0a0a0a;fill-opacity:1;stroke:#0a0a0a;stroke-width:0;stroke-dasharray:none;stroke-opacity:1"
         d="m 5.7202914,3.9105415 c 0.00157,-0.074804 0.086278,0.087996 2e-6,2e-6 z"
         id="path231" /><path
         style="fill:#0a0a0a;fill-opacity:1;stroke:#0a0a0a;stroke-width:0;stroke-dasharray:none;stroke-opacity:1"
         d="m 5.6726664,3.9158332 c 0.015815,-0.0804 0.1187509,0.080202 0.089956,0.037043 0.00636,0.047302 -0.031788,0.042532 -0.047625,0.026457 0.069696,0.041878 -0.054878,-0.029672 -0.042336,-0.063498 z"
         id="path230" /><path
         style="fill:#0a0a0a;fill-opacity:1;stroke:#0a0a0a;stroke-width:0;stroke-dasharray:none;stroke-opacity:1"
         d="m 5.6303331,3.9158332 c 0.051693,-0.1033519 0.062971,0.098107 0,0 z"
         id="path229" /><path
         style="fill:#0a0a0a;fill-opacity:1;stroke:#0a0a0a;stroke-width:0;stroke-dasharray:none;stroke-opacity:1"
         d="m 5.2493331,3.9158332 c 0.022246,-0.04727 0.1304473,-0.00858 0.1873793,-0.021167 0.06454,0 0.1290791,0 0.1936187,0 0.013633,0.08149 -0.1094869,0.026227 -0.1612371,0.042334 -0.073254,0 -0.1465073,0 -0.2197609,0 v -0.013071 z"
         id="path228" /><path
         style="fill:#0a0a0a;fill-opacity:1;stroke:#0a0a0a;stroke-width:0;stroke-dasharray:none;stroke-opacity:1"
         d="m 5.1646665,3.9158332 c 0.029422,-0.078283 0.1564187,0.041882 0.024287,0.021167 -0.021955,0.00154 -0.028689,0.00382 -0.024287,-0.021167 z"
         id="path227" /><path
         style="fill:#0a0a0a;fill-opacity:1;stroke:#0a0a0a;stroke-width:0;stroke-dasharray:none;stroke-opacity:1"
         d="m 5.1170415,3.9105415 c 0.089906,-0.042869 0.013445,0.07062 0.018528,0.039679 -0.052943,-0.026013 -0.011186,-0.048003 -0.018528,-0.03968 z"
         id="path226" /><path
         style="fill:#0a0a0a;fill-opacity:1;stroke:#0a0a0a;stroke-width:0;stroke-dasharray:none;stroke-opacity:1"
         d="m 4.4449998,3.8311665 c 0.051875,-0.077076 0.045063,0.076626 0.042334,0.1238793 0,0.9676436 0,1.9352871 0,2.9029307 -0.079811,-0.00689 -0.027097,-0.1282259 -0.042334,-0.1873793 0,-0.9464769 0,-1.8929538 0,-2.8394307 z"
         id="path225" /><path
         style="fill:#0a0a0a;fill-opacity:1;stroke:#0a0a0a;stroke-width:0;stroke-dasharray:none;stroke-opacity:1"
         d="m 3.6829999,3.8311665 c 0.051875,-0.077076 0.045063,0.076626 0.042334,0.1238793 0,0.9676436 0,1.9352871 0,2.9029307 -0.08149,0.013633 -0.026227,-0.1094869 -0.042334,-0.1612371 0,-0.955191 0,-1.9103819 0,-2.8655729 z"
         id="path224" /><path
         style="fill:#0a0a0a;fill-opacity:1;stroke:#0a0a0a;stroke-width:0;stroke-dasharray:none;stroke-opacity:1"
         d="m 4.4873332,3.7888332 c 0.045945,-0.056355 0.046417,0.1212094 0.042332,0.169331 0,0.959548 0,1.919096 0,2.878644 -0.051089,0.078891 -0.048119,0.076373 -0.042344,0.00811 0,-1.018691 0,-2.0373819 0,-3.0560729 m 0,-0.026458 c 0,0.080483 0,0.00455 0,-3e-6 z"
         id="path223" /><path
         style="fill:#0a0a0a;fill-opacity:1;stroke:#0a0a0a;stroke-width:0;stroke-dasharray:none;stroke-opacity:1"
         d="m 4.4397082,3.7941248 c 0.020415,-0.067098 0.039371,-0.048198 0.047613,0.015867 -0.015962,-0.00503 -0.04953,0.013125 -0.047624,-0.015875 m 0.047625,-0.010583 c 0,-0.1627562 0,0.088499 0,3e-6 z"
         id="path222" /><path
         style="fill:#0a0a0a;fill-opacity:1;stroke:#0a0a0a;stroke-width:0;stroke-dasharray:none;stroke-opacity:1"
         d="m 3.6829999,3.7888332 c -0.023179,0.010325 0.033811,-0.067928 0.042327,0.021167 -0.01876,-0.00536 -0.054497,0.015341 -0.042334,-0.021167 z m 0.042326,-0.00529 c 0,-0.1627562 0,0.088499 0,3e-6 z"
         id="path221" /><path
         style="fill:#0a0a0a;fill-opacity:1;stroke:#0a0a0a;stroke-width:0;stroke-dasharray:none;stroke-opacity:1"
         d="m 3.6406665,3.7888332 c 0.051887,-0.076762 0.045281,0.076507 0.042334,0.1238803 0,0.9817546 0,1.9635091 0,2.9452637 0.017567,0.02045 0.018782,0.052978 -0.026457,0.047625 0.00339,0.027921 -0.029633,-0.098244 -0.015878,-0.153457 0,-0.98777 0,-1.97554 0,-2.96331 z"
         id="path220" /><path
         style="fill:#0a0a0a;fill-opacity:1;stroke:#0a0a0a;stroke-width:0;stroke-dasharray:none;stroke-opacity:1"
         d="m 4.4873332,3.7464998 c 0.070877,-0.075201 0.014722,0.079956 0.031761,0.031755 -0.017625,-0.00848 -0.041483,-0.00282 -0.03175,-0.031747 m 0,0.00529 c 0,0.1627562 0,-0.088499 0,-3e-6 z"
         id="path219" /><path
         style="fill:#0a0a0a;fill-opacity:1;stroke:#0a0a0a;stroke-width:0;stroke-dasharray:none;stroke-opacity:1"
         d="m 4.4502915,3.7412082 c -0.036909,-0.016685 0.054143,-0.029133 0.037038,0.00279 0.00739,-0.043103 -0.00334,0.072044 -0.037042,-0.0028 z m 0.037038,0.031743 c 0,-0.080483 0,-0.00455 0,3e-6 z"
         id="path218" /><path
         style="fill:#0a0a0a;fill-opacity:1;stroke:#0a0a0a;stroke-width:0;stroke-dasharray:none;stroke-opacity:1"
         d="m 3.6882915,3.7517915 c 0.094528,-0.039496 -0.033524,0.045038 -0.00529,0.015874 l 0.00413,-0.012401 0.00116,-0.00347 z m 0.037041,0.021166 c 0,-0.080483 0,-0.00455 0,3e-6 z"
         id="path217" /><path
         style="fill:#0a0a0a;fill-opacity:1;stroke:#0a0a0a;stroke-width:0;stroke-dasharray:none;stroke-opacity:1"
         d="m 3.6406665,3.7464998 c 0.012394,-0.053724 0.053,-0.037926 0.047625,0.00529 0.020357,-0.026226 -0.033329,0.060974 -0.047624,-0.00529 z"
         id="path216" /><path
         style="fill:#0a0a0a;fill-opacity:1;stroke:#0a0a0a;stroke-width:0;stroke-dasharray:none;stroke-opacity:1"
         d="m 4.4820415,3.7094582 c -0.027458,0.01097 0.019066,-0.0565 0.027782,-0.033058 0.015852,-0.019932 0.027748,0.098231 -0.02778,0.03307"
         id="path215" /><path
         style="fill:#0a0a0a;fill-opacity:1;stroke:#0a0a0a;stroke-width:0;stroke-dasharray:none;stroke-opacity:1"
         d="m 4.4449998,3.7041665 c 0.022936,-0.035394 0.08575,0.049696 0.00132,0.019851 6.972e-4,-0.028675 -0.00289,4.099e-4 -0.00132,-0.019844 z"
         id="path214" /><path
         style="fill:#0a0a0a;fill-opacity:1;stroke:#0a0a0a;stroke-width:0;stroke-dasharray:none;stroke-opacity:1"
         d="m 3.7253332,3.7041665 c 0.027307,-0.039947 0.066219,-0.033488 -1.2e-5,0.021153 v -0.013071 -0.0081"
         id="path213" /><path
         style="fill:#0a0a0a;fill-opacity:1;stroke:#0a0a0a;stroke-width:0;stroke-dasharray:none;stroke-opacity:1"
         d="m 3.6777082,3.6988749 c 0.071594,-0.018817 0.046276,-0.018564 0.047636,0.026457 -0.02045,0.017567 -0.052978,0.018782 -0.047625,-0.026457 0.010148,-0.030419 -0.016355,0.049058 0,-3e-6"
         id="path212" /><path
         style="fill:#0a0a0a;fill-opacity:1;stroke:#0a0a0a;stroke-width:0;stroke-dasharray:none;stroke-opacity:1"
         d="m 4.4397082,3.6671249 c -0.026922,0.01239 0.019261,-0.058569 0.023826,-0.029112 0.00654,0.029748 0.069548,0.016589 0.010563,0.058209 0.013436,0.034391 -0.015501,-0.00164 -0.034387,-0.029095 z"
         id="path211" /><path
         style="fill:#0a0a0a;fill-opacity:1;stroke:#0a0a0a;stroke-width:0;stroke-dasharray:none;stroke-opacity:1"
         d="m 4.4079582,3.6565415 c -0.01101,-0.05266 0.07581,0.061506 0.00794,0.01323 z"
         id="path210" /><path
         style="fill:#0a0a0a;fill-opacity:1;stroke:#0a0a0a;stroke-width:0;stroke-dasharray:none;stroke-opacity:1"
         d="M 3.727979,3.664479 C 3.751468,3.610726 3.737209,3.627829 3.786185,3.648592 3.76643,3.677913 3.745199,3.678911 3.727982,3.690919 c 0.00924,-0.00558 -0.00321,-0.018766 0,-0.026463 M 3.725332,3.635352 c 0,0.080483 0,0.00455 0,-3e-6 z"
         id="path209" /><path
         style="fill:#0a0a0a;fill-opacity:1;stroke:#0a0a0a;stroke-width:0;stroke-dasharray:none;stroke-opacity:1"
         d="m 3.6829999,3.6618332 c 0.074423,-0.091835 0.047533,0.1080204 8e-6,-8e-6 z"
         id="path208" /><path
         style="fill:#0a0a0a;fill-opacity:1;stroke:#0a0a0a;stroke-width:0;stroke-dasharray:none;stroke-opacity:1"
         d="m 4.3973748,3.6247915 c -0.028909,0.012495 0.021778,-0.059459 0.027781,-0.03307 0.012213,0.025159 0.059161,0.019931 0.00927,0.064818 -0.069845,-0.055638 0.055085,0.05038 -0.037037,-0.031745"
         id="path207" /><path
         style="fill:#0a0a0a;fill-opacity:1;stroke:#0a0a0a;stroke-width:0;stroke-dasharray:none;stroke-opacity:1"
         d="m 4.3649634,3.6148696 c -0.027087,-0.067861 0.085646,0.072037 5e-6,10e-8 z"
         id="path206" /><path
         style="fill:#0a0a0a;fill-opacity:1;stroke:#0a0a0a;stroke-width:0;stroke-dasharray:none;stroke-opacity:1"
         d="m 4.3179998,3.6194999 c 0.032883,-0.031621 0.025229,-0.040888 0.052911,0.010578 0.00736,-0.066238 -0.00122,0.08508 -0.052922,-0.010595"
         id="path205" /><path
         style="fill:#0a0a0a;fill-opacity:1;stroke:#0a0a0a;stroke-width:0;stroke-dasharray:none;stroke-opacity:1"
         d="m 3.8470415,3.6142082 c 0.041477,-0.036847 0.1321571,-0.00544 0.1926693,-0.015875 0.092762,0 0.1855238,0 0.2782857,0 0.024791,0.086699 0.069752,-0.00137 0.084659,0.042329 0.049185,0.058814 0.063697,0.1156771 0.046309,0.1230057 -0.010673,0.1222799 -3.546e-4,0.2610154 -0.00398,0.3899595 0,0.8943899 0,1.7887799 0,2.6831698 0.1075257,0.053776 -0.036053,0.076079 -0.1027123,0.063501 -0.2056496,0 -0.4112991,0 -0.6169487,0 0.040959,0.023827 -0.028787,-0.034838 10e-8,-0.1058271 0,-1.023048 0,-2.046096 0,-3.069144 0.075906,-0.061437 0.00547,-0.046038 0.093585,-0.087653 0.012053,-0.00335 0.02488,-0.010005 0.028116,-0.023483 m 0.021167,-0.015875 c -0.1627562,0 0.088499,0 3e-6,0 z"
         id="path204" /><path
         style="fill:#0a0a0a;fill-opacity:1;stroke:#0a0a0a;stroke-width:0;stroke-dasharray:none;stroke-opacity:1"
         d="m 3.8099998,3.6194999 c 0.052172,-0.1059284 0.039917,0.087738 2e-6,-2e-6 z m -0.00397,0.022487 c 0.048804,-0.016258 0.00474,-0.00159 -3e-6,1e-5 m 0.051594,-0.043656 c -0.080483,0 -0.00455,0 3e-6,0 z m -0.047622,-0.00529 c 0,0.080483 0,0.00455 0,-3e-6 z"
         id="path203" /><path
         style="fill:#0a0a0a;fill-opacity:1;stroke:#0a0a0a;stroke-width:0;stroke-dasharray:none;stroke-opacity:1"
         d="m 3.7676665,3.6194999 c 0.083434,-0.047018 0.010105,0.079441 0.00399,0.025146 -0.044976,-0.011086 0.00919,-0.03587 -0.004,-0.025156 m 0.030427,0.025135 c 0.057942,-0.01931 -0.038762,0.012933 -3e-6,10e-6"
         id="path202" /><path
         style="fill:#0a0a0a;fill-opacity:1;stroke:#0a0a0a;stroke-width:0;stroke-dasharray:none;stroke-opacity:1"
         d="m 3.7253332,3.6194999 c 0.00948,-0.056137 0.058275,-0.03271 0.042337,1.8e-5 0.028097,-0.027561 -0.050485,0.055286 -0.042326,-9e-6"
         id="path201" /><path
         style="fill:#0a0a0a;fill-opacity:1;stroke:#0a0a0a;stroke-width:0;stroke-dasharray:none;stroke-opacity:1"
         d="m 4.3550415,3.5824582 c -0.052719,-0.026834 0.068954,-0.0121 0.050274,-0.018508 0.020917,0.05447 -0.035769,0.051543 -0.041501,0.035555 -0.00816,-4.359e-4 -0.00584,-0.011355 -0.00876,-0.017033"
         id="path200" /><path
         style="fill:#0a0a0a;fill-opacity:1;stroke:#0a0a0a;stroke-width:0;stroke-dasharray:none;stroke-opacity:1"
         d="m 4.3179998,3.5771665 c 0.021969,-0.063252 0.058947,0.073533 -2e-6,0.00809 v -0.0081 z"
         id="path199" /><path
         style="fill:#0a0a0a;fill-opacity:1;stroke:#0a0a0a;stroke-width:0;stroke-dasharray:none;stroke-opacity:1"
         d="m 4.2756665,3.5771665 c 0.051693,-0.1033519 0.062971,0.098107 0,0 z"
         id="path198" /><path
         style="fill:#0a0a0a;fill-opacity:1;stroke:#0a0a0a;stroke-width:0;stroke-dasharray:none;stroke-opacity:1"
         d="m 3.8946665,3.5771665 c 0.022246,-0.04727 0.1304473,-0.00858 0.1873793,-0.021167 0.06454,0 0.1290791,0 0.1936187,0 0.013633,0.08149 -0.1094869,0.026227 -0.1612371,0.042334 -0.073254,0 -0.1465073,0 -0.2197609,0 v -0.013071 z m -0.00529,0.021167 c 0.080483,0 0.00455,0 -3e-6,0 z"
         id="path197" /><path
         style="fill:#0a0a0a;fill-opacity:1;stroke:#0a0a0a;stroke-width:0;stroke-dasharray:none;stroke-opacity:1"
         d="m 3.8523332,3.5771665 c 0.051693,-0.1033519 0.062971,0.098107 0,0 z m -0.00529,0.021167 c 0.080483,0 0.00455,0 -3e-6,0 z m 0.031747,0 c 0.1627562,0 -0.088499,0 -3e-6,0 z"
         id="path196" /><path
         style="fill:#0a0a0a;fill-opacity:1;stroke:#0a0a0a;stroke-width:0;stroke-dasharray:none;stroke-opacity:1"
         d="m 3.8099998,3.5771665 c 0.051693,-0.1033519 0.062971,0.098107 0,0 z m 0.026458,0.021167 c 0.1627562,0 -0.088499,0 -3e-6,0 z"
         id="path195" /><path
         style="fill:#0a0a0a;fill-opacity:1;stroke:#0a0a0a;stroke-width:0;stroke-dasharray:none;stroke-opacity:1"
         d="m 3.7623748,3.5718749 c 0.089942,-0.042819 0.013788,0.0718 0.017205,0.038369 -0.051516,-0.025778 -0.00946,-0.045924 -0.017206,-0.038358"
         id="path194" /><path
         style="fill:#0a0a0a;fill-opacity:1;stroke:#0a0a0a;stroke-width:0;stroke-dasharray:none;stroke-opacity:1"
         d="m 3.8946665,3.5348332 c 0.045621,-0.044289 0.1381638,-0.010622 0.2035701,-0.021167 0.071223,0.00341 0.1446728,-0.00691 0.2144692,0.00529 0.017478,0.074467 -0.1179182,0.021018 -0.1690175,0.037042 -0.083008,0 -0.1660152,0 -0.2490228,0 v -0.013071 -0.0081 z"
         id="path193" /><path
         style="fill:#0a0a0a;fill-opacity:1;stroke:#0a0a0a;stroke-width:0;stroke-dasharray:none;stroke-opacity:1"
         d="m 7.154333,2.8998332 c 0.051875,-0.077076 0.045063,0.076626 0.042334,0.1238793 0,1.2921966 0,2.5843931 0,3.8765897 -0.090798,-0.02303 -0.022088,0.019753 -0.042346,-0.063499 0,-1.312323 0,-2.624646 0,-3.936969 m 0,-0.026458 c 0,0.080483 0,0.00455 0,-3e-6 z"
         id="path192" /><path
         style="fill:#0a0a0a;fill-opacity:1;stroke:#0a0a0a;stroke-width:0;stroke-dasharray:none;stroke-opacity:1"
         d="m 7.1119997,2.8998332 c 0.051875,-0.077076 0.045063,0.076626 0.042334,0.1238793 0,1.2780856 0,2.5561711 0,3.8342567 -0.08149,0.013633 -0.026227,-0.1094869 -0.042334,-0.1612371 0,-1.265633 0,-2.5312659 0,-3.7968989 z m 0.042333,-0.00529 c 0,-0.1627562 0,0.088499 0,3e-6 z m -0.042333,-0.021164 c 0,0.080483 0,0.00455 0,-3e-6 z"
         id="path191" /><path
         style="fill:#0a0a0a;fill-opacity:1;stroke:#0a0a0a;stroke-width:0;stroke-dasharray:none;stroke-opacity:1"
         d="m 6.3499997,2.8998332 c -0.024998,0.00895 0.038808,-0.068841 0.042327,0.026142 0,1.3106646 0,2.6213292 0,3.9319938 -0.08149,0.013633 -0.026227,-0.1094869 -0.042334,-0.1612371 0,-1.265633 0,-2.5312659 0,-3.7968989 z m 0.042326,-0.00529 c 0,-0.1627562 0,0.088499 0,3e-6 z"
         id="path190" /><path
         style="fill:#0a0a0a;fill-opacity:1;stroke:#0a0a0a;stroke-width:0;stroke-dasharray:none;stroke-opacity:1"
         d="m 6.3076664,2.8998332 c 0.051875,-0.077076 0.045063,0.076626 0.042334,0.1238793 0,1.2780856 0,2.5561711 0,3.8342567 0.017567,0.02045 0.018782,0.052978 -0.026457,0.047625 4.32e-5,0.031686 -0.028468,-0.081492 -0.015878,-0.1372652 0,-1.2894979 0,-2.5789959 0,-3.8684938 z"
         id="path189" /><path
         style="fill:#0a0a0a;fill-opacity:1;stroke:#0a0a0a;stroke-width:0;stroke-dasharray:none;stroke-opacity:1"
         d="m 7.154333,2.8574999 c 0.051694,-0.1033522 0.06297,0.098107 0,0 z m 0,0.00529 c 0,0.1627562 0,-0.088499 0,-3e-6 z"
         id="path188" /><path
         style="fill:#0a0a0a;fill-opacity:1;stroke:#0a0a0a;stroke-width:0;stroke-dasharray:none;stroke-opacity:1"
         d="m 7.1119997,2.8574999 c 0.045312,-0.039066 0.048122,-0.019165 0.042327,0.021167 -0.01876,-0.00536 -0.054497,0.015341 -0.042334,-0.021167 z m -6.9e-6,0.00529 c 0,0.1627562 0,-0.088499 0,-3e-6 z m 0.042333,0.021164 c 0,-0.080483 0,-0.00455 0,3e-6 z m -0.042333,-0.052914 c 0,0.080483 0,0.00455 0,-3e-6 z"
         id="path187" /><path
         style="fill:#0a0a0a;fill-opacity:1;stroke:#0a0a0a;stroke-width:0;stroke-dasharray:none;stroke-opacity:1"
         d="m 6.3552914,2.8627916 c 0.094528,-0.039496 -0.033524,0.045038 -0.00529,0.015874 l 0.00413,-0.012401 0.00116,-0.00347 z m 0.037041,0.021166 c 0,-0.080483 0,-0.00455 0,3e-6 z m 0,-0.031747 c 0,-0.1627562 0,0.088499 0,3e-6 z"
         id="path186" /><path
         style="fill:#0a0a0a;fill-opacity:1;stroke:#0a0a0a;stroke-width:0;stroke-dasharray:none;stroke-opacity:1"
         d="m 7.1490414,2.8204582 c -0.028909,0.012495 0.021778,-0.059458 0.027781,-0.03307 0.015852,-0.019932 0.027749,0.098231 -0.027779,0.03307 z"
         id="path185" /><path
         style="fill:#0a0a0a;fill-opacity:1;stroke:#0a0a0a;stroke-width:0;stroke-dasharray:none;stroke-opacity:1"
         d="m 7.1119997,2.8151666 c 0.023325,-0.034619 0.086092,0.048641 -9e-7,0.021168 v -0.013071 -0.0081 z m -9e-7,0.00529 c 0,0.1627562 0,-0.088499 0,-3e-6 z"
         id="path184" /><path
         style="fill:#0a0a0a;fill-opacity:1;stroke:#0a0a0a;stroke-width:0;stroke-dasharray:none;stroke-opacity:1"
         d="m 6.3447081,2.8098749 c 0.076584,-0.065354 0.041478,0.089907 -0.028946,0.068791 -0.031685,-0.026029 0.00945,-0.048623 0.028946,-0.068791 z m 0.047625,0.03175 c 0,-0.080483 0,-0.00455 0,3e-6 z"
         id="path183" /><path
         style="fill:#0a0a0a;fill-opacity:1;stroke:#0a0a0a;stroke-width:0;stroke-dasharray:none;stroke-opacity:1"
         d="m 6.3076664,2.8151666 c 0.095217,-0.1123845 -0.00192,0.091331 2e-6,-2e-6 z"
         id="path182" /><path
         style="fill:#0a0a0a;fill-opacity:1;stroke:#0a0a0a;stroke-width:0;stroke-dasharray:none;stroke-opacity:1"
         d="m 7.106708,2.7781249 c -0.027458,0.01097 0.019066,-0.0565 0.027782,-0.033058 0.011023,0.026601 0.061824,0.017689 0.00926,0.064817 -0.069845,-0.055638 0.055085,0.05038 -0.037037,-0.031745"
         id="path181" /><path
         style="fill:#0a0a0a;fill-opacity:1;stroke:#0a0a0a;stroke-width:0;stroke-dasharray:none;stroke-opacity:1"
         d="m 7.074958,2.7675416 c -0.01101,-0.05266 0.07581,0.061506 0.00794,0.01323 z"
         id="path180" /><path
         style="fill:#0a0a0a;fill-opacity:1;stroke:#0a0a0a;stroke-width:0;stroke-dasharray:none;stroke-opacity:1"
         d="m 6.3976247,2.7781249 c 0.097031,-0.0893 -0.030087,0.070648 -0.00132,0.00396 -0.00876,0.02627 -0.00126,0.00378 0.00132,-0.00397 z m 0.039686,-0.00795 c 0.037869,-0.037869 -0.02491,0.02491 1.7e-5,-1.7e-5 m -0.010583,-0.03175 c -0.036097,0.036097 2.059e-4,-2.059e-4 -1.7e-5,1.7e-5"
         id="path179" /><path
         style="fill:#0a0a0a;fill-opacity:1;stroke:#0a0a0a;stroke-width:0;stroke-dasharray:none;stroke-opacity:1"
         d="m 6.3499997,2.7728332 c 0.014066,-0.052097 0.050463,-0.040144 0.047613,0.00529 0.020357,-0.026226 -0.033329,0.060974 -0.047624,-0.00529"
         id="path178" /><path
         style="fill:#0a0a0a;fill-opacity:1;stroke:#0a0a0a;stroke-width:0;stroke-dasharray:none;stroke-opacity:1"
         d="m 7.0643747,2.7357916 c -0.026922,0.01239 0.019261,-0.058569 0.023826,-0.029112 0.00654,0.029748 0.069548,0.016589 0.010563,0.058209 0.013436,0.034391 -0.015501,-0.00164 -0.034387,-0.029095 z"
         id="path177" /><path
         style="fill:#0a0a0a;fill-opacity:1;stroke:#0a0a0a;stroke-width:0;stroke-dasharray:none;stroke-opacity:1"
         d="m 7.0319633,2.7258697 c -0.027087,-0.067861 0.085646,0.072037 5e-6,10e-8 z"
         id="path176" /><path
         style="fill:#0a0a0a;fill-opacity:1;stroke:#0a0a0a;stroke-width:0;stroke-dasharray:none;stroke-opacity:1"
         d="m 6.5193331,2.7304999 c 0.022246,-0.04727 0.1304473,-0.00858 0.1873793,-0.021167 0.1068732,0 0.2137465,0 0.3206197,0 -0.05466,-0.017241 0.046279,0.031924 0.068787,0.079368 0.036847,0.041477 0.00544,0.1321571 0.015875,0.1926693 0,1.3063079 0,2.6126158 0,3.9189237 -0.2398854,0 -0.4797707,0 -0.7196561,0 0.040959,0.023827 -0.028787,-0.034838 1e-7,-0.1058271 0,-1.3334897 0,-2.6669793 0,-4.000469 -0.044892,0.069237 0.087362,-0.080974 0.058197,-0.037033 0.01205,-0.065822 0.046424,0.05958 0.0688,-0.026449 M 7.0961268,6.900349 c 0.1627562,0 -0.088499,0 -3e-6,0 z M 6.5352081,2.7093332 c -0.1627562,0 0.088499,0 3e-6,0 z"
         id="path175" /><path
         style="fill:#0a0a0a;fill-opacity:1;stroke:#0a0a0a;stroke-width:0;stroke-dasharray:none;stroke-opacity:1"
         d="m 6.4723695,2.7258697 c 0.00287,-0.030002 0.055944,-0.033653 0.031086,0.031094 -0.06501,-0.00538 -0.029311,-0.031682 -0.031085,-0.031078 m 0.052255,-0.016536 c -0.080483,0 -0.00455,0 3e-6,0 z"
         id="path174" /><path
         style="fill:#0a0a0a;fill-opacity:1;stroke:#0a0a0a;stroke-width:0;stroke-dasharray:none;stroke-opacity:1"
         d="m 6.4346664,2.7304999 c 0.061391,-0.073896 0.053482,0.038953 -0.010576,0.010586 l 0.00924,-0.00924 0.00134,-0.00134 z m -0.00264,0.00265 c -0.037869,0.037869 0.02491,-0.02491 -1.7e-5,1.7e-5 m 0.010583,0.03175 c 0.036097,-0.036096 -2.059e-4,2.059e-4 1.7e-5,-1.7e-5"
         id="path173" /><path
         style="fill:#0a0a0a;fill-opacity:1;stroke:#0a0a0a;stroke-width:0;stroke-dasharray:none;stroke-opacity:1"
         d="m 6.3870414,2.7252082 c 0.021229,-0.046686 0.061246,-0.028594 0.047629,0.00531 -0.00192,-0.017687 -0.02796,0.06429 -0.042991,0.020481 -0.030168,-0.021037 0.00423,-0.022005 -0.00464,-0.02579 z"
         id="path172" /><path
         style="fill:#0a0a0a;fill-opacity:1;stroke:#0a0a0a;stroke-width:0;stroke-dasharray:none;stroke-opacity:1"
         d="m 7.0273331,2.6881666 c 0.028653,-0.034137 0.091984,0.00225 0.029109,0.034389 -0.00249,0.040957 -0.020643,-0.00349 -0.029097,-0.034387"
         id="path171" /><path
         style="fill:#0a0a0a;fill-opacity:1;stroke:#0a0a0a;stroke-width:0;stroke-dasharray:none;stroke-opacity:1"
         d="m 6.9797081,2.6934582 c -0.046002,0.012614 0.051464,-0.080036 0.047632,0.015886 -0.015962,-0.00503 -0.04953,0.013125 -0.047624,-0.015875 m 0,0.015875 c 0.080483,0 0.00455,0 -3e-6,0 z"
         id="path170" /><path
         style="fill:#0a0a0a;fill-opacity:1;stroke:#0a0a0a;stroke-width:0;stroke-dasharray:none;stroke-opacity:1"
         d="m 6.9426664,2.6881666 c 0.021969,-0.063252 0.058947,0.073533 -2e-6,0.00809 v -0.0081 z m 0.026456,0.021165 c 0.1627562,0 -0.088499,0 -3e-6,0 z"
         id="path169" /><path
         style="fill:#0a0a0a;fill-opacity:1;stroke:#0a0a0a;stroke-width:0;stroke-dasharray:none;stroke-opacity:1"
         d="m 6.9003331,2.6881666 c 0.051693,-0.1033519 0.062971,0.098107 0,0 z"
         id="path168" /><path
         style="fill:#0a0a0a;fill-opacity:1;stroke:#0a0a0a;stroke-width:0;stroke-dasharray:none;stroke-opacity:1"
         d="m 6.5623279,2.688828 c 0.00973,-0.048775 -0.00202,-0.00832 0.088981,-0.021822 0.083008,0 0.1660152,0 0.2490228,0 C 6.9139647,2.748496 6.7908448,2.693233 6.7390946,2.70934 6.6892176,2.696679 6.5756002,2.735461 6.5623282,2.688835 Z m -0.00595,0.020512 c 0.080483,0 0.00455,0 -3e-6,0 z"
         id="path167" /><path
         style="fill:#0a0a0a;fill-opacity:1;stroke:#0a0a0a;stroke-width:0;stroke-dasharray:none;stroke-opacity:1"
         d="m 6.5246247,2.6934582 c 0.031761,-0.069024 0.075411,0.00937 -0.00529,0.015876 l 0.00413,-0.012401 0.00116,-0.00347 z m -0.010582,0.015876 c 0.080483,0 0.00455,0 -3e-6,0 z m 0.031747,0 c 0.1627562,0 -0.088499,0 -3e-6,0 z"
         id="path166" /><path
         style="fill:#0a0a0a;fill-opacity:1;stroke:#0a0a0a;stroke-width:0;stroke-dasharray:none;stroke-opacity:1"
         d="m 6.4769997,2.6881666 c 0.031227,-0.04957 0.00842,-0.036359 0.060855,-0.013229 0.00767,-0.046821 -0.00838,0.075669 -0.060854,0.01323 z m 0.026459,0.021168 c 0.1627562,0 -0.088499,0 -3e-6,0 z"
         id="path165" /><path
         style="fill:#0a0a0a;fill-opacity:1;stroke:#0a0a0a;stroke-width:0;stroke-dasharray:none;stroke-opacity:1"
         d="m 6.4293747,2.6828749 c 0.089942,-0.042819 0.013788,0.0718 0.017205,0.038369 -0.051516,-0.025778 -0.00946,-0.045924 -0.017206,-0.038358"
         id="path164" /><path
         style="fill:#0a0a0a;fill-opacity:1;stroke:#0a0a0a;stroke-width:0;stroke-dasharray:none;stroke-opacity:1"
         d="m 6.9426664,2.6458332 c 0.036638,-0.065989 0.1356909,0.026724 0.031755,0.037043 -0.043444,-0.060862 0.026822,0.0661 -0.031747,-0.037037 z"
         id="path163" /><path
         style="fill:#0a0a0a;fill-opacity:1;stroke:#0a0a0a;stroke-width:0;stroke-dasharray:none;stroke-opacity:1"
         d="m 6.5616664,2.6458332 c 0.022246,-0.04727 0.1304473,-0.00858 0.1873793,-0.021167 0.06454,0 0.1290791,0 0.1936187,0 0.013364,0.081222 -0.1092073,0.026507 -0.1612381,0.042334 -0.073254,0 -0.1465073,0 -0.2197609,0 v -0.013071 -0.0081 z"
         id="path162" /><path
         style="fill:#0a0a0a;fill-opacity:1;stroke:#0a0a0a;stroke-width:0;stroke-dasharray:none;stroke-opacity:1"
         d="m 6.5140414,2.6405416 c 0.089906,-0.042869 0.013445,0.07062 0.018528,0.039679 -0.052943,-0.026013 -0.011186,-0.048003 -0.018528,-0.03968 z"
         id="path161" /></g></g></svg>
