<?xml version="1.0" encoding="UTF-8" standalone="no"?>
<!-- Created with Inkscape (http://www.inkscape.org/) -->

<svg
   width="36"
   height="36"
   viewBox="0 0 9.5249997 9.5249999"
   version="1.1"
   id="svg1"
   inkscape:version="1.3.2 (091e20e, 2023-11-25)"
   xml:space="preserve"
   sodipodi:docname="logomark-color.svg"
   xmlns:inkscape="http://www.inkscape.org/namespaces/inkscape"
   xmlns:sodipodi="http://sodipodi.sourceforge.net/DTD/sodipodi-0.dtd"
   xmlns="http://www.w3.org/2000/svg"
   xmlns:svg="http://www.w3.org/2000/svg"><sodipodi:namedview
     id="namedview1"
     pagecolor="#ffffff"
     bordercolor="#000000"
     borderopacity="0.25"
     inkscape:showpageshadow="2"
     inkscape:pageopacity="0.0"
     inkscape:pagecheckerboard="0"
     inkscape:deskcolor="#d1d1d1"
     inkscape:document-units="mm"
     showgrid="true"
     inkscape:zoom="13.768134"
     inkscape:cx="17.867346"
     inkscape:cy="16.523663"
     inkscape:window-width="1528"
     inkscape:window-height="778"
     inkscape:window-x="0"
     inkscape:window-y="25"
     inkscape:window-maximized="0"
     inkscape:current-layer="layer1"><inkscape:grid
       id="grid1"
       units="px"
       originx="0"
       originy="0"
       spacingx="0.79374998"
       spacingy="0.79374998"
       empcolor="#0099e5"
       empopacity="0.30196078"
       color="#0099e5"
       opacity="0.14901961"
       empspacing="3"
       dotted="false"
       gridanglex="30"
       gridanglez="30"
       visible="true" /></sodipodi:namedview><defs
     id="defs1" /><g
     inkscape:label="color"
     inkscape:groupmode="layer"
     id="layer1"
     style="display:inline"
     sodipodi:insensitive="true"><path
       style="display:inline;fill:#6000fd"
       d="M 2.5106902,8.6361014 1.8602712,8.2594967 1.7873855,8.1316976 1.7144999,8.0038986 V 5.6000511 3.1962036 L 1.7901843,3.0655588 1.8658686,2.9349139 3.965187,1.7234413 C 5.1198121,1.0571314 6.069239,0.51196873 6.0750244,0.51196873 c 0.00579,0 0.1039546,0.054069 0.2181535,0.12015332 L 6.5008122,0.75227537 V 1.2393408 c 0,0.3135061 0.0042,0.4870654 0.011788,0.4870654 0.00648,0 0.2028376,-0.1103754 0.436343,-0.2452786 l 0.4245554,-0.2452786 0.048837,0.02726 c 0.02686,0.014993 0.123846,0.071142 0.2155242,0.1247758 l 0.1666875,0.097515 0.00301,2.4182454 0.00301,2.4182453 -0.074443,0.1295218 -0.074443,0.1295219 -2.1014531,1.2130714 -2.101453,1.2130715 -0.1488281,0.00281 -0.1488282,0.00281 z M 5.2764485,7.2973887 7.2389997,6.1651527 V 4.069619 1.9740853 l -0.038695,0.02249 c -0.021283,0.01237 -0.187345,0.108 -0.3690275,0.212512 L 6.5009453,2.3991093 6.5003276,4.006453 6.49971,5.6137967 6.4301444,5.7328591 6.3605788,5.8519216 4.9111803,6.6883357 C 4.1140111,7.1483634 3.4557453,7.5246469 3.4483674,7.5245212 3.4409895,7.5243955 3.3438702,7.4713711 3.2325467,7.4066892 L 3.0301405,7.2890858 3.0271232,5.5981923 3.024106,3.9072989 3.0943896,3.7863497 3.1646732,3.6654006 4.5261568,2.8796531 C 5.2749728,2.4474919 5.8997665,2.0860575 5.9145874,2.0764654 l 0.026947,-0.01744 -0.00313,-0.3984882 c -0.00173,-0.2191687 -0.00767,-0.399381 -0.013217,-0.4004719 -0.00554,-0.00109 -0.8265949,0.4690601 -1.8245598,1.0447802 l -1.8144816,1.0467637 0.0029,2.2498686 0.0029,2.2498685 0.5000625,0.2889178 c 0.2750344,0.1589048 0.5049718,0.2890174 0.5109721,0.2891392 0.006,1.217e-4 0.8940577,-0.5092848 1.9734609,-1.1320146 z M 4.7364869,6.1298234 C 5.3630729,5.768617 5.8904681,5.4628569 5.9084763,5.4503564 l 0.032742,-0.022728 V 4.0830328 c 0,-1.0678684 -0.00306,-1.3445454 -0.014883,-1.3443524 -0.00819,1.336e-4 -0.5372695,0.3020184 -1.1757421,0.6708551 L 3.5897342,4.0801477 3.586707,5.433355 c -0.00167,0.744264 2.38e-5,1.3532072 0.00375,1.3532072 0.00373,0 0.5194412,-0.2955325 1.1460272,-0.6567388 z"
       id="path1"
       sodipodi:insensitive="true" /></g><g
     inkscape:label="light"
     inkscape:groupmode="layer"
     id="g19"
     style="display:none;fill:#000000;fill-opacity:0;stroke:none;stroke-opacity:0.0588235"
     sodipodi:insensitive="true"><path
       style="display:inline;fill:#ffffff;fill-opacity:1;stroke:none;stroke-width:1;stroke-dasharray:none;stroke-opacity:1"
       d="M 2.5106902,8.6361014 1.8602712,8.2594967 1.7873855,8.1316976 1.7144999,8.0038986 V 5.6000511 3.1962036 L 1.7901843,3.0655588 1.8658686,2.9349139 3.965187,1.7234413 C 5.1198121,1.0571314 6.069239,0.51196873 6.0750244,0.51196873 c 0.00579,0 0.1039546,0.054069 0.2181535,0.12015332 L 6.5008122,0.75227537 V 1.2393408 c 0,0.3135061 0.0042,0.4870654 0.011788,0.4870654 0.00648,0 0.2028376,-0.1103754 0.436343,-0.2452786 l 0.4245554,-0.2452786 0.048837,0.02726 c 0.02686,0.014993 0.123846,0.071142 0.2155242,0.1247758 l 0.1666875,0.097515 0.00301,2.4182454 0.00301,2.4182453 -0.074443,0.1295218 -0.074443,0.1295219 -2.1014531,1.2130714 -2.101453,1.2130715 -0.1488281,0.00281 -0.1488282,0.00281 z M 5.2764485,7.2973887 7.2389997,6.1651527 V 4.069619 1.9740853 l -0.038695,0.02249 c -0.021283,0.01237 -0.187345,0.108 -0.3690275,0.212512 L 6.5009453,2.3991093 6.5003276,4.006453 6.49971,5.6137967 6.4301444,5.7328591 6.3605788,5.8519216 4.9111803,6.6883357 C 4.1140111,7.1483634 3.4557453,7.5246469 3.4483674,7.5245212 3.4409895,7.5243955 3.3438702,7.4713711 3.2325467,7.4066892 L 3.0301405,7.2890858 3.0271232,5.5981923 3.024106,3.9072989 3.0943896,3.7863497 3.1646732,3.6654006 4.5261568,2.8796531 C 5.2749728,2.4474919 5.8997665,2.0860575 5.9145874,2.0764654 l 0.026947,-0.01744 -0.00313,-0.3984882 c -0.00173,-0.2191687 -0.00767,-0.399381 -0.013217,-0.4004719 -0.00554,-0.00109 -0.8265949,0.4690601 -1.8245598,1.0447802 l -1.8144816,1.0467637 0.0029,2.2498686 0.0029,2.2498685 0.5000625,0.2889178 c 0.2750344,0.1589048 0.5049718,0.2890174 0.5109721,0.2891392 0.006,1.217e-4 0.8940577,-0.5092848 1.9734609,-1.1320146 z M 4.7364869,6.1298234 C 5.3630729,5.768617 5.8904681,5.4628569 5.9084763,5.4503564 l 0.032742,-0.022728 V 4.0830328 c 0,-1.0678684 -0.00306,-1.3445454 -0.014883,-1.3443524 -0.00819,1.336e-4 -0.5372695,0.3020184 -1.1757421,0.6708551 L 3.5897342,4.0801477 3.586707,5.433355 c -0.00167,0.744264 2.38e-5,1.3532072 0.00375,1.3532072 0.00373,0 0.5194412,-0.2955325 1.1460272,-0.6567388 z"
       id="path8"
       sodipodi:insensitive="true" /></g><g
     inkscape:label="dark"
     inkscape:groupmode="layer"
     id="g33"
     style="display:none"
     sodipodi:insensitive="true"><path
       style="display:inline;fill:#0a0a0a;fill-opacity:1"
       d="M 2.5106902,8.6361014 1.8602712,8.2594967 1.7873855,8.1316976 1.7144999,8.0038986 V 5.6000511 3.1962036 L 1.7901843,3.0655588 1.8658686,2.9349139 3.965187,1.7234413 C 5.1198121,1.0571314 6.069239,0.51196873 6.0750244,0.51196873 c 0.00579,0 0.1039546,0.054069 0.2181535,0.12015332 L 6.5008122,0.75227537 V 1.2393408 c 0,0.3135061 0.0042,0.4870654 0.011788,0.4870654 0.00648,0 0.2028376,-0.1103754 0.436343,-0.2452786 l 0.4245554,-0.2452786 0.048837,0.02726 c 0.02686,0.014993 0.123846,0.071142 0.2155242,0.1247758 l 0.1666875,0.097515 0.00301,2.4182454 0.00301,2.4182453 -0.074443,0.1295218 -0.074443,0.1295219 -2.1014531,1.2130714 -2.101453,1.2130715 -0.1488281,0.00281 -0.1488282,0.00281 z M 5.2764485,7.2973887 7.2389997,6.1651527 V 4.069619 1.9740853 l -0.038695,0.02249 c -0.021283,0.01237 -0.187345,0.108 -0.3690275,0.212512 L 6.5009453,2.3991093 6.5003276,4.006453 6.49971,5.6137967 6.4301444,5.7328591 6.3605788,5.8519216 4.9111803,6.6883357 C 4.1140111,7.1483634 3.4557453,7.5246469 3.4483674,7.5245212 3.4409895,7.5243955 3.3438702,7.4713711 3.2325467,7.4066892 L 3.0301405,7.2890858 3.0271232,5.5981923 3.024106,3.9072989 3.0943896,3.7863497 3.1646732,3.6654006 4.5261568,2.8796531 C 5.2749728,2.4474919 5.8997665,2.0860575 5.9145874,2.0764654 l 0.026947,-0.01744 -0.00313,-0.3984882 c -0.00173,-0.2191687 -0.00767,-0.399381 -0.013217,-0.4004719 -0.00554,-0.00109 -0.8265949,0.4690601 -1.8245598,1.0447802 l -1.8144816,1.0467637 0.0029,2.2498686 0.0029,2.2498685 0.5000625,0.2889178 c 0.2750344,0.1589048 0.5049718,0.2890174 0.5109721,0.2891392 0.006,1.217e-4 0.8940577,-0.5092848 1.9734609,-1.1320146 z M 4.7364869,6.1298234 C 5.3630729,5.768617 5.8904681,5.4628569 5.9084763,5.4503564 l 0.032742,-0.022728 V 4.0830328 c 0,-1.0678684 -0.00306,-1.3445454 -0.014883,-1.3443524 -0.00819,1.336e-4 -0.5372695,0.3020184 -1.1757421,0.6708551 L 3.5897342,4.0801477 3.586707,5.433355 c -0.00167,0.744264 2.38e-5,1.3532072 0.00375,1.3532072 0.00373,0 0.5194412,-0.2955325 1.1460272,-0.6567388 z"
       id="path22"
       sodipodi:insensitive="true" /></g></svg>
