<?xml version="1.0" encoding="UTF-8" standalone="no"?>
<svg
   width="184"
   height="36"
   viewBox="0 0 184 36"
   fill="none"
   version="1.1"
   id="svg2"
   sodipodi:docname="logo-color.svg"
   xml:space="preserve"
   inkscape:version="1.3.2 (091e20e, 2023-11-25)"
   inkscape:export-filename="logo-color.png"
   inkscape:export-xdpi="96"
   inkscape:export-ydpi="96"
   xmlns:inkscape="http://www.inkscape.org/namespaces/inkscape"
   xmlns:sodipodi="http://sodipodi.sourceforge.net/DTD/sodipodi-0.dtd"
   xmlns="http://www.w3.org/2000/svg"
   xmlns:svg="http://www.w3.org/2000/svg"><defs
     id="defs2" /><sodipodi:namedview
     id="namedview2"
     pagecolor="#ffffff"
     bordercolor="#000000"
     borderopacity="0.25"
     inkscape:showpageshadow="2"
     inkscape:pageopacity="0.0"
     inkscape:pagecheckerboard="0"
     inkscape:deskcolor="#d1d1d1"
     inkscape:zoom="4.4866386"
     inkscape:cx="85.810344"
     inkscape:cy="21.173981"
     inkscape:window-width="1312"
     inkscape:window-height="449"
     inkscape:window-x="0"
     inkscape:window-y="25"
     inkscape:window-maximized="0"
     inkscape:current-layer="svg2"
     showgrid="true"><inkscape:grid
       id="grid17"
       units="px"
       originx="0"
       originy="0"
       spacingx="1"
       spacingy="1"
       empcolor="#0099e5"
       empopacity="0.30196078"
       color="#0099e5"
       opacity="0.14901961"
       empspacing="3"
       dotted="false"
       gridanglex="30"
       gridanglez="30"
       visible="true" /></sodipodi:namedview><g
     id="g27"
     style="display:inline"
     inkscape:label="color"
     sodipodi:insensitive="true"><path
       style="fill:#6000fd"
       d="M 3.135405,31.647098 0.83804906,30.330577 0.57798004,29.883938 0.31791103,29.437298 V 20.990345 12.543392 L 0.5774615,12.096077 0.83701197,11.648762 8.269347,7.3946921 c 4.087784,-2.3397386 7.447452,-4.2540702 7.465928,-4.2540702 0.01848,0 0.368257,0.1912476 0.777292,0.4249948 l 0.7437,0.4249948 0.0084,1.7182662 0.0084,1.7182663 1.529003,-0.8740441 1.529003,-0.8740441 0.760004,0.436615 0.760005,0.4366149 v 8.5063353 8.506335 l -0.242908,0.421201 c -0.133599,0.23166 -0.277874,0.445575 -0.32061,0.475368 -0.05877,0.04097 -9.205168,5.279733 -14.307164,8.194685 l -0.5401547,0.308609 -0.5036922,-6e-4 -0.5036922,-6.01e-4 z m 9.7451,-4.692883 c 3.777329,-2.160916 6.884674,-3.944401 6.905211,-3.963301 0.02975,-0.02738 0.03581,-1.52385 0.02982,-7.360819 L 19.808024,8.3036387 18.53304,9.0354879 17.258055,9.767337 v 5.61965 5.619649 l -0.257378,0.439247 -0.257378,0.439247 -4.979325,2.848211 C 9.0253445,26.299857 6.7081995,27.62475 6.6147625,27.677548 l -0.1698854,0.096 -0.7665013,-0.438975 -0.7665012,-0.438974 -5.186e-4,-5.894622 -5.186e-4,-5.894622 0.2592498,-0.44826 0.2592498,-0.44826 4.89288,-2.801761 4.892881,-2.8017609 0.0077,-1.4238816 c 0.0073,-1.3485696 0.005,-1.4228248 -0.04474,-1.4039027 -0.02887,0.010988 -2.927909,1.6656579 -6.4423183,3.6770433 L 2.3459565,13.112633 v 7.876449 7.876449 l 1.7819957,1.02177 c 1.0431543,0.598129 1.8032836,1.016397 1.8333394,1.008811 0.028239,-0.0071 3.1418851,-1.780981 6.9192134,-3.941897 z m -1.770317,-4.174359 4.118723,-2.356112 5.5e-4,-4.752933 5.49e-4,-4.752934 -0.0671,0.04318 c -0.03691,0.02375 -1.902411,1.093592 -4.145563,2.37743 l -4.0784592,2.33425 v 4.741556 c 0,2.723875 0.011188,4.737326 0.026291,4.731615 0.01446,-0.0055 1.8797165,-1.070192 4.1450142,-2.366053 z"
       id="path26" /><path
       style="fill:#030c3b"
       d="m 45.262976,26.802528 c -0.400046,-0.02876 -1.0025,-0.112124 -1.389945,-0.192321 -1.466189,-0.303484 -2.700127,-0.951258 -3.704949,-1.944966 -1.492166,-1.475663 -2.343613,-3.341718 -2.64975,-5.807267 -0.07743,-0.623579 -0.07743,-2.507962 0,-3.131541 0.219608,-1.768669 0.704367,-3.168775 1.530986,-4.421876 1.328549,-2.0139945 3.165419,-3.1482842 5.617175,-3.4686732 0.570609,-0.074566 1.78519,-0.089884 2.356111,-0.029715 1.767914,0.1863192 3.165192,0.8011334 4.303246,1.893465 0.865758,0.8309762 1.382435,1.7477512 1.77038,3.1413082 0.01367,0.04909 -0.05795,0.05219 -1.20622,0.05219 H 50.66926 L 50.61603,12.751467 C 50.208524,11.666869 49.437762,10.798246 48.480486,10.34478 47.754631,10.000939 46.996441,9.8510641 45.982868,9.8510641 c -1.928843,0 -3.453344,0.6667929 -4.480913,1.9598789 -1.200891,1.511195 -1.779485,3.458765 -1.717005,5.7795 0.03125,1.160591 0.182641,2.071399 0.49326,2.967508 0.689002,1.987709 1.850936,3.265749 3.478642,3.826241 1.251063,0.430798 2.921212,0.460995 4.130651,0.07468 1.368642,-0.437163 2.392787,-1.457239 2.88047,-2.869026 l 0.109199,-0.316118 h 1.219736 1.219735 l -0.01944,0.08202 c -0.165239,0.69711 -0.507567,1.534041 -0.881522,2.155161 -1.108664,1.841437 -2.872215,2.942296 -5.18431,3.236195 -0.35828,0.04554 -1.614062,0.0809 -1.968398,0.05542 z m 15.478759,-10e-4 c -1.073593,-0.102882 -1.824411,-0.308045 -2.561102,-0.699828 -0.86633,-0.460726 -1.550901,-1.096323 -2.123063,-1.971179 -0.543545,-0.8311 -0.875025,-1.727635 -1.046803,-2.831227 -0.0903,-0.580164 -0.0985,-1.95758 -0.01496,-2.515838 0.209503,-1.400107 0.675649,-2.509247 1.457226,-3.4673 0.908485,-1.113615 2.183507,-1.828885 3.655836,-2.050875 1.214965,-0.183186 2.513379,-0.08465 3.58388,0.271964 0.349534,0.116441 1.090255,0.497176 1.399624,0.719414 1.227705,0.881933 2.17562,2.384765 2.493051,3.952503 0.139744,0.690172 0.173294,1.118383 0.155987,1.990944 -0.02586,1.303713 -0.214048,2.163945 -0.688339,3.146453 -0.901841,1.86819 -2.431595,3.042243 -4.387673,3.367444 -0.547598,0.09104 -1.455793,0.132361 -1.923661,0.08752 z m 1.461386,-1.935304 c 0.921456,-0.157001 1.711002,-0.616162 2.250404,-1.308724 0.753656,-0.967652 1.11973,-2.133539 1.11973,-3.566164 0,-1.257045 -0.271988,-2.259507 -0.857741,-3.161365 -0.667457,-1.027653 -1.515579,-1.568906 -2.711685,-1.730539 -0.396039,-0.05352 -1.313744,-0.02242 -1.664721,0.05642 -1.119919,0.251549 -1.908057,0.853988 -2.531787,1.935258 -0.280727,0.486656 -0.501023,1.121753 -0.618061,1.781822 -0.0909,0.51266 -0.100112,1.629867 -0.0177,2.147342 0.133511,0.838381 0.417314,1.592982 0.839453,2.232013 0.666271,1.008595 1.577859,1.535057 2.89476,1.671784 0.235489,0.02445 1.01953,-0.01051 1.297353,-0.05784 z m 14.032284,1.923848 c -0.601586,-0.06068 -1.213921,-0.218718 -1.716718,-0.443076 -0.481878,-0.215023 -0.877352,-0.490947 -1.295525,-0.903894 l -0.357891,-0.353418 -0.28333,0.0083 -0.28333,0.0083 -0.008,0.693413 -0.008,0.693412 H 71.239303 70.196006 V 17.12817 7.7633724 h 1.088583 1.088583 v 3.5639916 3.563992 l 0.305698,-7.05e-4 0.305698,-7.05e-4 0.08947,-0.121269 c 0.306908,-0.415977 0.998712,-0.934524 1.562832,-1.171435 1.22553,-0.514678 2.963288,-0.56415 4.239715,-0.1207 0.699236,0.242925 1.270046,0.602281 1.820962,1.146396 1.00803,0.995586 1.627536,2.283906 1.878718,3.90697 0.08001,0.517012 0.111042,1.804394 0.05766,2.392293 -0.163227,1.797711 -0.823105,3.315058 -1.924519,4.425307 -0.746356,0.752343 -1.608009,1.195353 -2.699466,1.387902 -0.395534,0.06978 -1.336957,0.09875 -1.77454,0.05462 z m 1.034033,-1.920631 c 1.18897,-0.211803 2.047168,-0.876657 2.620201,-2.029894 0.426467,-0.858272 0.595715,-1.665072 0.595715,-2.839762 0,-1.498855 -0.30914,-2.567995 -1.016051,-3.513943 -0.579232,-0.775095 -1.304777,-1.211556 -2.279523,-1.371276 -0.39547,-0.0648 -1.150632,-0.05814 -1.570263,0.01384 -1.44333,0.247604 -2.420192,1.154039 -2.946095,2.733697 -0.229042,0.687978 -0.312434,1.266081 -0.311444,2.159053 0.0012,1.125563 0.188981,2.000117 0.608663,2.835444 0.622791,1.239593 1.568601,1.896437 2.962107,2.057116 0.29996,0.03459 1.029659,0.01041 1.33669,-0.04428 z m 22.044787,1.9212 C 97.220127,26.58724 95.657744,25.617359 94.621236,23.87733 94.144101,23.076343 93.849952,22.183304 93.708,21.104737 c -0.07039,-0.534801 -0.06987,-1.702321 9.92e-4,-2.231851 0.211735,-1.582307 0.81964,-2.912628 1.789388,-3.915842 0.946121,-0.978772 2.078455,-1.525859 3.567449,-1.723614 0.448659,-0.05959 1.456381,-0.06739 1.893841,-0.01467 1.93416,0.233108 3.32936,1.078047 4.38222,2.653901 0.79819,1.194677 1.20038,2.753405 1.13975,4.417214 -0.0665,1.823542 -0.60436,3.289315 -1.65469,4.5089 -0.94247,1.094355 -2.12417,1.724342 -3.65852,1.950419 -0.36103,0.0532 -1.476316,0.0781 -1.854205,0.0414 z m 1.247105,-1.879892 c 1.42818,-0.145215 2.40364,-0.803053 3.09334,-2.086114 0.8266,-1.537747 0.87068,-3.811813 0.10519,-5.42797 -0.18233,-0.384962 -0.52829,-0.896187 -0.80861,-1.194874 -0.5565,-0.592983 -1.26976,-0.958059 -2.12579,-1.088066 -0.36488,-0.05541 -1.156157,-0.05541 -1.521038,0 -1.096012,0.166453 -1.936656,0.706329 -2.56651,1.648257 -0.766394,1.146119 -1.061825,2.620702 -0.844181,4.213553 0.219375,1.605517 1.067335,2.957051 2.217021,3.533632 0.688028,0.345054 1.575775,0.490531 2.450578,0.401582 z m 29.22342,1.889716 c -0.55511,-0.03242 -1.30865,-0.15651 -1.79199,-0.295113 -1.53032,-0.43883 -2.57637,-1.394811 -3.03742,-2.7759 -0.0864,-0.258723 -0.21088,-0.808911 -0.21088,-0.93187 0,-0.06222 0.004,-0.06242 1.1035,-0.06242 h 1.10349 v 0.0677 c 0,0.132325 0.12493,0.515572 0.24015,0.736734 0.3881,0.744922 1.07288,1.151762 2.24446,1.333478 0.51837,0.0804 1.55392,0.07167 2.06104,-0.01738 1.34007,-0.235313 2.07292,-0.836003 2.19354,-1.797971 0.0481,-0.383797 -0.0207,-0.817577 -0.17919,-1.129886 -0.25525,-0.502862 -0.86111,-0.873905 -1.77185,-1.085119 -0.10803,-0.02505 -0.95778,-0.173066 -1.88834,-0.328915 -0.93056,-0.155849 -1.84125,-0.323527 -2.02375,-0.372619 -1.78349,-0.479736 -2.64697,-1.599449 -2.56501,-3.326131 0.03,-0.632898 0.17513,-1.141187 0.46197,-1.618447 0.18574,-0.309047 0.22574,-0.359312 0.53498,-0.672271 0.43131,-0.4365 0.99556,-0.779214 1.63541,-0.993321 1.45577,-0.487134 3.6379,-0.471802 4.9844,0.03502 0.99336,0.373898 1.85317,1.116486 2.28452,1.973055 0.1692,0.336002 0.37414,1.018541 0.3764,1.253594 l 6.4e-4,0.06711 h -1.08526 -1.08527 l -0.0203,-0.108313 c -0.10357,-0.552097 -0.48362,-1.010279 -1.07256,-1.293061 -0.57091,-0.274127 -0.96821,-0.358657 -1.78418,-0.379602 -0.6881,-0.01766 -1.0388,0.01251 -1.47749,0.127097 -1.04077,0.271864 -1.55728,0.805576 -1.55728,1.609142 0,0.698276 0.32717,1.118938 1.07368,1.380514 0.35649,0.124916 0.93176,0.230948 3.02715,0.557954 0.37728,0.05888 0.83604,0.140498 1.01947,0.181377 1.7497,0.389934 2.82252,1.29775 3.17283,2.684851 0.27335,1.082323 0.13416,2.168322 -0.3834,2.991552 -0.70815,1.126371 -1.89066,1.849793 -3.4361,2.102086 -0.57339,0.09361 -1.43625,0.128595 -2.14734,0.08707 z m 13.27177,0.0032 c -0.0574,-0.0067 -0.23188,-0.0266 -0.38771,-0.04427 -2.06346,-0.233884 -3.66959,-1.374675 -4.59503,-3.263731 -0.64968,-1.326166 -0.89904,-3.03371 -0.69737,-4.775328 0.22825,-1.9711 1.16034,-3.60204 2.60822,-4.563779 1.08734,-0.722255 2.5491,-1.068079 4.08397,-0.966191 1.94756,0.129283 3.26929,0.857789 4.27193,2.35458 0.74915,1.118381 1.09742,2.426723 1.09823,4.125764 l 1.4e-4,0.290786 h -4.98064 -4.98064 v 0.246233 c 0,0.560984 0.14674,1.425214 0.34013,2.00314 0.5082,1.51873 1.51719,2.416834 2.98526,2.657184 0.8226,0.134674 1.74161,0.06895 2.46521,-0.176307 0.43324,-0.14684 0.7119,-0.317584 1.02724,-0.629423 0.29292,-0.289656 0.4672,-0.551833 0.6088,-0.915815 l 0.0846,-0.217504 1.10315,-0.0078 1.10315,-0.0078 -0.0423,0.186762 c -0.29976,1.322136 -1.22349,2.464072 -2.5025,3.093647 -0.59512,0.292938 -1.13819,0.454902 -1.86402,0.555918 -0.29926,0.04165 -1.51092,0.07945 -1.7298,0.05397 z m 4.11574,-8.68736 c 0,-0.01425 -0.0205,-0.145109 -0.0455,-0.290786 -0.23319,-1.357263 -1.18568,-2.343605 -2.57902,-2.670667 -0.37098,-0.08708 -1.32342,-0.109637 -1.78244,-0.04221 -0.37614,0.05525 -0.74941,0.155973 -1.06513,0.287408 -0.49383,0.205582 -1.09195,0.688696 -1.45399,1.174423 -0.28606,0.383793 -0.54559,0.979766 -0.63561,1.459602 l -0.0203,0.108148 h 3.791 c 2.12648,0 3.79099,-0.01138 3.79099,-0.02592 z m -62.064156,1.889929 v -6.486762 h 1.058256 1.058255 l 0.008,0.767973 0.008,0.767973 0.268418,0.0082 0.268418,0.0082 0.313154,-0.308785 c 0.484377,-0.477619 0.936969,-0.752437 1.609465,-0.977283 0.601123,-0.200983 0.899277,-0.240433 1.94707,-0.257621 l 0.917095,-0.01504 v 1.017178 1.017178 l -0.708325,2.45e-4 c -1.204733,4.16e-4 -1.756691,0.100142 -2.469933,0.446259 -1.052335,0.51067 -1.717111,1.450619 -1.987369,2.810007 -0.06701,0.337061 -0.06706,0.339958 -0.07625,4.013137 l -0.0092,3.675832 h -1.102492 -1.102493 z m 24.682396,6.404747 c -0.009,-0.04511 -0.41946,-2.893693 -0.91163,-6.330186 -0.49217,-3.436493 -0.90641,-6.318629 -0.92053,-6.404746 l -0.0257,-0.156577 h 1.05423 c 0.57983,0 1.05423,0.0049 1.05423,0.01095 0,0.006 0.22858,1.579623 0.50794,3.496887 0.27937,1.917264 0.622,4.271057 0.76141,5.23065 0.1394,0.959594 0.26126,1.788334 0.2708,1.841645 l 0.0173,0.09693 h 0.29149 0.29149 l 0.16843,-0.484643 c 0.0926,-0.266554 0.59498,-1.712655 1.11631,-3.213557 l 0.94787,-2.728914 1.38952,-0.0077 1.38953,-0.0077 0.0589,0.171783 c 0.12742,0.371392 1.84168,5.417253 1.98097,5.830923 l 0.14812,0.439907 h 0.29303 0.29302 l 0.018,-0.111841 c 0.0365,-0.227361 1.47847,-10.498087 1.47847,-10.531042 0,-0.02505 0.28267,-0.03418 1.05801,-0.03418 h 1.05802 l -0.0153,0.08202 c -0.0145,0.07781 -0.39363,2.679734 -1.42109,9.752435 l -0.45599,3.13892 -1.67342,7.7e-5 -1.67343,7.7e-5 -0.10344,-0.290786 c -0.0569,-0.159932 -0.57213,-1.642827 -1.14496,-3.295322 l -1.04152,-3.004537 -0.28333,2.47e-4 -0.28333,2.48e-4 -1.08622,3.138498 c -0.59742,1.726174 -1.11263,3.208958 -1.14492,3.295075 l -0.0587,0.156577 h -1.69347 -1.69347 z"
       id="path27" /></g></svg>
