<?xml version="1.0" encoding="UTF-8" standalone="no"?>
<!-- Created with Inkscape (http://www.inkscape.org/) -->

<svg
   width="184"
   height="36"
   viewBox="0 0 184 36"
   version="1.1"
   id="svg1"
   inkscape:version="1.3.2 (091e20e, 2023-11-25)"
   xml:space="preserve"
   inkscape:export-filename="logo-color.svg"
   inkscape:export-xdpi="96"
   inkscape:export-ydpi="96"
   xmlns:inkscape="http://www.inkscape.org/namespaces/inkscape"
   xmlns:sodipodi="http://sodipodi.sourceforge.net/DTD/sodipodi-0.dtd"
   xmlns="http://www.w3.org/2000/svg"
   xmlns:svg="http://www.w3.org/2000/svg"><sodipodi:namedview
     id="namedview1"
     pagecolor="#ffffff"
     bordercolor="#000000"
     borderopacity="0.25"
     inkscape:showpageshadow="2"
     inkscape:pageopacity="0.0"
     inkscape:pagecheckerboard="0"
     inkscape:deskcolor="#d1d1d1"
     inkscape:document-units="px"
     showgrid="true"
     inkscape:lockguides="false"
     showguides="false"
     inkscape:export-bgcolor="#ffffff00"><inkscape:grid
       id="grid1"
       units="px"
       originx="0"
       originy="0"
       spacingx="0.79374998"
       spacingy="0.79374998"
       empcolor="#0099e5"
       empopacity="0.30196078"
       color="#0099e5"
       opacity="0.14901961"
       empspacing="3"
       dotted="false"
       gridanglex="30"
       gridanglez="30"
       visible="true" /></sodipodi:namedview><defs
     id="defs1" /><g
     inkscape:label="Layer 1"
     inkscape:groupmode="layer"
     id="layer1"><g
       id="g1"><path
         style="fill:#fdfdfd"
         d="m 0,28.173986 v -4.469909 l 1.1889088,0.702503 c 0.6538999,0.386376 3.0239449,1.779769 5.2667667,3.096427 l 4.0778575,2.393925 1.404625,-0.766555 c 1.398032,-0.762956 1.40419,-0.773953 1.311862,-2.342857 L 13.157258,25.211217 9.3527495,22.966315 5.5482413,20.721412 5.4604973,16.060357 5.3727533,11.399303 4.0448396,10.561028 2.7169259,9.7227526 1.5334329,10.403885 C 0.8825118,10.778507 0.27120347,11.085017 0.17496998,11.085017 0.07873649,11.085017 0,9.7296607 0,8.0731146 V 5.0612125 l 5.3104595,0.00522 5.3104595,0.00522 -1.2681695,0.7164682 C 8.161185,6.4613009 8.07887,6.6023571 7.9900502,8.1232514 l -0.09453,1.6186716 3.9782988,2.322967 3.978299,2.322967 v 4.657233 4.657233 l 1.314754,0.776444 1.314753,0.776444 1.386706,-0.775045 1.386706,-0.775045 -0.08586,-6.219797 -0.08586,-6.219798 -5.231199,-3.0975296 -5.231199,-3.0975299 86.631824,-0.00463 86.631827,-0.00463 V 18.852553 32.643894 H 91.942284 0 Z m 49.992793,-0.622939 c 0.490878,-0.185466 1.284845,-0.7115 1.764372,-1.168964 l 0.871866,-0.831751 v 1.010442 1.010443 h 2.060776 2.060775 v -7.609016 -7.609015 h -2.060775 -2.060776 v 4.934999 c 0,6.194913 -0.379877,7.081851 -3.042025,7.102526 -2.305023,0.0179 -2.490019,-0.456248 -2.606353,-6.680159 l -0.100138,-5.357366 h -2.039898 -2.039899 v 5.686122 c 0,3.258284 0.144387,6.067201 0.338162,6.578628 0.987354,2.605916 4.144242,3.956896 6.853913,2.933111 z M 70.27488,27.031579 c 1.555018,-0.806982 2.937332,-2.550747 3.172936,-4.002599 l 0.188976,-1.164525 h -1.943737 c -1.431063,0 -1.943736,0.114156 -1.943736,0.432808 0,0.238044 -0.291521,0.803415 -0.647823,1.25638 -1.385598,1.761503 -4.660182,1.244866 -5.545913,-0.874989 -0.948831,-2.27087 -0.374151,-5.564808 1.158112,-6.638046 1.576682,-1.104352 4.718581,-0.166649 4.718581,1.408266 0,0.541966 0.23775,0.611074 2.102258,0.611074 h 2.102258 l -0.184854,-1.139121 c -0.246583,-1.519513 -1.537786,-3.149551 -3.166162,-3.99702 -1.875628,-0.976149 -5.566254,-0.995955 -7.352868,-0.03946 -3.503105,1.875449 -5.00498,5.690157 -3.83065,9.729711 0.662395,2.27856 2.383426,4.095208 4.530453,4.782157 1.94959,0.623779 5.067349,0.452623 6.642169,-0.364636 z m 19.746686,0.544933 c 0.597849,-0.17146 1.559923,-0.770123 2.137942,-1.330362 l 1.050945,-1.018615 v 1.171841 1.171841 h 2.060775 2.060776 V 16.791778 6.0123395 h -2.060776 -2.060775 v 4.1808655 4.180866 L 92.338587,13.54232 c -3.245719,-3.096383 -8.735622,-1.215608 -10.094335,3.458199 -0.653395,2.2476 -0.449638,5.534114 0.452143,7.29286 1.458827,2.845158 4.343773,4.138187 7.325171,3.283133 z m -2.480822,-3.692717 c -2.023402,-1.417245 -2.176047,-5.620343 -0.277712,-7.646841 0.962121,-1.027077 3.357585,-1.001655 4.578568,0.04859 0.809844,0.696598 0.895792,0.981906 1.002296,3.32716 l 0.116493,2.565224 -1.111433,1.111433 c -0.888367,0.888366 -1.358162,1.111433 -2.340763,1.111433 -0.676131,0 -1.561483,-0.232649 -1.967449,-0.516999 z m 21.700766,3.649209 c 1.97735,-0.497902 3.85781,-2.269715 4.41785,-4.162598 l 0.44556,-1.505951 h -2.04561 c -1.51715,0 -2.04561,0.111812 -2.04561,0.432808 0,0.774055 -1.25284,2.049782 -2.22206,2.26266 -1.28607,0.282467 -3.00316,-0.336413 -3.64308,-1.313051 -0.29005,-0.442666 -0.60491,-1.556278 -0.6997,-2.474694 -0.32858,-3.183587 1.03194,-5.248569 3.45801,-5.248569 1.61114,0 2.29263,0.384965 2.78477,1.573095 0.38044,0.91848 0.4856,0.963244 2.26278,0.963244 1.78636,0 1.86379,-0.03358 1.86379,-0.808351 0,-2.128927 -2.23779,-4.340398 -4.97434,-4.915848 -7.08852,-1.490594 -12.153257,5.397644 -8.71343,11.850596 1.61815,3.035576 5.16806,4.33952 9.11107,3.346659 z m 29.72506,-0.07627 c 0.56803,-0.237337 1.27679,-0.675535 1.57503,-0.973773 0.51164,-0.511639 0.54225,-0.496227 0.54225,0.273001 0,0.792769 0.0573,0.815252 2.07925,0.815252 h 2.07926 l -0.0977,-6.323988 -0.0977,-6.323989 -1.06094,-1.093855 c -1.31851,-1.359425 -3.24728,-1.936254 -5.72354,-1.711714 -3.23673,0.293497 -5.45366,1.901507 -5.93422,4.304281 l -0.20078,1.003911 h 2.10041 c 1.65566,0 2.1004,-0.100696 2.1004,-0.475564 0,-0.830528 1.20834,-1.743732 2.30728,-1.743732 1.51979,0 2.44836,0.770572 2.44836,2.031761 v 1.04468 l -2.59491,0.200105 c -2.93309,0.226183 -5.07137,1.107003 -6.08899,2.508226 -0.83482,1.149524 -0.84936,3.552092 -0.029,4.801923 1.17287,1.787007 4.37011,2.593373 6.59567,1.663475 z m -2.57495,-3.119352 c -0.43708,-0.437077 -0.49623,-1.79944 -0.10493,-2.416597 0.30187,-0.476114 2.23262,-0.988635 3.76677,-0.999896 0.98887,-0.0073 1.03039,0.04261 1.03039,1.237595 0,0.967545 -0.18625,1.39166 -0.83536,1.902254 -0.9382,0.737983 -3.23107,0.902446 -3.85687,0.276644 z m 30.01599,3.352723 c 0.96342,-0.192684 0.99075,-0.245569 0.99075,-1.91662 v -1.718469 l -1.12232,0.21055 c -0.84407,0.158349 -1.2764,0.07112 -1.74374,-0.351814 -0.55298,-0.500439 -0.6214,-0.991513 -0.6214,-4.459686 v -3.897323 l 1.66447,-0.09583 1.66447,-0.09583 v -1.426691 -1.42669 l -1.66447,-0.09583 -1.66447,-0.09583 V 10.751406 9.1827627 h -2.06078 -2.06077 v 1.5852113 c 0,1.549985 -0.0211,1.585212 -0.95113,1.585212 -0.92999,0 -0.95113,0.03523 -0.95113,1.585211 0,1.549985 0.0211,1.585212 0.95113,1.585212 h 0.95113 v 4.469939 c 0,5.7863 0.40427,6.760339 3.15191,7.594083 1.04337,0.316602 2.22157,0.351433 3.46635,0.102477 z M 41.532549,25.668963 v -1.902254 h -4.121551 -4.12155 V 15.365088 6.9634664 H 30.91163 28.533812 V 17.267342 27.571217 h 6.499368 6.499369 z m 38.679167,-5.721247 v -7.623501 l -2.140036,0.09375 -2.140035,0.09375 -0.085,7.529755 -0.085,7.529755 h 2.225035 2.225034 z m 39.947334,2.526436 v -5.097065 l 0.92674,-0.926739 c 0.96658,-0.966577 1.9346,-1.1491 3.31362,-0.624794 1.14895,0.436826 1.46259,1.984605 1.46464,7.22781 l 0.002,4.517853 h 2.08501 2.08502 l -0.1035,-6.159989 c -0.0947,-5.635953 -0.15911,-6.234394 -0.75718,-7.034602 -2.00373,-2.680979 -5.50929,-3.134535 -7.91325,-1.023832 l -1.10287,0.968332 V 10.166733 6.0123395 h -2.21929 -2.2193 V 16.791778 27.571217 h 2.2193 2.21929 z m 32.02128,0.965332 c 0,-5.824491 0.46184,-6.735991 3.6332,-7.170676 l 1.43948,-0.197302 v -1.840449 c 0,-1.012247 -0.12039,-1.914855 -0.26754,-2.005795 -0.56692,-0.35038 -2.76214,0.557856 -3.75987,1.555589 l -1.04527,1.045265 v -1.236465 -1.236465 h -2.06077 -2.06078 v 7.609015 7.609016 h 2.06078 2.06077 z M 79.605917,9.8576953 c 0.530235,-0.4293582 0.732616,-0.9223394 0.732616,-1.7845807 0,-2.5594603 -3.249374,-3.3480348 -4.425341,-1.0739644 -1.228268,2.3752086 1.592774,4.5589818 3.692725,2.8585451 z"
         id="path8" /><path
         style="fill:#f9bd6d"
         d="m 13.055883,27.012416 -0.05715,-1.668449 -1.214161,0.766465 -1.21416,0.766466 -3.8582144,-2.26844 C 4.5901839,23.360817 2.8538511,22.230709 2.8536843,22.097108 2.8535176,21.963507 3.3527229,21.616077 3.9630295,21.325042 l 1.1096482,-0.529154 v -4.670575 -4.670575 l -1.2341316,0.676 L 2.6044145,12.806739 1.4344768,12.18366 C 0.791011,11.840966 0.21382601,11.481454 0.15184346,11.384744 0.0898609,11.288035 0.64611126,10.877341 1.3879554,10.472092 l 1.3488074,-0.736817 1.3179952,0.832014 1.3179953,0.832014 0.087744,4.665365 0.087744,4.665366 3.5785094,2.100797 c 1.9681803,1.155438 3.7245063,2.246793 3.9029463,2.425233 0.17844,0.178441 0.270189,1.022019 0.203885,1.874619 l -0.120553,1.550182 z m 7.802401,-9.2878 0.09201,-6.328743 -1.043137,0.635992 c -0.573725,0.349796 -1.20669,0.636526 -1.406589,0.637178 C 18.004353,12.670661 8.4266966,7.0253479 8.3016172,6.6575233 8.2466144,6.4957748 8.7554053,6.0809109 9.4322637,5.7356036 l 1.2306513,-0.6278316 5.210201,3.0788643 5.210201,3.0788647 0.0863,6.148448 c 0.04747,3.381647 -0.02387,6.258915 -0.158522,6.393929 -0.134653,0.135015 -0.20342,-2.602453 -0.152815,-6.083262 z"
         id="path7" /><path
         style="fill:#9fa0a1"
         d="m 46.862823,27.671683 c 0.228865,-0.09158 0.502314,-0.08032 0.607665,0.02503 0.10535,0.105351 -0.0819,0.180283 -0.416118,0.166517 -0.369336,-0.01521 -0.444462,-0.09034 -0.191547,-0.191547 z m 88.771857,0 c 0.22887,-0.09158 0.50232,-0.08032 0.60767,0.02503 0.10535,0.105351 -0.0819,0.180283 -0.41612,0.166517 -0.36934,-0.01521 -0.44446,-0.09034 -0.19155,-0.191547 z m 28.514,-0.0072 c 0.39234,-0.07557 1.03435,-0.07557 1.42669,0 0.39234,0.07557 0.0713,0.137396 -0.71334,0.137396 -0.78468,0 -1.10569,-0.06183 -0.71335,-0.137396 z M 31.800728,27.334461 c 1.88399,-0.05615 4.880041,-0.05594 6.657889,4.71e-4 1.777849,0.05641 0.236403,0.102347 -3.425437,0.102088 -3.661839,-2.59e-4 -5.116442,-0.04641 -3.232452,-0.102559 z m 44.109121,-7.213738 c 2.08e-4,-4.184959 0.04532,-5.853138 0.100251,-3.707066 0.05493,2.146073 0.05476,5.57013 -3.77e-4,7.609016 -0.05514,2.038886 -0.100081,0.283008 -0.09987,-3.90195 z m 4.121174,0.158521 c 0,-4.097772 0.04518,-5.774133 0.100408,-3.725247 0.05522,2.048886 0.05522,5.401608 0,7.450494 -0.05522,2.048886 -0.100408,0.372525 -0.100408,-3.725247 z m 35.831967,-3.487466 c 0,-6.015878 0.0426,-8.4769187 0.0947,-5.46898 0.0521,3.007939 0.0521,7.930021 0,10.93796 -0.0521,3.007939 -0.0947,0.546898 -0.0947,-5.46898 z m 4.10582,6.182326 c 4.4e-4,-2.6156 0.0495,-3.643429 0.10912,-2.284067 0.0596,1.359363 0.0592,3.499399 -8.1e-4,4.755635 -0.06,1.256237 -0.10875,0.144031 -0.10831,-2.471568 z m 21.18859,3.645986 c 0,-0.610306 0.0652,-0.859977 0.14499,-0.554824 0.0797,0.305153 0.0797,0.804495 0,1.109648 -0.0797,0.305153 -0.14499,0.05548 -0.14499,-0.554824 z m 26.02216,-0.792606 c 0.002,-1.046239 0.061,-1.436024 0.13153,-0.866188 0.0706,0.569836 0.0691,1.42585 -0.003,1.902254 -0.0723,0.476403 -0.13008,0.01017 -0.1283,-1.036066 z m -106.496072,-0.237781 -0.603961,-0.713346 0.713345,0.603962 c 0.670369,0.567575 0.857676,0.822729 0.603962,0.822729 -0.06016,0 -0.381167,-0.321006 -0.713346,-0.713345 z m 40.412582,0.158521 c -0.39436,-0.502847 -0.38314,-0.514061 0.1197,-0.119701 0.52812,0.414174 0.69606,0.674525 0.43513,0.674525 -0.0658,0 -0.31551,-0.249671 -0.55483,-0.554824 z m 36.42105,-0.923316 c 0.21797,-0.08795 0.57464,-0.08795 0.79261,0 0.21797,0.08795 0.0396,0.159911 -0.3963,0.159911 -0.43594,0 -0.61427,-0.07196 -0.39631,-0.159911 z M 49.22686,24.498129 c 0.308472,-0.08038 0.736479,-0.0751 0.951127,0.01175 0.214648,0.08685 -0.03774,0.152613 -0.560858,0.146152 -0.52312,-0.0065 -0.698741,-0.07752 -0.390269,-0.1579 z m 42.081339,-0.534078 c 0,-0.06584 0.249671,-0.315507 0.554824,-0.554824 0.502847,-0.39436 0.514061,-0.383146 0.119701,0.119701 -0.414174,0.528112 -0.674525,0.696059 -0.674525,0.435123 z m 40.314441,-0.514384 c 0,-0.435933 0.072,-0.61427 0.15991,-0.396303 0.088,0.217967 0.088,0.574639 0,0.792606 -0.0879,0.217966 -0.15991,0.03963 -0.15991,-0.396303 z M 33.11118,15.365088 c -1.7e-4,-4.708079 0.04395,-6.6783077 0.09805,-4.378287 0.0541,2.300021 0.05424,6.152085 3.09e-4,8.560143 -0.05393,2.408057 -0.09819,0.526222 -0.09836,-4.181856 z m 102.63301,7.767537 c 0,-0.435934 0.072,-0.61427 0.15991,-0.396303 0.088,0.217966 0.088,0.574639 0,0.792606 -0.088,0.217966 -0.15991,0.03963 -0.15991,-0.396303 z m 5.41321,-1.26817 c 0,-0.610306 0.0652,-0.859977 0.14499,-0.554824 0.0797,0.305154 0.0797,0.804495 0,1.109648 -0.0797,0.305154 -0.14499,0.05548 -0.14499,-0.554824 z M 58.747842,19.962201 c 0,-0.959053 0.05944,-1.351392 0.132077,-0.871866 0.07264,0.479527 0.07264,1.264206 0,1.743733 -0.07264,0.479526 -0.132077,0.08719 -0.132077,-0.871867 z m 34.23192,0 c 0,-0.784679 0.06183,-1.105685 0.137396,-0.713345 0.07557,0.39234 0.07557,1.034351 0,1.426691 -0.07557,0.39234 -0.137396,0.07133 -0.137396,-0.713346 z m 5.99926,-0.158521 c 0.0065,-0.52312 0.07752,-0.698741 0.157901,-0.390269 0.08038,0.308472 0.0751,0.736479 -0.01175,0.951127 -0.08684,0.214648 -0.152614,-0.03774 -0.146153,-0.560858 z M 81.821958,18.509091 c 0.01521,-0.369336 0.09034,-0.444462 0.191546,-0.191547 0.09158,0.228865 0.08032,0.502314 -0.02503,0.607665 -0.105351,0.10535 -0.180283,-0.0819 -0.166516,-0.416118 z m 56.170732,-0.0336 c 0.30515,-0.07975 0.80449,-0.07975 1.10964,0 0.30516,0.07974 0.0555,0.144991 -0.55482,0.144991 -0.61031,0 -0.85998,-0.06525 -0.55482,-0.144991 z m 3.03552,-0.629282 c 0.13529,-0.663557 0.21501,-0.743281 0.3074,-0.307405 0.0686,0.323675 -0.0136,0.726832 -0.18266,0.895905 -0.19851,0.198512 -0.2427,-0.01 -0.12474,-0.5885 z m -7.95675,-0.649162 c 0.56282,-0.07004 1.56151,-0.07119 2.21929,-0.0026 0.65779,0.06863 0.1973,0.125936 -1.02331,0.127343 -1.22061,0.0014 -1.75881,-0.05475 -1.19598,-0.124786 z m -46.518896,-0.52497 c 0,-0.06583 0.24967,-0.315506 0.554824,-0.554824 0.502846,-0.394359 0.51406,-0.383146 0.119701,0.119701 -0.414175,0.528113 -0.674525,0.69606 -0.674525,0.435123 z m 70.442046,-2.310956 c -0.0366,-1.219356 -0.20778,-2.015273 -0.45495,-2.115006 -0.3104,-0.125251 -0.30824,-0.165337 0.01,-0.184942 0.59257,-0.03651 0.75435,0.626988 0.62153,2.5491 l -0.11788,1.705942 z m -67.820413,0.942781 c 0.308472,-0.08038 0.736479,-0.0751 0.951127,0.01175 0.214648,0.08685 -0.03774,0.152614 -0.560858,0.146153 -0.52312,-0.0065 -0.698741,-0.07752 -0.390269,-0.1579 z m 77.993473,-1.365505 c 0,-0.784679 0.0618,-1.105685 0.1374,-0.713345 0.0756,0.39234 0.0756,1.034351 0,1.426691 -0.0756,0.39234 -0.1374,0.07133 -0.1374,-0.713346 z m -83.309966,0 c 0.315611,-0.348746 0.645173,-0.634084 0.732359,-0.634084 0.08719,0 -0.09971,0.285338 -0.415317,0.634084 -0.315611,0.348747 -0.645173,0.634085 -0.73236,0.634085 -0.08719,0 0.09971,-0.285338 0.415318,-0.634085 z M 119.89916,10.21315 c 0.058,-4.4216504 0.1806,-3.8974411 0.33394,1.427419 0.0465,1.613353 -0.0225,2.933041 -0.15331,2.932641 -0.13078,-4e-4 -0.21206,-1.962427 -0.18063,-4.36006 z m -42.778607,2.229995 c 0.479527,-0.07264 1.264207,-0.07264 1.743733,0 0.479527,0.07264 0.08719,0.132077 -0.871866,0.132077 -0.959053,0 -1.351393,-0.05944 -0.871867,-0.132077 z M 65.711388,12.125682 c 0.481924,-0.07287 1.195269,-0.07093 1.585212,0.0043 0.389942,0.07525 -0.0044,0.134877 -0.876226,0.132497 -0.871867,-0.0024 -1.19091,-0.06395 -0.708986,-0.136825 z m 40.418542,0.0038 c 0.39234,-0.07557 1.03435,-0.07557 1.42669,0 0.39234,0.07557 0.0713,0.137396 -0.71335,0.137396 -0.78468,0 -1.10568,-0.06183 -0.71334,-0.137396 z m 34.26039,0.0072 c 0.22886,-0.09158 0.50231,-0.08032 0.60766,0.02503 0.10535,0.105351 -0.0819,0.180284 -0.41611,0.166517 -0.36934,-0.01521 -0.44447,-0.09034 -0.19155,-0.191547 z M 79.260589,10.014189 c 0,-0.065836 0.249671,-0.3155068 0.554824,-0.5548244 0.502847,-0.3943597 0.514061,-0.3831458 0.119701,0.119701 -0.414174,0.5281124 -0.674525,0.6960594 -0.674525,0.4351234 z M 75.481111,8.0466944 c 0.01521,-0.3693363 0.09034,-0.4444615 0.191546,-0.1915464 0.09158,0.2288649 0.08032,0.5023139 -0.02503,0.6076644 -0.10535,0.1053505 -0.180283,-0.081903 -0.166516,-0.416118 z m 4.755635,0 c 0.01521,-0.3693363 0.09034,-0.4444615 0.191546,-0.1915464 0.09158,0.2288649 0.08032,0.5023139 -0.02503,0.6076644 -0.105351,0.1053505 -0.180283,-0.081903 -0.166516,-0.416118 z m -0.699555,-1.638052 c -0.394359,-0.5028468 -0.383146,-0.5140606 0.119701,-0.119701 0.528113,0.4141745 0.69606,0.674525 0.435123,0.674525 -0.06584,0 -0.315506,-0.2496708 -0.554824,-0.554824 z"
         id="path6" /><path
         style="fill:#7c7e81"
         d="m 47.794135,27.678288 c 0.217967,-0.08795 0.57464,-0.08795 0.792606,0 0.217967,0.08795 0.03963,0.159912 -0.396303,0.159912 -0.435933,0 -0.614269,-0.07196 -0.396303,-0.159912 z m 19.042357,-0.0066 c 0.228865,-0.09158 0.502314,-0.08032 0.607664,0.02503 0.105351,0.105351 -0.0819,0.180283 -0.416118,0.166517 -0.369336,-0.01521 -0.444461,-0.09034 -0.191546,-0.191547 z m 21.241838,0 c 0.228865,-0.09158 0.502314,-0.08032 0.607664,0.02503 0.105351,0.105351 -0.0819,0.180283 -0.416118,0.166517 -0.369336,-0.01521 -0.444461,-0.09034 -0.191546,-0.191547 z m 19.02254,0 c 0.22887,-0.09158 0.50232,-0.08032 0.60767,0.02503 0.10535,0.105351 -0.0819,0.180283 -0.41612,0.166517 -0.36934,-0.01521 -0.44446,-0.09034 -0.19155,-0.191547 z m 29.46513,0.0066 c 0.21796,-0.08795 0.57463,-0.08795 0.7926,0 0.21797,0.08795 0.0396,0.159912 -0.3963,0.159912 -0.43593,0 -0.61427,-0.07196 -0.3963,-0.159912 z M 53.81794,27.34187 c 0.566713,-0.07033 1.494062,-0.07033 2.060775,0 0.566714,0.07033 0.103039,0.12787 -1.030387,0.12787 -1.133427,0 -1.597101,-0.05754 -1.030388,-0.12787 z m 23.144092,0 c 0.566713,-0.07033 1.494062,-0.07033 2.060776,0 0.566713,0.07033 0.103038,0.12787 -1.030388,0.12787 -1.133427,0 -1.597101,-0.05754 -1.030388,-0.12787 z m 17.113216,5.28e-4 c 0.562824,-0.07004 1.561507,-0.07119 2.219297,-0.0026 0.657789,0.06863 0.197296,0.125936 -1.023317,0.127343 -1.220613,0.0014 -1.758804,-0.05475 -1.19598,-0.124785 z m 22.834122,-5.28e-4 c 0.56671,-0.07033 1.49406,-0.07033 2.06077,0 0.56672,0.07033 0.10304,0.12787 -1.03038,0.12787 -1.13343,0 -1.5971,-0.05754 -1.03039,-0.12787 z m 9.82124,5.28e-4 c 0.56282,-0.07004 1.56151,-0.07119 2.2193,-0.0026 0.65779,0.06863 0.19729,0.125936 -1.02332,0.127343 -1.22061,0.0014 -1.7588,-0.05475 -1.19598,-0.124785 z m 15.54215,-5.28e-4 c 0.56671,-0.07033 1.49406,-0.07033 2.06077,0 0.56672,0.07033 0.10304,0.12787 -1.03038,0.12787 -1.13343,0 -1.59711,-0.05754 -1.03039,-0.12787 z m 6.65082,5.28e-4 c 0.56282,-0.07004 1.5615,-0.07119 2.21929,-0.0026 0.65779,0.06863 0.1973,0.125936 -1.02331,0.127343 -1.22062,0.0014 -1.75881,-0.05475 -1.19598,-0.124785 z M 81.876881,20.120723 c 0.0035,-0.697493 0.06844,-0.945501 0.144279,-0.551128 0.07583,0.394373 0.07296,0.965049 -0.0064,1.268169 -0.07935,0.30312 -0.1414,-0.01955 -0.137881,-0.717041 z m 57.859539,-1.636662 c 0.21797,-0.08795 0.57464,-0.08795 0.7926,0 0.21797,0.08795 0.0396,0.159912 -0.3963,0.159912 -0.43593,0 -0.61427,-0.07196 -0.3963,-0.159912 z m 18.55301,-3.180159 c 0.30847,-0.08038 0.73648,-0.0751 0.95113,0.01175 0.21465,0.08685 -0.0377,0.152614 -0.56086,0.146153 -0.52312,-0.0065 -0.69874,-0.07752 -0.39027,-0.1579 z m 6.33481,-0.0074 c 0.47953,-0.07264 1.26421,-0.07264 1.74374,0 0.47952,0.07264 0.0872,0.132077 -0.87187,0.132077 -0.95905,0 -1.35139,-0.05944 -0.87187,-0.132077 z M 43.989627,12.440881 c 0.566713,-0.07033 1.494062,-0.07033 2.060775,0 0.566714,0.07033 0.103039,0.12787 -1.030387,0.12787 -1.133427,0 -1.597101,-0.05754 -1.030388,-0.12787 z m 9.828313,0 c 0.566713,-0.07033 1.494062,-0.07033 2.060775,0 0.566714,0.07033 0.103039,0.12787 -1.030387,0.12787 -1.133427,0 -1.597101,-0.05754 -1.030388,-0.12787 z m 95.10564,5.28e-4 c 0.56282,-0.07004 1.5615,-0.07119 2.21929,-0.0026 0.65779,0.06863 0.1973,0.125936 -1.02331,0.127343 -1.22062,0.0014 -1.75881,-0.05475 -1.19598,-0.124785 z m 9.35982,0.01027 c 0.30515,-0.07974 0.80449,-0.07974 1.10965,0 0.30515,0.07975 0.0555,0.14499 -0.55483,0.14499 -0.61031,0 -0.85998,-0.06524 -0.55482,-0.14499 z m 6.34084,-0.0085 c 0.47953,-0.07264 1.26421,-0.07264 1.74374,0 0.47952,0.07264 0.0872,0.132077 -0.87187,0.132077 -0.95905,0 -1.35139,-0.05944 -0.87187,-0.132077 z M 88.22307,12.133478 c 0.308472,-0.08038 0.736479,-0.0751 0.951127,0.01175 0.214648,0.08685 -0.03774,0.152614 -0.560858,0.146153 -0.52312,-0.0065 -0.698741,-0.07752 -0.390269,-0.157901 z m 36.14283,0 c 0.30847,-0.08038 0.73648,-0.0751 0.95113,0.01175 0.21464,0.08685 -0.0377,0.152614 -0.56086,0.146153 -0.52312,-0.0065 -0.69874,-0.07752 -0.39027,-0.157901 z"
         id="path5" /><path
         style="fill:#e85f0c"
         d="M 5.157865,26.669454 0.01185329,23.608188 0.00592664,17.484838 0,11.361487 l 1.2938674,0.727194 1.2938675,0.727194 1.2424714,-0.680568 1.2424714,-0.680569 v 4.670575 4.670575 l -1.1096482,0.529154 c -0.6103066,0.291035 -1.1095119,0.638465 -1.1093452,0.772066 1.668e-4,0.133601 1.7364996,1.263709 3.8585173,2.51135 l 3.8582144,2.26844 1.21416,-0.766466 1.214161,-0.766465 v 1.530808 c 0,1.448315 -0.06639,1.568124 -1.232076,2.223273 -0.677642,0.380856 -1.283985,0.679012 -1.34743,0.662568 -0.06344,-0.01644 -2.4310596,-1.407466 -5.261366,-3.091162 z m 11.886266,-2.361955 -1.185804,-0.699311 -0.0031,-4.669266 -0.0031,-4.669267 -3.95753,-2.305664 -3.9575307,-2.3056649 -0.0055,-1.5002059 -0.0055,-1.5002059 2.7741207,1.6351372 c 1.525766,0.8993255 3.820259,2.2520965 5.098874,3.0061565 1.278614,0.754061 2.491301,1.370487 2.69486,1.369835 0.203558,-6.52e-4 0.833781,-0.283893 1.400494,-0.629425 l 1.030388,-0.628239 v 6.151807 6.151808 l -1.06781,0.659942 c -1.30075,0.803908 -1.336802,0.803044 -2.812855,-0.06744 z"
         id="path4" /><path
         style="fill:#585b5f"
         d="m 52.679091,26.62009 c 0,-0.435933 0.07196,-0.614269 0.159911,-0.396303 0.08795,0.217967 0.08795,0.574639 0,0.792606 -0.08795,0.217967 -0.159911,0.03963 -0.159911,-0.396303 z m 77.120299,-4.438592 c 0,-2.877159 0.0481,-4.054179 0.10681,-2.615599 0.0587,1.438579 0.0587,3.792618 0,5.231198 -0.0588,1.438579 -0.10681,0.26156 -0.10681,-2.615599 z m -58.46486,4.001849 c 0,-0.06584 0.249671,-0.315507 0.554825,-0.554824 0.502846,-0.39436 0.51406,-0.383146 0.119701,0.119701 -0.414175,0.528112 -0.674526,0.69606 -0.674526,0.435123 z m 40.26438,0 c 0,-0.06584 0.24967,-0.315507 0.55482,-0.554824 0.50285,-0.39436 0.51406,-0.383146 0.1197,0.119701 -0.41417,0.528112 -0.67452,0.69606 -0.67452,0.435123 z M 52.75583,17.267342 c 4.44e-4,-2.615599 0.04955,-3.643429 0.109122,-2.284066 0.05957,1.359362 0.05921,3.499398 -8.07e-4,4.755634 -0.06002,1.256237 -0.10876,0.144031 -0.108315,-2.471568 z m 10.080364,2.853381 c 0.0065,-0.52312 0.07752,-0.698741 0.1579,-0.390269 0.08038,0.308472 0.0751,0.736479 -0.01175,0.951127 -0.08684,0.214648 -0.152613,-0.03774 -0.146152,-0.560858 z m 40.252636,-0.158522 c 0,-0.435933 0.072,-0.614269 0.15991,-0.396302 0.088,0.217966 0.088,0.574639 0,0.792605 -0.0879,0.217967 -0.15991,0.03963 -0.15991,-0.396303 z m -32.467645,-2.1316 c 0.566713,-0.07033 1.494062,-0.07033 2.060775,0 0.566714,0.07033 0.103039,0.12787 -1.030387,0.12787 -1.133427,0 -1.597101,-0.05754 -1.030388,-0.12787 z m 40.264375,0 c 0.56672,-0.07033 1.49407,-0.07033 2.06078,0 0.56671,0.07033 0.10304,0.12787 -1.03039,0.12787 -1.13342,0 -1.5971,-0.05754 -1.03039,-0.12787 z M 60.55509,14.769823 c 0,-0.06583 0.249671,-0.315506 0.554824,-0.554824 0.502847,-0.394359 0.514061,-0.383145 0.119701,0.119701 -0.414174,0.528113 -0.674525,0.69606 -0.674525,0.435123 z m 11.056042,-0.752165 c -0.394359,-0.502847 -0.383145,-0.514061 0.119701,-0.119701 0.528113,0.414175 0.69606,0.674525 0.435123,0.674525 -0.06583,0 -0.315506,-0.249671 -0.554824,-0.554824 z m 67.021668,-1.88418 c 0.30848,-0.08038 0.73648,-0.0751 0.95113,0.01175 0.21465,0.08685 -0.0377,0.152614 -0.56086,0.146153 -0.52312,-0.0065 -0.69874,-0.07752 -0.39027,-0.157901 z m 22.02841,-2.86302 c 0.56672,-0.070329 1.49407,-0.070329 2.06078,0 0.56671,0.070329 0.10304,0.1278699 -1.03039,0.1278699 -1.13342,0 -1.5971,-0.057541 -1.03039,-0.1278699 z"
         id="path3" /><path
         style="fill:#262a31"
         d="m 46.446705,27.307156 c -1.44762,-0.532889 -2.377817,-1.131642 -2.377817,-1.530562 0,-0.23357 -0.166448,-0.424673 -0.369883,-0.424673 -0.203436,0 -0.291003,-0.07888 -0.194595,-0.175287 0.09641,-0.09641 -0.02248,-0.832428 -0.264202,-1.6356 -0.289285,-0.961219 -0.43949,-3.068431 -0.43949,-6.165559 v -4.705247 h 1.902254 1.902255 v 4.9299 c 0,5.728657 0.252055,6.577838 2.104241,7.089252 0.860516,0.237599 1.415826,0.207918 2.194129,-0.117278 0.993355,-0.41505 2.123421,-1.68922 2.017227,-2.274459 -0.02741,-0.151066 -0.03294,-2.379035 -0.0123,-4.951041 l 0.03755,-4.676374 h 1.743733 1.743733 v 7.308542 7.308542 l -1.664473,-0.09583 c -1.605565,-0.09244 -1.670082,-0.131994 -1.822993,-1.117692 -0.163754,-1.055592 -0.655758,-1.059611 -1.043563,-0.0085 -0.112588,0.305153 -0.423187,0.554824 -0.69022,0.554824 -0.267033,0 -0.485514,0.118891 -0.485514,0.264202 0,0.145311 -0.178336,0.282726 -0.396303,0.305366 -0.217966,0.02264 -1.038313,0.110858 -1.822993,0.196039 -0.78468,0.08518 -1.712029,0.04984 -2.060776,-0.07854 z m 18.84741,0.148718 c -0.09632,-0.100144 -0.631331,-0.216841 -1.188909,-0.259327 -0.557577,-0.04249 -1.013777,-0.197989 -1.013777,-0.345563 0,-0.147573 -0.108578,-0.201211 -0.241284,-0.119194 -0.294567,0.182053 -3.0375,-2.618548 -3.214539,-3.282123 -1.012608,-3.795428 -0.531196,-6.771284 1.409333,-8.711813 1.668001,-1.668001 3.19295,-2.284044 5.563214,-2.247406 3.426693,0.05297 5.800125,1.657506 6.479767,4.380591 0.215969,0.865312 0.20549,0.871866 -1.393836,0.871866 -1.466254,0 -1.655316,-0.08485 -2.098426,-0.941728 -0.267843,-0.517951 -0.735181,-1.069095 -1.03853,-1.224766 -1.403768,-0.720376 -4.831614,0.01645 -4.831614,1.038568 0,0.242551 -0.163832,0.495612 -0.36407,0.562358 -0.45609,0.15203 -0.64761,4.169532 -0.248775,5.218548 0.373022,0.981121 1.783698,2.285446 2.728171,2.522494 0.40593,0.101881 1.113009,0.09113 1.571285,-0.02389 0.887284,-0.222694 2.654236,-1.801468 2.654236,-2.371563 0,-0.199392 0.674839,-0.34143 1.622172,-0.34143 1.734644,0 1.710674,-0.03778 1.195285,1.883772 -0.176542,0.658207 -1.721349,2.146522 -2.815031,2.712087 -0.971288,0.502272 -4.466455,0.998962 -4.774672,0.678517 z m 21.179188,-0.320621 c -0.6539,-0.242244 -1.188909,-0.37857 -1.188909,-0.302947 0,0.574572 -2.598877,-2.844297 -2.788278,-3.66803 -0.32807,-1.426817 -0.243105,-5.616891 0.128418,-6.333002 0.224462,-0.432651 0.356729,-0.869777 0.293927,-0.971393 -0.0628,-0.101615 0.586511,-0.879079 1.442916,-1.727697 0.856406,-0.848618 1.557102,-1.435916 1.557102,-1.305107 0,0.130808 0.178336,0.09724 0.396303,-0.0746 0.381397,-0.300681 3.37902,-0.342239 4.359332,-0.06044 0.26156,0.07519 0.869145,0.529046 1.350188,1.008573 0.481043,0.479526 0.944718,0.871866 1.030388,0.871866 0.08567,0 0.155763,-1.854697 0.155763,-4.12155 V 6.3293818 h 1.902254 1.902254 V 16.8076 27.285818 l -1.822993,-0.09508 c -1.810978,-0.09446 -1.82366,-0.102024 -1.924041,-1.148257 l -0.101048,-1.053174 -0.75568,0.815392 c -0.415625,0.448466 -0.905162,0.815393 -1.087862,0.815393 -0.182699,0 -0.33218,0.118891 -0.33218,0.264202 0,0.145311 -0.178337,0.280342 -0.396303,0.300068 -0.217967,0.01973 -0.96698,0.115847 -1.664473,0.213601 -0.743953,0.104266 -1.759622,-0.0043 -2.457078,-0.262708 z m 4.517854,-2.734459 c 0,-0.174373 0.155401,-0.281375 0.345336,-0.237782 0.481075,0.110415 1.528717,-1.330308 1.79171,-2.46397 0.556483,-2.398783 -0.277828,-5.858391 -1.412797,-5.858391 -0.223964,0 -0.407207,-0.142669 -0.407207,-0.317042 0,-0.174373 -0.107002,-0.293639 -0.237782,-0.265035 -0.13078,0.0286 -0.622013,-0.05616 -1.091629,-0.188369 -0.469616,-0.132206 -1.040292,-0.123954 -1.268169,0.01834 -0.227877,0.142293 -0.599751,0.28681 -0.826386,0.32115 -0.619545,0.09387 -1.331669,0.768947 -1.331669,1.262384 0,0.240209 -0.151089,0.436744 -0.335754,0.436744 -0.184664,0 -0.253671,0.13281 -0.153349,0.295135 0.100322,0.162324 0.04993,0.37701 -0.111987,0.477078 -0.382715,0.236531 -0.219767,4.618259 0.18175,4.887308 0.168888,0.113169 0.399187,0.455432 0.511775,0.760586 0.112589,0.305153 0.423188,0.554824 0.69022,0.554824 0.267033,0 0.485514,0.142669 0.485514,0.317042 0,0.174373 0.713345,0.317042 1.585212,0.317042 0.871866,0 1.585212,-0.142669 1.585212,-0.317042 z m 14.567333,3.05508 c -0.0963,-0.100144 -0.63133,-0.216841 -1.1889,-0.259327 -0.55758,-0.04249 -1.01378,-0.213347 -1.01378,-0.379692 0,-0.166345 -0.0883,-0.214127 -0.19627,-0.106181 -0.10794,0.107945 -0.39251,1.5e-5 -0.63237,-0.239846 -0.23986,-0.23986 -0.76491,-0.69674 -1.16679,-1.01529 -1.516625,-1.202177 -2.366547,-5.443995 -1.608881,-8.029675 0.127738,-0.435933 0.196392,-0.838087 0.152564,-0.893676 -0.164347,-0.208443 3.293267,-3.484338 3.525887,-3.340574 0.13359,0.08257 0.2429,-0.0094 0.2429,-0.204343 0,-0.194955 0.13281,-0.272382 0.29514,-0.17206 0.16232,0.100322 0.36954,0.06201 0.46049,-0.08514 0.24264,-0.392614 4.67924,-0.241531 5.46427,0.18608 0.36941,0.201221 0.76175,0.275764 0.87187,0.165651 0.11011,-0.110114 0.20021,-0.03376 0.20021,0.169675 0,0.203436 0.17833,0.371649 0.3963,0.373808 0.5241,0.0052 1.79416,1.99193 2.03127,3.1775 l 0.18802,0.940125 h -1.62484 c -0.90718,0 -1.62484,-0.14475 -1.62484,-0.327728 0,-0.18025 -0.44298,-0.760755 -0.9844,-1.29001 -0.81837,-0.799983 -1.20605,-0.949278 -2.29856,-0.885178 -1.88735,0.110736 -2.86928,0.703049 -3.45607,2.084759 -0.44238,1.041663 -0.55546,3.042283 -0.28856,5.105217 0.0744,0.575341 1.79177,2.193363 2.60038,2.450006 0.83831,0.266069 2.842,-0.08189 2.842,-0.493543 0,-0.166472 0.214,-0.302676 0.47556,-0.302676 0.26156,0 0.47557,-0.214004 0.47557,-0.475564 0,-0.26156 0.14266,-0.475563 0.31704,-0.475563 0.17437,0 0.28137,-0.178337 0.23778,-0.396303 -0.0536,-0.267781 0.46258,-0.427452 1.59153,-0.492351 l 1.67078,-0.09605 -0.0738,0.967914 c -0.0406,0.532353 -0.20985,0.967915 -0.3762,0.967915 -0.16634,0 -0.21692,0.08552 -0.1124,0.190044 0.25896,0.258954 -1.46455,1.906946 -2.61827,2.503561 -0.97129,0.502272 -4.46646,0.998962 -4.77468,0.678517 z m 27.78375,-1.277071 c -1.17412,-1.181697 -1.29056,-1.444128 -1.25595,-2.830697 0.021,-0.840538 0.19932,-1.689419 0.39631,-1.886401 0.19698,-0.196983 0.35978,-0.507954 0.36179,-0.691046 0.004,-0.334009 1.68462,-1.203063 3.16678,-1.637214 0.87195,-0.255407 1.25967,-0.294716 3.75679,-0.380887 l 1.69601,-0.05853 -0.14761,-1.479167 c -0.1728,-1.73145 -0.67554,-2.201484 -2.42816,-2.270158 -1.06367,-0.04168 -1.43897,0.127767 -2.34166,1.05724 -0.88265,0.908826 -1.307,1.106874 -2.37168,1.106874 -0.71318,0 -1.36369,-0.108416 -1.44559,-0.240923 -0.41108,-0.665148 1.60144,-3.56573 2.66479,-3.840684 2.3055,-0.596136 3.21984,-0.702599 4.64749,-0.541141 4.49875,0.50878 5.04173,1.535345 4.91858,9.299122 l -0.0867,5.46898 h -1.57772 c -1.35037,0 -1.57773,-0.08868 -1.57773,-0.615374 0,-0.924414 -0.53236,-1.071556 -1.2566,-0.347317 -0.35511,0.355107 -0.64565,0.556845 -0.64565,0.448307 0,-0.108538 -0.2358,-0.0015 -0.524,0.237782 -0.31405,0.260774 -1.3517,0.448857 -2.58967,0.469399 -2.01538,0.03344 -2.09717,0.0026 -3.35977,-1.268169 z m 6.74153,-1.642588 c 1.05858,-0.528087 1.43307,-1.379701 1.26262,-2.871233 -0.0947,-0.828971 -0.22747,-0.919031 -1.48772,-1.009437 -0.76104,-0.05459 -1.58288,-0.02283 -1.82632,0.07059 -0.24344,0.09342 -0.54813,0.187821 -0.67708,0.209787 -1.83328,0.312285 -2.38119,2.744997 -0.86854,3.856322 0.55108,0.404866 2.55869,0.261969 3.59704,-0.256027 z m 22.95722,2.728181 c -2.50817,-0.600876 -3.25164,-2.421484 -3.25164,-7.962564 v -4.095265 h -0.79261 c -0.71334,0 -0.7926,-0.126817 -0.7926,-1.26817 0,-1.141352 0.0793,-1.268169 0.7926,-1.268169 0.73793,0 0.79261,-0.107484 0.79261,-1.558159 V 9.5539096 l 1.98151,-0.1063129 1.98152,-0.1063129 v 1.5852112 1.585212 l 1.50595,0.09663 1.50595,0.09663 v 1.233427 1.233427 l -1.50595,0.09663 -1.50595,0.09663 -0.0887,4.032887 c -0.0825,3.754833 -0.0421,4.079418 0.58621,4.707753 0.46402,0.46402 0.9539,0.633912 1.56798,0.543784 0.85629,-0.125676 0.89748,-0.07141 0.99901,1.316051 l 0.10589,1.447133 -1.42669,0.04904 c -0.78468,0.02697 -1.88949,-0.06183 -2.45512,-0.19734 z M 28.850855,17.278221 V 7.2805088 h 2.060775 2.060775 v 8.2431002 8.2431 l 4.04229,0.03755 c 2.22326,0.02065 4.149292,0.02065 4.280072,0 0.13078,-0.02065 0.237782,0.736281 0.237782,1.682068 v 1.719613 l -6.340847,0.035 -6.340847,0.035 z m 47.556353,2.68398 v -7.32511 l 1.664472,0.09583 1.664473,0.09583 v 7.133452 7.133453 l -1.664473,0.09583 -1.664472,0.09583 z m 39.855902,7.094854 C 116.13902,26.932973 116.0375,22.218486 116.0375,16.580417 V 6.3293818 h 1.90226 1.90225 v 4.2701212 c 0,3.531965 0.0768,4.240647 0.44432,4.099619 0.24438,-0.09378 0.51636,-0.445972 0.60441,-0.782656 0.088,-0.336684 0.38744,-0.612153 0.66532,-0.612153 0.27789,0 0.50525,-0.118891 0.50525,-0.264202 0,-0.323405 0.28853,-0.376467 2.66579,-0.490241 2.11267,-0.101111 3.15733,0.266902 3.71654,1.309267 0.21049,0.39234 0.50969,0.713345 0.66488,0.713345 0.1552,0 0.2001,0.132811 0.0998,0.295135 -0.10032,0.162325 -0.0544,0.374225 0.10197,0.470891 0.15641,0.09667 0.3088,2.817235 0.33865,6.045711 l 0.0543,5.869956 h -1.73289 -1.73289 l -0.10653,-5.213625 c -0.103,-5.040141 -0.13205,-5.237371 -0.87312,-5.927225 -1.27834,-1.189996 -4.10614,-0.942013 -4.99934,0.438417 -0.14184,0.219207 -0.32922,2.681262 -0.41641,5.471235 l -0.15852,5.072677 -1.59739,0.0935 c -0.87856,0.05143 -1.69891,-0.008 -1.82299,-0.132101 z m 32.11271,-7.094854 v -7.291973 h 1.74374 1.74373 v 1.056808 c 0,1.415546 0.28019,1.611381 1.07807,0.753507 1.03075,-1.108247 2.16556,-1.810315 2.92616,-1.810315 0.61559,0 0.70481,0.195068 0.80132,1.751941 0.10851,1.750428 0.10788,1.751781 -0.73308,1.56665 -0.46292,-0.10191 -0.93646,-0.03194 -1.05229,0.155485 -0.11584,0.187426 -0.32892,0.267658 -0.47352,0.178293 -0.14459,-0.08937 -0.7205,0.26498 -1.27979,0.787434 -0.55929,0.522454 -0.90193,0.949917 -0.76143,0.949917 0.1405,0 0.0843,0.171202 -0.12499,0.38045 -0.25777,0.257766 -0.38045,1.74021 -0.38045,4.597114 v 4.216663 h -1.74373 -1.74374 z M 77.675378,10.202226 C 77.413818,10.112563 76.913404,9.8108363 76.563347,9.531722 75.671192,8.8203716 75.956072,7.0873892 77.105862,6.2314997 l 0.857175,-0.6380707 1.076618,0.7377099 c 0.886389,0.6073635 1.057193,0.9045353 0.966685,1.6818763 -0.168853,1.4502177 -1.323439,2.5345908 -2.330962,2.1892108 z"
         id="path2" /><path
         style="fill:#020715"
         d="m 64.617195,27.354641 c 0.228865,-0.09158 0.502314,-0.08032 0.607665,0.02503 0.105351,0.10535 -0.0819,0.180283 -0.416118,0.166516 -0.369336,-0.01521 -0.444462,-0.09034 -0.191547,-0.191546 z m 3.487466,0 c 0.228865,-0.09158 0.502314,-0.08032 0.607665,0.02503 0.10535,0.10535 -0.0819,0.180283 -0.416118,0.166516 -0.369336,-0.01521 -0.444462,-0.09034 -0.191547,-0.191546 z m 18.705499,0 c 0.228865,-0.09158 0.502314,-0.08032 0.607665,0.02503 0.105351,0.10535 -0.0819,0.180283 -0.416118,0.166516 -0.369336,-0.01521 -0.444462,-0.09034 -0.191547,-0.191546 z m 18.07141,0 c 0.22887,-0.09158 0.50232,-0.08032 0.60767,0.02503 0.10535,0.10535 -0.0819,0.180283 -0.41612,0.166516 -0.36934,-0.01521 -0.44446,-0.09034 -0.19155,-0.191546 z m 3.48747,0 c 0.22887,-0.09158 0.50231,-0.08032 0.60767,0.02503 0.10535,0.10535 -0.0819,0.180283 -0.41612,0.166516 -0.36934,-0.01521 -0.44446,-0.09034 -0.19155,-0.191546 z m 54.84833,0 c 0.22886,-0.09158 0.50231,-0.08032 0.60766,0.02503 0.10535,0.10535 -0.0819,0.180283 -0.41611,0.166516 -0.36934,-0.01521 -0.44447,-0.09034 -0.19155,-0.191546 z m 2.97553,0.01979 c 0.38005,-0.113233 0.57596,-0.597166 0.66646,-1.646268 l 0.12818,-1.485892 -0.0324,1.58236 c -0.0274,1.337312 -0.13056,1.592257 -0.66645,1.646268 -0.4625,0.04661 -0.48843,0.02051 -0.0958,-0.09647 z M 28.608458,17.188081 28.533812,6.9634664 l 2.298557,0.062096 2.298557,0.062096 -2.135602,0.1108097 -2.135602,0.1108097 -0.08831,10.0517092 -0.08831,10.051709 z m 27.961431,2.77412 c 0,-4.097771 0.04518,-5.774133 0.100408,-3.725247 0.05522,2.048886 0.05522,5.401609 0,7.450495 -0.05523,2.048886 -0.100408,0.372524 -0.100408,-3.725248 z m 19.656626,0 c 0,-4.097771 0.04518,-5.774133 0.100408,-3.725247 0.05522,2.048886 0.05522,5.401609 0,7.450495 -0.05522,2.048886 -0.100408,0.372524 -0.100408,-3.725248 z m 9.218645,6.978563 c -0.111073,-0.179719 0.01619,-0.23287 0.298331,-0.124601 0.54925,0.210767 0.649743,0.438012 0.193699,0.438012 -0.164083,0 -0.385496,-0.141035 -0.49203,-0.313411 z M 97.014961,16.806907 V 6.3596387 l -1.981514,-0.112562 -1.981515,-0.112562 2.140036,-0.061088 2.140036,-0.061088 V 16.633257 c 0,5.841505 -0.07134,10.620918 -0.158521,10.620918 -0.08719,0 -0.158522,-4.701271 -0.158522,-10.447268 z m 28.978459,5.691633 c 0,-2.702786 0.0486,-3.808471 0.10806,-2.457078 0.0594,1.351393 0.0594,3.562763 0,4.914156 -0.0594,1.351393 -0.10806,0.245708 -0.10806,-2.457078 z m 15.45753,4.12155 c 0,-0.435933 0.072,-0.614269 0.15991,-0.396303 0.088,0.217967 0.088,0.574639 0,0.792606 -0.088,0.217967 -0.15991,0.03963 -0.15991,-0.396303 z m 3.5678,-4.755635 c 0,-3.051532 0.0476,-4.299886 0.10567,-2.77412 0.0581,1.525766 0.0581,4.022475 0,5.548241 -0.0581,1.525766 -0.10567,0.277412 -0.10567,-2.774121 z m 3.17638,-1.902254 c 0,-4.097771 0.0452,-5.774133 0.10041,-3.725247 0.0552,2.048886 0.0552,5.401609 0,7.450495 -0.0552,2.048886 -0.10041,0.372524 -0.10041,-3.725248 z m 3.79325,3.011903 c 5e-4,-2.441226 0.0503,-3.398001 0.1106,-2.126165 0.0603,1.271835 0.0599,3.269201 -9e-4,4.438592 -0.0608,1.169391 -0.11019,0.128798 -0.1097,-2.312427 z m -19.01923,3.249683 -0.60397,-0.713345 0.71335,0.603962 c 0.67037,0.567575 0.85768,0.822728 0.60396,0.822728 -0.0602,0 -0.38117,-0.321005 -0.71334,-0.713345 z m 28.04793,0.158521 c -0.39436,-0.502846 -0.38315,-0.51406 0.1197,-0.119701 0.30515,0.239318 0.55482,0.488989 0.55482,0.554824 0,0.260937 -0.26035,0.09299 -0.67452,-0.435123 z m -100.168943,-0.951127 -0.76861,-0.871866 0.871866,0.76861 c 0.814891,0.718382 1.017259,0.975123 0.76861,0.975123 -0.05679,0 -0.44913,-0.39234 -0.871866,-0.871867 z m 40.416773,0.158522 -0.60396,-0.713346 0.71334,0.603962 c 0.67037,0.567575 0.85768,0.822729 0.60397,0.822729 -0.0602,0 -0.38117,-0.321006 -0.71335,-0.713345 z M 83.3417,25.114139 c -0.39436,-0.502847 -0.383146,-0.51406 0.119701,-0.119701 0.528112,0.414175 0.696059,0.674525 0.435123,0.674525 -0.06584,0 -0.315507,-0.249671 -0.554824,-0.554824 z M 66.024071,24.816333 c 0.305153,-0.07974 0.804495,-0.07974 1.109648,0 0.305153,0.07974 0.05548,0.144991 -0.554824,0.144991 -0.610306,0 -0.859977,-0.06525 -0.554824,-0.144991 z m 40.264379,0 c 0.30515,-0.07974 0.8045,-0.07974 1.10965,0 0.30515,0.07974 0.0555,0.144991 -0.55483,0.144991 -0.6103,0 -0.85997,-0.06525 -0.55482,-0.144991 z m 58.97591,-0.318204 c 0.30847,-0.08038 0.73648,-0.0751 0.95113,0.01175 0.21465,0.08685 -0.0377,0.152613 -0.56086,0.146152 -0.52312,-0.0065 -0.69874,-0.07752 -0.39027,-0.1579 z M 51.836425,23.766709 c 0.315612,-0.348746 0.645174,-0.634084 0.73236,-0.634084 0.08719,0 -0.09971,0.285338 -0.415317,0.634084 -0.315612,0.348747 -0.645174,0.634085 -0.73236,0.634085 -0.08719,0 0.09971,-0.285338 0.415317,-0.634085 z m 39.947337,0 c 0.315612,-0.348746 0.645174,-0.634084 0.73236,-0.634084 0.08719,0 -0.09971,0.285338 -0.415317,0.634084 -0.315612,0.348747 -0.645174,0.634085 -0.73236,0.634085 -0.08719,0 0.09971,-0.285338 0.415317,-0.634085 z m 40.185808,-0.475563 c 0.004,-0.697493 0.0684,-0.945501 0.14428,-0.551128 0.0758,0.394373 0.073,0.965049 -0.006,1.268169 -0.0794,0.303121 -0.1414,-0.01955 -0.13788,-0.717041 z m 31.74747,-3.804508 c 5.5e-4,-2.266853 0.0511,-3.152601 0.11222,-1.968329 0.0612,1.184271 0.0607,3.038969 -0.001,4.12155 -0.0617,1.082581 -0.11176,0.113632 -0.11121,-2.153221 z M 46.734292,17.742905 c 0,-2.877159 0.04806,-4.054178 0.10681,-2.615599 0.05875,1.43858 0.05875,3.792619 0,5.231198 -0.05875,1.43858 -0.10681,0.26156 -0.10681,-2.615599 z m 26.502493,4.772204 c 0,-0.165261 -0.749013,-0.352873 -1.664473,-0.416917 L 69.90784,21.98175 71.730833,21.9231 c 1.435143,-0.04617 1.822994,0.04253 1.822994,0.416916 0,0.26156 -0.07134,0.475563 -0.158521,0.475563 -0.08719,0 -0.158521,-0.135213 -0.158521,-0.300473 z m 40.264375,0 c 0,-0.165261 -0.74901,-0.352873 -1.66447,-0.416917 l -1.66447,-0.116442 1.82299,-0.05865 c 1.43515,-0.04617 1.823,0.04253 1.823,0.416916 0,0.26156 -0.0713,0.475563 -0.15852,0.475563 -0.0872,0 -0.15853,-0.135213 -0.15853,-0.300473 z M 82.139,21.996556 c 0.01521,-0.369336 0.09034,-0.444461 0.191547,-0.191546 0.09158,0.228865 0.08032,0.502314 -0.02503,0.607664 -0.105351,0.105351 -0.180283,-0.0819 -0.166517,-0.416118 z M 59.019938,21.547413 c 0,-0.435933 0.07196,-0.614269 0.159912,-0.396303 0.08795,0.217967 0.08795,0.574639 0,0.792606 -0.08795,0.217967 -0.159912,0.03963 -0.159912,-0.396303 z m 76.674192,0.514384 c 0,-0.06584 0.24967,-0.315507 0.55482,-0.554824 0.50285,-0.39436 0.51406,-0.383146 0.1197,0.119701 -0.41417,0.528112 -0.67452,0.696059 -0.67452,0.435123 z M 85.651496,21.230371 c 0,-0.435933 0.07196,-0.61427 0.159912,-0.396303 0.08795,0.217966 0.08795,0.574639 0,0.792606 -0.08795,0.217966 -0.159912,0.03963 -0.159912,-0.396303 z m 17.412304,0.132101 c 0.0152,-0.369337 0.0903,-0.444462 0.19154,-0.191547 0.0916,0.228865 0.0803,0.502314 -0.025,0.607665 -0.10535,0.10535 -0.18028,-0.0819 -0.16651,-0.416118 z m -3.734536,-1.400271 c 0,-0.959053 0.05944,-1.351392 0.132077,-0.871866 0.07264,0.479527 0.07264,1.264206 0,1.743733 -0.07264,0.479526 -0.132077,0.08719 -0.132077,-0.871867 z m 39.297506,0.724044 c 0.47953,-0.07264 1.26421,-0.07264 1.74373,0 0.47953,0.07264 0.0872,0.132077 -0.87186,0.132077 -0.95906,0 -1.3514,-0.05943 -0.87187,-0.132077 z M 93.27226,19.80368 c 0.0065,-0.52312 0.07752,-0.698741 0.1579,-0.390269 0.08038,0.308472 0.0751,0.736479 -0.01175,0.951127 -0.08684,0.214648 -0.152614,-0.03774 -0.146153,-0.560858 z m -7.620764,-1.109648 c 0,-0.435933 0.07196,-0.614269 0.159912,-0.396303 0.08795,0.217967 0.08795,0.57464 0,0.792606 -0.08795,0.217967 -0.159912,0.03963 -0.159912,-0.396303 z M 103.0638,18.509091 c 0.0152,-0.369336 0.0903,-0.444462 0.19154,-0.191547 0.0916,0.228865 0.0803,0.502314 -0.025,0.607665 -0.10535,0.10535 -0.18028,-0.0819 -0.16651,-0.416118 z m 34.13628,0.292013 c 0.21797,-0.08795 0.57464,-0.08795 0.79261,0 0.21796,0.08795 0.0396,0.159911 -0.39631,0.159911 -0.43593,0 -0.61427,-0.07196 -0.3963,-0.159911 z M 58.994908,18.192049 c 0.01521,-0.369337 0.09034,-0.444462 0.191547,-0.191547 0.09158,0.228865 0.08032,0.502314 -0.02503,0.607665 -0.105351,0.10535 -0.180283,-0.0819 -0.166517,-0.416118 z m 23.144092,0 c 0.01521,-0.369337 0.09034,-0.444462 0.191547,-0.191547 0.09158,0.228865 0.08032,0.502314 -0.02503,0.607665 -0.105351,0.10535 -0.180283,-0.0819 -0.166517,-0.416118 z m 43.27164,-1.624379 c -0.17206,-0.451848 -0.13564,-0.488265 0.17747,-0.177479 0.21668,0.215061 0.31409,0.470885 0.21648,0.568498 -0.0976,0.09761 -0.27489,-0.07834 -0.39395,-0.391019 z m 10.46239,0.131174 c 0.11906,-0.312673 0.29634,-0.488632 0.39395,-0.391019 0.0976,0.09761 2e-4,0.353438 -0.21647,0.568498 -0.31311,0.310786 -0.34953,0.27437 -0.17748,-0.177479 z m -15.71398,-0.02677 c 0,-0.06583 0.24967,-0.315506 0.55483,-0.554824 0.50284,-0.394359 0.51406,-0.383146 0.1197,0.119701 -0.41418,0.528113 -0.67453,0.69606 -0.67453,0.435123 z M 68.757751,15.919912 c -0.39436,-0.502847 -0.383146,-0.514061 0.119701,-0.119701 0.528113,0.414174 0.69606,0.674525 0.435123,0.674525 -0.06583,0 -0.315506,-0.249671 -0.554824,-0.554824 z m 17.794813,0.435123 c 0,-0.06584 0.24967,-0.315506 0.554824,-0.554824 0.502846,-0.39436 0.51406,-0.383146 0.119701,0.119701 -0.414175,0.528113 -0.674525,0.69606 -0.674525,0.435123 z m 68.738746,-0.413917 c 0.22886,-0.09159 0.50231,-0.08032 0.60766,0.02503 0.10535,0.105351 -0.0819,0.180283 -0.41611,0.166517 -0.36934,-0.01521 -0.44447,-0.09034 -0.19155,-0.191547 z m 1.32761,-1.662431 c 0,-1.22099 -0.12111,-1.593616 -0.55482,-1.706956 -0.41752,-0.109108 -0.37829,-0.154092 0.15852,-0.181768 0.65776,-0.03391 0.71335,0.0991 0.71335,1.706956 0,0.959053 -0.0713,1.743732 -0.15852,1.743732 -0.0872,0 -0.15853,-0.702884 -0.15853,-1.561964 z m -56.11649,1.145717 c 0,-0.05456 0.46367,-0.518238 1.03038,-1.030388 l 1.03039,-0.931182 -0.93118,1.030387 c -0.86799,0.960466 -1.12959,1.176117 -1.12959,0.931183 z m 21.81647,-0.117371 c 0.22887,-0.09158 0.50232,-0.08032 0.60767,0.02503 0.10535,0.10535 -0.0819,0.180283 -0.41612,0.166516 -0.36934,-0.01521 -0.44446,-0.09034 -0.19155,-0.191546 z m 1.26817,0 c 0.22887,-0.09158 0.50232,-0.08032 0.60767,0.02503 0.10535,0.10535 -0.0819,0.180283 -0.41612,0.166516 -0.36934,-0.01521 -0.44446,-0.09034 -0.19155,-0.191546 z M 89.009642,14.996596 c 0.217966,-0.08795 0.574639,-0.08795 0.792606,0 0.217966,0.08795 0.03963,0.159911 -0.396303,0.159911 -0.435933,0 -0.61427,-0.07196 -0.396303,-0.159911 z m 68.963798,-1.058199 c 0,-0.784679 0.0618,-1.105685 0.1374,-0.713345 0.0756,0.39234 0.0756,1.034351 0,1.426691 -0.0756,0.39234 -0.1374,0.07133 -0.1374,-0.713346 z m 8.87719,0 c 0,-0.784679 0.0618,-1.105685 0.1374,-0.713345 0.0756,0.39234 0.0756,1.034351 0,1.426691 -0.0756,0.39234 -0.1374,0.07133 -0.1374,-0.713346 z m -82.834405,0.158522 c 0.409538,-0.435934 0.815949,-0.792606 0.903135,-0.792606 0.08719,0 -0.176555,0.356672 -0.586093,0.792606 -0.409538,0.435933 -0.815949,0.792605 -0.903136,0.792605 -0.08719,0 0.176556,-0.356672 0.586094,-0.792605 z m 67.927015,-0.317043 c 0.004,-0.697493 0.0684,-0.9455 0.14428,-0.551127 0.0758,0.394373 0.073,0.965049 -0.006,1.268169 -0.0794,0.30312 -0.1414,-0.01955 -0.13788,-0.717042 z m -90.437023,0.355863 c 0,-0.06584 0.249671,-0.315507 0.554824,-0.554824 0.502847,-0.39436 0.514061,-0.383146 0.119701,0.119701 -0.414174,0.528112 -0.674525,0.696059 -0.674525,0.435123 z m 6.281402,-1.682087 c 0.228865,-0.09158 0.502314,-0.08032 0.607665,0.02503 0.10535,0.10535 -0.0819,0.180283 -0.416119,0.166517 -0.369336,-0.01521 -0.444461,-0.09034 -0.191546,-0.191547 z m 37.411001,0 c 0.22886,-0.09158 0.50231,-0.08032 0.60766,0.02503 0.10535,0.10535 -0.0819,0.180283 -0.41612,0.166517 -0.36933,-0.01521 -0.44446,-0.09034 -0.19154,-0.191547 z m 2.85338,0 c 0.22886,-0.09158 0.50231,-0.08032 0.60766,0.02503 0.10535,0.10535 -0.0819,0.180283 -0.41612,0.166517 -0.36933,-0.01521 -0.44446,-0.09034 -0.19154,-0.191547 z m 28.85085,0 c 0.22887,-0.09158 0.50232,-0.08032 0.60767,0.02503 0.10535,0.10535 -0.0819,0.180283 -0.41612,0.166517 -0.36934,-0.01521 -0.44446,-0.09034 -0.19155,-0.191547 z m 3.80451,0 c 0.22887,-0.09158 0.50232,-0.08032 0.60767,0.02503 0.10535,0.10535 -0.0819,0.180283 -0.41612,0.166517 -0.36934,-0.01521 -0.44446,-0.09034 -0.19155,-0.191547 z m 22.97717,-1.527157 c 0.002,-0.871866 0.064,-1.1909096 0.13683,-0.708986 0.0729,0.481925 0.0709,1.19527 -0.004,1.585212 -0.0752,0.389942 -0.13488,-0.0044 -0.1325,-0.876226 z M 76.366768,9.5790656 c -0.39436,-0.5028468 -0.383146,-0.5140607 0.119701,-0.119701 0.528112,0.4141745 0.69606,0.6745254 0.435123,0.6745254 -0.06584,0 -0.315507,-0.2496712 -0.554824,-0.5548244 z m 2.576779,0.4351234 c 0,-0.065836 0.249671,-0.3155068 0.554824,-0.5548244 0.502847,-0.3943597 0.514061,-0.3831458 0.119701,0.119701 -0.414174,0.5281124 -0.674525,0.6960594 -0.674525,0.4351234 z M 75.83493,8.0731146 c 0.0065,-0.5231199 0.07752,-0.6987409 0.157901,-0.390269 0.08038,0.3084719 0.0751,0.736479 -0.01175,0.9511269 -0.08684,0.214648 -0.152614,-0.037738 -0.146153,-0.5608579 z m 0.255236,-1.2293492 c 0,-0.065835 0.249671,-0.3155063 0.554824,-0.554824 0.502847,-0.3943596 0.514061,-0.3831458 0.119701,0.119701 -0.414175,0.5281126 -0.674525,0.6960597 -0.674525,0.435123 z m 3.129983,-0.435123 c -0.39436,-0.5028468 -0.383146,-0.5140606 0.119701,-0.119701 0.528113,0.4141745 0.69606,0.674525 0.435123,0.674525 -0.06584,0 -0.315506,-0.2496708 -0.554824,-0.554824 z M 116.90937,6.1000348 c 0.56671,-0.070329 1.49406,-0.070329 2.06077,0 0.56672,0.070328 0.10304,0.12787 -1.03038,0.12787 -1.13343,0 -1.5971,-0.057542 -1.03039,-0.12787 z"
         id="path1" /></g></g></svg>
